<svg width="269" height="281" fill="none" xmlns="http://www.w3.org/2000/svg"><path d="M214.053 1.676v67.566h-77.661v-.033h-10.046v3.895h5.921A12.336 12.336 0 01140.226 76a11.88 11.88 0 013.15-1.884 15.692 15.692 0 015.532-1.095h17.665c.932 0 5.401.164 8.764 3.084a11.88 11.88 0 013.287-1.972 15.727 15.727 0 015.538-1.096h25.082v-2.065h24.802v4.996h17.528v42.292a10.209 10.209 0 01-3.018 7.356c-3.445 3.429-8.419 3.572-9.394 3.583H221.59c-.98 0-5.948-.176-9.377-3.599a10.195 10.195 0 01-2.969-7.373v-8.939h-12.599v14.943a12.842 12.842 0 017.066 3.396 10.262 10.262 0 013.013 7.488v23.553a6.737 6.737 0 011.72 7.176c-.148.422-.975 2.799-2.125 6.272a9.09 9.09 0 01-.324.986l-.115.356c3.835.498 6.661 1.758 8.765 3.834.466.466.886.976 1.254 1.523.571.393 1.105.839 1.594 1.331a10.521 10.521 0 011.703 2.229c.389-.394.767-.761 1.134-1.095 1.096-.97 3.49-3.155 6.694-3.155a7.472 7.472 0 013.243.755 7.303 7.303 0 013.489 3.183c5.664 3.21 4.163 10.407 1.933 21.132-2.355 11.29-5.357 24.058-8.008 35.32-1.265 5.379-2.465 10.457-3.489 14.948l-.926 4.043c-.613 2.738-.646 2.864-.893 3.363-.06.17-.246.728-.717 2.388-1.063 3.741-1.961 6.65-2.668 8.644-.827 2.306-2.684 7.499-7.74 7.499a7.972 7.972 0 01-.964-.061h-.334l-.191-.054a6.817 6.817 0 01-4.766-3.523c-2.07-1.095-3.801-3.33-3.867-7.164 0-1.448.077-2.894.23-4.333a7.124 7.124 0 013.834-5.636c2.427-8.869 7.669-31.266 11.109-46.417-2.374 2.077-4.669 3.116-6.886 3.116a7.28 7.28 0 01-3.489-.92 7.418 7.418 0 01-2.651-2.322c-2.772 3.253-6.754 7.12-11.191 7.12a7.898 7.898 0 01-3.878-1.035 8.182 8.182 0 01-3.122-3.018 8.297 8.297 0 01-3.385-3.889c-4.053 5.297-7.981 9.246-12.286 9.246a7.596 7.596 0 01-3.287-.767 7.438 7.438 0 01-3.495-3.182 7.319 7.319 0 01-3.171-3.495c-1.2.783-2.476 1.643-3.862 2.52-3.955 2.569-8.972 5.401-13.759 5.401-.508 0-1.015-.033-1.518-.099a9.248 9.248 0 01-5.976-3.287 8.323 8.323 0 01-.657-.925 9.207 9.207 0 01-2.191-1.928c-5.806-7.056 1.134-19.835 5.949-24.792 5.411-5.576 10.566-8.403 14.575-9.86h-10.626c-4.086-.06-8.217-1.791-10.473-5.044a11.044 11.044 0 01-5.051 3.933 15.904 15.904 0 01-5.477 1.095h-17.633a16.01 16.01 0 01-5.263-1.03v1.03H73.4l-9.093 12.445.104.049a6.729 6.729 0 012.903 2.882c.746.39 1.411.918 1.961 1.555a44.21 44.21 0 017.504-7.334l.395-.28c1.309-.914 3.363-2.36 6.025-2.36.552 0 1.103.059 1.643.175a7.583 7.583 0 014.93 3.566l.05.093a7.721 7.721 0 011.643 1.282c.328-.444.662-.877 1.008-1.31 4.623-5.784 9.383-8.736 14.154-8.736h.279a10.845 10.845 0 018.216 3.982c.185.233.357.477.515.728a10.537 10.537 0 012.339 2.126 10.398 10.398 0 011.983 7.811 13.825 13.825 0 01-.482 2.257c.377.197.733.431 1.063.701a6.698 6.698 0 011.758 2.136 6.797 6.797 0 012.153 10.265c-7.976 9.942-16.526 12.927-18.471 13.502a22.421 22.421 0 01-7.323 1.381c-4.07 0-6.749-1.545-8.436-3.167-6.266 3.287-11.201 4.876-15.21 4.876-.627 0-1.253-.04-1.874-.121a11.08 11.08 0 01-4.716-1.747 10.091 10.091 0 01-2.882-2.876 10.137 10.137 0 01-2.623-2.514 11.676 11.676 0 00-.46 1.824 6.796 6.796 0 01-6.661 7.97 6.203 6.203 0 01-.893-.061 6.809 6.809 0 01-5.133-3.582 6.728 6.728 0 01-2.158-1.786 6.844 6.844 0 01-1.254-2.508c-.422-1.616-.493-3.572.246-6.689-4.14 5.604-7.438 10.014-8.764 11.701-1.325 1.687-4.426 5.576-8.808 5.576a7.673 7.673 0 01-6.666-3.835c-2.618-1.489-4.157-4.436-4.092-7.986l-1.386-21.428a6.893 6.893 0 01.351-2.629 6.794 6.794 0 011.337-2.295 6.71 6.71 0 012.147-1.605 6.772 6.772 0 012.552-.674h.438a6.776 6.776 0 016.026 3.637 6.612 6.612 0 012.915 3.009c.389.8.615 1.669.667 2.556l.093 2.219a7701.4 7701.4 0 0022.77-31.047 10.562 10.562 0 01-1.046-4.7v-34.054a10.373 10.373 0 013.002-7.477c3.287-3.287 7.997-3.604 9.224-3.604h.548a10.41 10.41 0 01-1.643-5.73V97.928h-3.506V83.391c-.65.076-1.306.115-1.96.115H30.673V24.134c0-6.606 6.37-11.048 12.342-11.048h53.066a13.692 13.692 0 018.764 3.106 12.115 12.115 0 013.232-1.956 15.64 15.64 0 015.522-1.095l47.578.033h5.176a14.31 14.31 0 017.077 2.004c.554.335 1.08.714 1.572 1.134a11.882 11.882 0 013.38-2.07 16.148 16.148 0 015.543-1.134h5.286V1.676h24.841zM167.34 183.67a6.82 6.82 0 013.763-4.727 11.882 11.882 0 01-3.21-1.939c-.981.832-2.091 1.5-3.286 1.977-.56.218-1.132.401-1.715.548a6.825 6.825 0 012.641 2.739c.682.36 1.298.832 1.824 1.396l-.017.006zM215.696.033h-28.16v11.399h-3.643a17.628 17.628 0 00-6.145 1.254c-.976.395-1.904.899-2.767 1.5a15.84 15.84 0 00-.712-.46 16.02 16.02 0 00-7.926-2.223h-5.182l-47.572-.033c-2.108.04-4.19.463-6.146 1.249-.915.373-1.787.843-2.602 1.402a15.67 15.67 0 00-8.764-2.678H43.005a15.09 15.09 0 00-9.471 3.423 11.902 11.902 0 00-4.541 9.312V85.16h32.153v14.422h3.49v18.679c-.01 1.444.233 2.879.717 4.24-2.191.312-5.653 1.232-8.359 3.927a11.958 11.958 0 00-3.483 8.644v34.043a12.706 12.706 0 00.805 4.492c-5.702 7.816-13.371 18.229-19.72 26.905a8.365 8.365 0 00-2.497-3.834 7.833 7.833 0 00-1.2-.876 8.32 8.32 0 00-7.203-4.054h-.548a8.448 8.448 0 00-7.904 8.973l1.342 21.362c-.05 3.922 1.643 7.302 4.547 9.148a9.244 9.244 0 006.573 4.212c.419.059.842.088 1.265.088 5.21 0 8.65-4.322 10.117-6.168.893-1.123 2.695-3.506 5.374-7.121.061.502.156 1 .284 1.49a8.477 8.477 0 003.79 5.083 8.49 8.49 0 006.13 4.015c.364.046.73.07 1.096.071a8.434 8.434 0 008.435-7.844l.181.126a11.621 11.621 0 003.16 3.068 12.793 12.793 0 005.401 1.999c.694.092 1.393.138 2.093.137 4.042 0 8.95-1.49 14.976-4.546a13.695 13.695 0 008.67 2.837 24.152 24.152 0 007.828-1.457c2.514-.75 11.142-3.938 19.248-14.039a8.461 8.461 0 00-2.224-12.5 8.508 8.508 0 00-1.939-2.191l-.202-.159c.093-.438.17-.882.224-1.314a11.506 11.506 0 00-4.76-11.339 18.288 18.288 0 00-.427-.581 12.553 12.553 0 00-4.234-3.346h8.216c2.1-.043 4.174-.464 6.124-1.244a13.295 13.295 0 004.432-2.903 15.023 15.023 0 0010.44 4.141h3.538a45.587 45.587 0 00-8.643 7.033c-5.33 5.478-12.599 19.035-6.026 26.983a10.763 10.763 0 002.274 2.071c.191.29.383.547.547.783a10.874 10.874 0 007.039 3.878 13.17 13.17 0 001.742.115c5.264 0 10.594-3.029 14.652-5.664l2.411-1.572a9.091 9.091 0 002.525 2.361 9.176 9.176 0 004.004 3.478 9.346 9.346 0 003.977.92c4.634 0 8.556-3.642 12.1-7.991a9.932 9.932 0 002.377 2.191 9.849 9.849 0 003.522 3.286 9.635 9.635 0 004.672 1.238c3.594 0 7.269-2.059 11.191-6.277.564.493 1.184.92 1.846 1.271a8.886 8.886 0 004.272 1.095 9.867 9.867 0 004.383-1.095c-3.605 15.759-7.828 33.599-9.986 41.629a8.694 8.694 0 00-4.059 6.573c-.16 1.5-.24 3.006-.241 4.514.082 4.93 2.563 7.291 4.311 8.342a8.467 8.467 0 005.576 3.911l.121.039.158.043h.471c.375.044.752.066 1.129.066 6.217 0 8.446-6.239 9.284-8.589.723-2.026 1.644-4.968 2.706-8.764.4-1.413.586-1.994.658-2.191.29-.602.367-.948.975-3.626l.92-4.048c1.013-4.442 2.191-9.46 3.445-14.789l.039-.165c2.651-11.278 5.658-24.052 8.013-35.363 2.262-10.857 3.911-18.766-2.328-22.661a9.665 9.665 0 00-7.942-4.382c-3.61 0-6.278 2.219-7.57 3.374a11.322 11.322 0 00-.8-.882 12.612 12.612 0 00-1.572-1.347 12.39 12.39 0 00-1.276-1.506 14.97 14.97 0 00-7.784-3.889c1.096-3.32 1.868-5.522 1.956-5.774a8.432 8.432 0 00-1.644-8.381v-22.896a11.906 11.906 0 00-3.5-8.654 13.961 13.961 0 00-6.573-3.544v-11.958h9.312v7.296a11.792 11.792 0 003.445 8.534c3.895 3.889 9.466 4.081 10.539 4.081h17.611c1.993-.027 6.967-.487 10.549-4.064a11.774 11.774 0 002.602-3.923c.595-1.469.888-3.043.86-4.628V74.293h-17.528v-4.996h-19.988V.033zm-87.707 70.82h6.76v.032H207.6v.477h-23.416c-2.112.036-4.2.456-6.163 1.238-.933.378-1.824.856-2.656 1.424a16.433 16.433 0 00-8.764-2.657h-17.682a17.421 17.421 0 00-6.151 1.238c-.891.36-1.742.81-2.542 1.342a14.148 14.148 0 00-7.975-2.475h-4.284l.022-.62zm38.069 109.277a13.503 13.503 0 001.835-1.062l.115.076a8.58 8.58 0 00-1.363 1.802 7.11 7.11 0 00-.587-.816zm-91.837 1.6h24.923v-.455c.654.154 1.316.269 1.983.345-3.374 1.424-6.699 4.158-9.92 8.184l-.186-.121a9.17 9.17 0 00-2.509-2.629 9.077 9.077 0 00-3.336-1.446 9.434 9.434 0 00-1.96-.208c-3.21 0-5.577 1.643-6.99 2.662l-.394.274a43.383 43.383 0 00-6.71 6.326 6.602 6.602 0 00-.614-.41 8.41 8.41 0 00-1.857-2.153c2.914-3.982 5.533-7.587 7.57-10.369z" fill="url(#paint0_linear_2_28)"/><path d="M234.046 75.936V70.94h-24.802v2.065h-25.06c-1.897.028-3.773.4-5.538 1.096a11.884 11.884 0 00-3.287 1.972c-3.385-2.92-7.855-3.084-8.764-3.084h-17.676c-1.895.028-3.769.4-5.532 1.095a11.867 11.867 0 00-3.15 1.885 12.364 12.364 0 00-7.97-2.898h-5.921v-3.895h10.046v.033h77.672V1.676h-24.885v11.399h-5.286c-1.892.047-3.762.43-5.521 1.128a12.117 12.117 0 00-3.38 2.065c-.492-.42-1.017-.8-1.572-1.133a14.387 14.387 0 00-7.077-1.989h-5.176l-47.578-.033c-1.892.028-3.763.4-5.522 1.096a12.114 12.114 0 00-3.232 1.955 13.632 13.632 0 00-8.764-3.105H43.005c-5.971 0-12.369 4.436-12.369 11.048v59.41h30.192c.656 0 1.31-.039 1.961-.115v14.537h3.49v20.322a10.41 10.41 0 001.643 5.73h-.4c-.964 0-5.916.164-9.361 3.604a10.367 10.367 0 00-2.974 7.477v34.043c0 4.524 2.497 8.129 6.852 9.86a15.912 15.912 0 005.478 1.095H97.5v-1.03c1.684.637 3.464.985 5.264 1.03h17.616a15.904 15.904 0 005.477-1.095 11.062 11.062 0 005.051-3.933c2.273 3.253 6.387 4.984 10.473 5.045h17.72a15.882 15.882 0 005.477-1.096 11.895 11.895 0 003.287-1.977 12.18 12.18 0 003.33 1.993 15.916 15.916 0 005.478 1.096h17.654a16.186 16.186 0 005.478-1.096c4.382-1.752 6.863-5.357 6.863-9.859v-34.016a10.33 10.33 0 00-3.012-7.488 12.853 12.853 0 00-7.061-3.369v-14.986h12.598v8.939a10.204 10.204 0 002.964 7.373c3.429 3.423 8.397 3.599 9.377 3.599h17.616c.981 0 5.949-.154 9.394-3.583a10.149 10.149 0 002.975-7.389V75.936h-17.474z" fill="#000"/><path d="M183.926 63.901h24.808V7.017h-14.241v11.399h-10.567s-7.06.038-7.06 5.746v34.092c-.006 5.598 7.06 5.648 7.06 5.648zm7.121-34.07h3.451v22.935h-3.451V29.83zM67.802 72.22V18.417H43.004c-4.234 0-7.027 3.045-7.027 5.718v34.213c0 5.604 7.055 5.642 7.055 5.642h10.594v2.87h-17.65v11.323h24.852c6.974-.017 6.974-5.96 6.974-5.96zM53.62 52.652h-3.44V29.825h3.44v22.826zm102.206-22.793h3.418v34.043h14.105v-39.69c0-4.382-4.809-5.74-7-5.74-4.733 0-8.217.985-10.517 2.864v-2.86h-14.083v45.427h14.077V29.858zm90.38 62.746V81.276h-17.528v-4.995h-14.077v4.995h-3.506v11.328h3.506v25.602c0 5.642 7.011 5.631 7.011 5.631h17.638s7.011 0 7.011-5.631V95.414h-14.012v17.101h-3.505V92.604h17.462zm-37.291-2.87l.055-11.41h-24.781s-7.055 0-7.055 5.746v39.811h14.198v-19.927h17.66V92.538h-17.66v-2.782l17.583-.022zm-35.347 28.483v-8.512h-14.105v2.876h-3.429v-5.735h17.556v-22.77c0-5.714-7.017-5.714-7.017-5.714h-17.654s-7.017 0-7.017 5.74v34.154c0 5.63 7.028 5.647 7.028 5.647h17.643s7.017 0 7.017-5.658l-.022-.028zm-17.555-28.483h3.428v5.658h-3.428v-5.658zM71.636 118.25c0 5.609 7.022 5.653 7.022 5.653h17.627s7.011-.033 7.011-5.658V95.452H89.285v17.14h-3.506V92.604h17.528V81.276H85.565v-5.192H71.433v5.192h-3.286v11.328h3.489v25.646zM85.56 46.904h3.407v25.553c0 5.642 7.12 5.648 7.12 5.648h10.819v45.798h14.099v-34.07h3.413v34.07h14.105V84.179c0-5.73-6.261-5.73-6.261-5.73h-11.257V66.827h-17.922V44.03a3.68 3.68 0 00-1.748-3.353s1.759-.657 1.764-2.3V24.21c0-5.74-7.011-5.795-7.011-5.795h-24.65v54.54h14.11l.012-26.052zm0-17.057h3.418v5.67H85.56v-5.67zm28.045 34.022h24.649v-39.69c0-5.736-7.017-5.736-7.017-5.736h-17.632s-7.017 0-7.017 5.735v8.42h14.111V29.82h3.423v5.647H113.6s-7.012 0-7.012 5.642v17.112c0 5.631 7.012 5.648 7.012 5.648h.005zm7.121-17.025h3.423v5.74h-3.423v-5.74zm-35.604 82.46H67.528s-7.017 0-7.017 5.74v8.414h14.11v-2.739h3.424v5.647H67.522s-7.011 0-7.011 5.648v17.112c0 5.625 7.011 5.642 7.011 5.642h24.65v-39.707c-.017-5.757-7.034-5.757-7.034-5.757h-.016zM78 163.435h-3.424v-5.713h3.424v5.713zm35.221-.044h-3.396v-34.12H95.737v39.745c0 5.692 7.001 5.73 7.001 5.73h17.599s6.995-.038 6.995-5.669v-39.746h-14.067l-.043 34.06zm35.314-36.41h-14.072v5.16h-3.506v11.372h3.506v25.58c0 5.527 7.011 5.636 7.011 5.636h17.61s7.012-.032 7.012-5.636v-22.809H152.08v17.101h-3.506v-19.872h17.528v-11.355h-17.528l-.038-5.177zm45.792 2.367h-17.605s-7.022 0-7.022 5.724v34.016c0 5.641 7.022 5.641 7.022 5.641h17.611s7.033 0 7.033-5.641v-34.016c0-5.768-7.033-5.708-7.033-5.708l-.006-.016zm-7.121 34.098h-3.429v-22.732h3.418l.011 22.732z" fill="#fff"/><path d="M203.563 186.66h-6.918v11.311h6.94l-.022-11.311z" fill="#000"/><path d="M123.421 202.605a6.755 6.755 0 00-4.722-1.474 14.31 14.31 0 001.287-4.332 10.465 10.465 0 00-.202-4.125 10.35 10.35 0 00-1.786-3.719 10.875 10.875 0 00-8.216-3.988c-4.864-.12-9.718 2.832-14.44 8.737a44.567 44.567 0 00-1.747 2.333 8.414 8.414 0 00-.953-2.399 7.572 7.572 0 00-4.93-3.571c-3.489-.745-6.107 1.095-7.668 2.191l-.4.279c-1.725 1.2-5.302 4.437-8.66 8.764a6.775 6.775 0 00-2.647-5.222 6.786 6.786 0 00-5.728-1.214c7.789-10.637 14.384-19.686 14.532-19.889a6.798 6.798 0 00-3.542-10.876 6.776 6.776 0 00-5.13.715 4.49 4.49 0 00-.344.214 6.605 6.605 0 00-1.928 1.95c-.247.339-20.952 28.746-32.29 44.039l-.603-8.424a6.725 6.725 0 00-.68-2.564 6.824 6.824 0 00-3.9-3.44 6.92 6.92 0 00-2.629-.35 6.764 6.764 0 00-4.667 2.29 6.676 6.676 0 00-1.33 2.289 6.798 6.798 0 00-.357 2.629l1.348 21.429c-.072 3.982 1.873 7.219 5.11 8.468a7.735 7.735 0 002.794.52c4.42.028 7.46-3.807 8.802-5.548 2.131-2.684 9.197-12.243 16.756-22.541-.416.921-.843 1.89-1.27 2.887-4.481 10.407-4.881 14.521-4.103 17.495a6.817 6.817 0 005.702 5.029 6.693 6.693 0 002.613-.164 6.78 6.78 0 004.968-7.707c.306-1.452.739-2.874 1.293-4.251a10.768 10.768 0 004.716 7.816 11.067 11.067 0 004.716 1.748c4.322.591 9.805-.926 17.085-4.755 2.541 2.449 7.329 4.716 15.759 1.786 1.944-.548 10.495-3.56 18.47-13.502a6.803 6.803 0 00-1.057-9.553h-.022zm-36.327 7.482a55.808 55.808 0 01-8.441 4.191 37.816 37.816 0 015.477-7.57 6.796 6.796 0 003.374-.548c.29-.126.574-.267.85-.422a31.58 31.58 0 00-1.26 4.349zm146.01-28.368c-4.787-2.251-8.529 1.128-9.936 2.404-.806.729-1.682 1.616-2.651 2.679a10.307 10.307 0 00-3.035-6.677c-2.69-2.701-6.633-4.015-12.429-4.081 1.781-5.56 3.21-9.651 3.407-10.221a6.792 6.792 0 00-12.653-4.93c-.033.077-3.139 7.274-8.895 17.463a168.303 168.303 0 00-12.007 3.073h-.066a6.803 6.803 0 00-3.172 10.916 7.89 7.89 0 00-3.927.055 6.787 6.787 0 00.798-6.983 6.778 6.778 0 00-5.821-3.939c-1.095-.06-11.224-.258-22.425 11.278-4.82 4.963-11.755 17.737-5.949 24.797a9.248 9.248 0 005.976 3.287c5.22.706 10.901-2.46 15.277-5.303 2.191-1.429 4.152-2.738 5.889-3.834.065 3.336 1.172 6.387 4.639 8.008a7.657 7.657 0 003.287.767c4.929 0 9.399-5.214 14.115-11.705.072 3.544 1.03 7.356 4.678 9.366 5.954 3.287 11.503-1.889 15.069-6.069a7.471 7.471 0 002.651 2.328c3.287 1.78 6.853.975 10.572-2.394a54.897 54.897 0 004.382-4.59c-3.117 13.913-9.958 43.492-12.856 54.042a7.121 7.121 0 00-3.834 5.631 40.82 40.82 0 00-.23 4.338c.082 4.979 2.98 7.291 5.779 7.833l.191.055h.334c.32.039.642.059.965.06 5.055 0 6.912-5.193 7.739-7.499.707-1.993 1.605-4.902 2.668-8.643.471-1.644.657-2.219.718-2.388.246-.499.279-.641.892-3.364l.921-4.048c1.024-4.491 2.223-9.569 3.489-14.948 2.651-11.262 5.653-24.03 8.008-35.319 2.328-11.082 3.834-18.416-2.558-21.445zm-78.532 18.279a1337.76 1337.76 0 01-5.839 3.834c.4-.559.837-1.089 1.309-1.589 6.617-6.803 11.612-7.153 12.094-7.17h.072c-1.928 1.178-4.421 2.816-7.636 4.925zm21.587-4.344a6.164 6.164 0 00-.833-1.096 7.17 7.17 0 001.452.17c-.203.307-.4.625-.619.926zm29.798-5.001l-.126.405c-1.052 3.38-1.912 6.151-2.558 8.496a6.656 6.656 0 00-4.65-.762c.547-2.426 1.287-5.379 2.284-8.972a31.609 31.609 0 015.346-.12c-.099.325-.197.642-.296.953z" fill="#000"/><path d="M86.36 203.854h-5.05v4.65h5.05v-4.65z" fill="#000"/><path d="M120.567 199.751a6.735 6.735 0 00-4.716-1.462 14.144 14.144 0 001.249-4.344 10.4 10.4 0 00-1.989-7.844 10.84 10.84 0 00-8.216-3.982c-4.864-.121-9.717 2.832-14.433 8.731a44.616 44.616 0 00-1.753 2.333 8.12 8.12 0 00-.953-2.399 7.597 7.597 0 00-4.93-3.566c-3.49-.75-6.113 1.096-7.669 2.191l-.394.28c-1.731 1.199-5.303 4.437-8.666 8.764a6.788 6.788 0 00-8.38-6.431 12277.218 12277.218 0 0014.526-19.894 6.806 6.806 0 00.592-7.757 6.872 6.872 0 00-1.84-2.032 6.766 6.766 0 00-7.779-.159 6.617 6.617 0 00-1.928 1.95c-.246.34-20.957 28.747-32.29 44.04l-.548-8.441a6.811 6.811 0 00-5.898-6.28 6.804 6.804 0 00-7.33 4.527 6.73 6.73 0 00-.346 2.635l1.348 21.428c-.077 3.988 1.868 7.22 5.105 8.469.891.344 1.838.52 2.794.52 4.42 0 7.471-3.834 8.835-5.549 2.13-2.684 9.197-12.242 16.761-22.54-.416.92-.849 1.89-1.276 2.887-4.48 10.407-4.88 14.521-4.103 17.495a6.808 6.808 0 0013.3-2.848c.306-1.452.739-2.874 1.293-4.251a10.749 10.749 0 004.678 7.811 11.066 11.066 0 004.716 1.747c4.322.592 9.805-.925 17.084-4.754 2.547 2.448 7.335 4.716 15.765 1.791 1.939-.548 10.495-3.566 18.465-13.502a6.807 6.807 0 00-1.058-9.564h-.016zm-36.333 7.482a55.735 55.735 0 01-8.44 4.202 37.976 37.976 0 015.477-7.57 6.728 6.728 0 003.374-.548c.29-.126.575-.263.855-.416a30.566 30.566 0 00-1.266 4.332zm146.033-28.363c-4.788-2.256-8.529 1.129-9.937 2.4-.81.728-1.681 1.643-2.656 2.678a10.368 10.368 0 00-3.073-6.677c-2.695-2.695-6.634-4.015-12.434-4.081 1.78-5.56 3.209-9.651 3.412-10.221a6.788 6.788 0 00-.21-5.111 6.793 6.793 0 00-12.443.181c-.033.077-3.139 7.274-8.901 17.468a168.858 168.858 0 00-12.007 3.068h-.066a6.781 6.781 0 00-4.538 4.597 6.78 6.78 0 001.367 6.314 7.887 7.887 0 00-3.906.038 6.793 6.793 0 00-1.555-9.797 6.799 6.799 0 00-3.473-1.158c-1.096-.06-11.218-.252-22.425 11.284-4.815 4.93-11.755 17.736-5.949 24.792a9.227 9.227 0 005.976 3.286c5.22.707 10.9-2.454 15.277-5.302l5.888-3.834c.066 3.335 1.173 6.386 4.64 8.013a7.748 7.748 0 003.286.767c4.93 0 9.4-5.22 14.116-11.711.071 3.544 1.035 7.362 4.678 9.367 5.954 3.286 11.503-1.89 15.069-6.069a7.469 7.469 0 002.651 2.327c3.287 1.781 6.852.975 10.577-2.393a54.058 54.058 0 004.382-4.585c-3.095 13.908-9.942 43.498-12.823 54.025a7.123 7.123 0 00-3.834 5.637 40.978 40.978 0 00-.23 4.333c.088 4.984 2.98 7.29 5.784 7.833l.186.054.335.028c.319.039.641.059.964.06 5.061 0 6.912-5.193 7.739-7.504.713-1.994 1.611-4.897 2.673-8.638.472-1.644.652-2.191.713-2.389.246-.498.279-.646.898-3.363l.92-4.053a1321.91 1321.91 0 013.484-14.949c2.651-11.262 5.653-24.024 8.008-35.319 2.312-11.081 3.834-18.427-2.569-21.445l.006.049zm-78.538 18.279l-5.845 3.834c.401-.551.838-1.074 1.31-1.566 6.611-6.803 11.618-7.159 12.105-7.176h.066c-1.939 1.151-4.47 2.794-7.636 4.908zm51.374-9.356l-.126.406c-1.046 3.379-1.911 6.157-2.552 8.496a6.568 6.568 0 00-3.336-.888 7.084 7.084 0 00-1.315.126 191.238 191.238 0 012.279-8.972 32.248 32.248 0 015.346-.115l-.296.947z" fill="#000"/><path d="M228.919 199.521c2.388-11.448 2.838-15.529-.361-17.041-3.391-1.594-6.234 1.857-15.661 13.294a106.386 106.386 0 01-3.232 3.763h-.038c.701-2.569 1.671-5.691 2.536-8.468.356-1.161.729-2.361 1.096-3.588 1.145-3.741-.154-6.069-1.441-7.362-1.703-1.698-5.11-3.631-15.129-2.634 2.607-8.524 5.039-15.447 5.165-15.814a2.79 2.79 0 00-.048-2.143 2.793 2.793 0 00-1.548-1.481 2.808 2.808 0 00-2.143.048 2.803 2.803 0 00-1.481 1.549 206.318 206.318 0 01-9.985 19.429c-7.209 1.468-13.201 3.287-13.481 3.369a2.788 2.788 0 00-1.966 2.41c-.038.369-.001.741.109 1.095.11.353.286.68.521.965.235.28.521.514.843.69a2.852 2.852 0 002.148.202c.049 0 3.346-1.013 7.909-2.114a238.464 238.464 0 01-9.032 13.584 79.052 79.052 0 01-5.111 6.442c.257-1.369.657-3.111 1.2-5.215l.104-.405c.504-1.955 1.194-4.639-.91-6.146-2.103-1.506-4.546-.055-6.354.992-1.95 1.128-4.782 2.985-8.703 5.565a1293.749 1293.749 0 01-6.398 4.185c-5.905 3.834-8.135 3.911-8.649 3.834-.586-1.703 1.851-8.216 5.477-11.914 8.217-8.457 14.79-8.391 15.042-8.386a2.796 2.796 0 002.941-2.651 2.799 2.799 0 00-2.651-2.941c-.373 0-9.219-.351-19.347 10.073-3.999 4.119-9.64 14.724-5.729 19.478a5.223 5.223 0 003.423 1.879c4.431.602 10.292-3.215 12.566-4.694 2.426-1.578 4.552-2.975 6.419-4.202 2.695-1.774 5.095-3.352 6.919-4.48 0 0 .038 0 .032.027-1.588 6.409-2.24 11.015 1.025 12.544 3.106 1.451 6.447-1.26 13.255-10.747 3.61-5.034 6.82-9.942 9.619-14.505a123.594 123.594 0 00-2.739 12.67c-.695 4.776-.914 9.432 2.164 11.125 3.736 2.054 7.964-2.378 11.985-7.472a2.795 2.795 0 00-.701-4.097 2.875 2.875 0 00-3.769.718 35.886 35.886 0 01-4.448 4.902h-.038c-.033-2.377.548-8.123 4.382-21.494l.296-1.03c10.15-1.347 12.5.351 12.9.751.126.126.454.454.049 1.769l-1.096 3.566c-3.796 12.248-5.22 16.827-1.824 18.662 2.476 1.336 4.93-.893 6.026-1.846a67.992 67.992 0 006.25-6.847c2.508-3.04 5.401-6.573 7.564-8.928-.394 2.738-1.052 6.129-1.419 8.013-1.013 5.226-11.984 53.33-14.997 63.348a3.18 3.18 0 00-3.089 2.81 38.397 38.397 0 00-.214 3.895c.049 2.996 1.49 3.834 2.689 4.004h.033c2.684.367 3.665-2.388 4.53-4.815.685-1.922 1.561-4.749 2.591-8.386 1.802-6.348 0 1.298 2.481-9.602 3.15-14.001 7.992-33.627 11.443-50.202zM70.414 165.878a2.786 2.786 0 00-.991-.461 2.742 2.742 0 00-2.12.329 2.88 2.88 0 00-.805.74c-.34.465-33.282 45.655-38.83 52.749l-1.206-19.243a2.806 2.806 0 00-4.85-1.602 2.803 2.803 0 00-.742 1.953l1.358 21.609c-.066 1.862.548 4.048 2.558 4.82.27.104.551.175.838.214 2.739.372 5.045-2.531 6.217-4.005 4.93-6.217 37.795-51.281 39.181-53.198a2.799 2.799 0 00-.608-3.905zm-16.772 58.429a2.771 2.771 0 002.01-3.374c-.378-2.251 3.917-12.675 8.162-21.001a2.81 2.81 0 00.334-1.063 2.805 2.805 0 00-3.697-2.919 2.744 2.744 0 00-.965.547 2.88 2.88 0 00-.662.893c-.099.192-2.449 4.799-4.695 10.024-4.283 9.942-4.382 13.113-3.91 14.905a2.84 2.84 0 002.344 2.081 3.02 3.02 0 001.079-.093zm11.36-11.503c-.427 1.956-.323 5.817 2.783 7.86a7.28 7.28 0 003.068 1.129c3.182.433 8.386-.647 17.698-5.993.202.457.45.892.739 1.298 1.643 2.312 5.17 4.503 12.648 1.879 1.216-.345 9.098-2.875 16.569-12.193.229-.288.4-.617.504-.969a2.808 2.808 0 00-4.891-2.536c-6.699 8.353-13.694 10.297-13.732 10.314l-.241.071c-3.227 1.145-5.588 1.216-6.316.186a2.738 2.738 0 01-.405-1.019 196.747 196.747 0 009.312-6.343c6.397-4.595 9.892-8.988 10.407-13.058a6.576 6.576 0 00-1.156-4.87 6.903 6.903 0 00-5.198-2.476c-3.55-.076-7.33 2.361-11.23 7.236-3.9 4.875-7.07 11.131-7.717 16.384-13.316 8.063-16.608 6.54-16.98 6.288-.548-.334-.472-1.545-.4-1.966 1.457-5.615 6.485-11.662 9.733-14.757a2.791 2.791 0 002.86.356c.69-.307 2.99-1.473 3.659-3.571a3.836 3.836 0 00-.384-3.221 3.632 3.632 0 00-2.355-1.72c-1.775-.378-3.243.652-4.536 1.561l-.41.285c-2.794 1.939-11.673 10.572-14.018 19.768a.403.403 0 010 .115l-.01-.038zM99.96 196.82c3.654-4.568 5.861-5.116 6.645-5.137h.285c.254.028.494.131.69.295.35.921-.406 4.437-8.069 9.942-1.643 1.161-3.138 2.229-4.584 3.21a35.609 35.609 0 015.033-8.288v-.022z" fill="url(#paint1_linear_2_28)"/><path d="M167.954 174.768l-7.373 5.242 5.713 5.795 7.296-6.107-5.636-4.93z" fill="#000"/><path d="M247.324 186.786a2.826 2.826 0 01-3.325 2.87 2.835 2.835 0 01-1.074-5.138 2.942 2.942 0 012.651-.285c.34.135.649.336.91.592.262.253.47.557.613.892.148.337.224.701.225 1.069zm-4.93 0c-.006.286.044.571.148.838a2.117 2.117 0 001.167 1.188 2.111 2.111 0 001.654-.005 1.98 1.98 0 00.69-.482 2.02 2.02 0 00.449-.712 2.14 2.14 0 00-1.15-2.794 2.135 2.135 0 00-2.794 1.15 2.084 2.084 0 00-.164.817zm1.693 1.44h-.636v-2.739a5.76 5.76 0 011.057-.082 1.7 1.7 0 01.953.203.774.774 0 01.269.602.702.702 0 01-.548.636v.033a.785.785 0 01.345.268.845.845 0 01.159.405c.027.238.094.47.197.685h-.684a2.61 2.61 0 01-.22-.674.463.463 0 00-.16-.323.478.478 0 00-.344-.115h-.345l-.043 1.101zm0-1.561h.301c.356 0 .641-.115.641-.4 0-.285-.187-.416-.592-.416-.117 0-.235.011-.35.033v.783z" fill="#fff"/><path d="M23.154 240.088l5.877 23.663 201.027-2.58 4.799-18.481-211.703-2.602z" fill="url(#paint2_linear_2_28)"/><path d="M23.154 240.088l211.714 2.602-4.81 18.492-201.027 2.586-5.888-23.664.01-.016zm-2.191-1.731l.547 2.191 5.878 23.663.328 1.32h1.359l201.027-2.58h1.315l.329-1.27 4.765-18.548.548-2.125-2.191-.027-211.709-2.586-2.23-.027.034-.011z" fill="url(#paint3_linear_2_28)"/><path d="M31.71 249.854h3.171v5.675h1.61v-5.675h3.189v-1.237h-7.97v1.237zm17.106 1.447h-4.995v-2.684h-1.644v6.912h1.644v-2.98h5.023v2.975h1.643v-6.907h-1.643l-.028 2.684zm6.508 1.216h3.16v-1.178h-3.16v-1.528H60.8v-1.178H53.72v6.913h7.12v-1.299h-5.515v-1.73zm21.072-3.013a4.32 4.32 0 00-2.925-.887h-4.454v6.912h4.038a9.467 9.467 0 001.714-.126 2.958 2.958 0 002.191-1.643 3.719 3.719 0 00.4-1.747 3.1 3.1 0 00-.214-1.375 3.05 3.05 0 00-.745-1.134h-.005zm-1.331 4.207a4.021 4.021 0 01-2.356.52h-2.048v-4.382h2.854a2.406 2.406 0 011.703.548c.203.213.357.467.455.745.103.276.144.571.12.865.032.319-.015.641-.137.937-.129.3-.33.563-.586.767h-.005zm6.978-1.194h3.194v-1.178h-3.194v-1.528h5.478v-1.178H80.4v6.913h7.12v-1.299h-5.532l.055-1.73zm8.529 3.012h1.61v-2.624h2.909v-1.259h-2.909v-1.835h5.385V248.6h-7.023l.028 6.929zm9.509 0h1.61v-6.912h-1.61v6.912zm11.563-3.286v.372c0 .275.017.549.049.822a5.199 5.199 0 00-.345-.367 9.043 9.043 0 00-.438-.384l-4.869-4.075h-1.096v6.913h1.446v-4.229c0-.192 0-.389-.049-.602.082.087.164.18.257.268l.323.29 5.078 4.273h1.096v-6.907h-1.474l.022 3.626zm4.716 3.286h1.611v-6.912h-1.644l.033 6.912zm4.108-5.675h3.172v5.675h1.61v-5.675h3.188v-1.237h-7.997l.027 1.237zm10.474 5.675h1.615v-6.912h-1.604l-.011 6.912zm8.698-1.917l-2.821-4.995h-1.862l3.998 6.912h1.096l3.801-6.912h-1.555l-2.657 4.995zm8.342-1.095h3.199v-1.178h-3.193v-1.528h5.477v-1.178h-7.12v6.913h7.12v-1.299h-5.51l.027-1.73zm17.698 0h3.194v-1.178h-3.194v-1.528h5.478v-1.178h-7.121v6.913h7.121v-1.299h-5.505l.027-1.73zm15.885-3.013a4.318 4.318 0 00-2.925-.887h-4.453v6.912h4.037a9.524 9.524 0 001.72-.126 3.038 3.038 0 001.123-.411 2.962 2.962 0 001.095-1.216 3.706 3.706 0 00.4-1.747 3.143 3.143 0 00-1.002-2.525h.005zm-1.353 4.207a4.02 4.02 0 01-2.355.52h-2.081v-4.382h2.853a2.406 2.406 0 011.704.548c.202.215.358.468.46.745.098.277.137.572.115.865a2.007 2.007 0 01-.674 1.704h-.022zm5.336 1.818h1.61v-6.912h-1.61v6.912zm4.102-5.675h3.177v5.675h1.627v-5.675h3.161v-1.237h-7.948l-.017 1.237zm10.473 5.675h1.611v-6.912h-1.611v6.912zm11.607-6.912h-5.088a1.98 1.98 0 00-1.364.345 1.803 1.803 0 00-.351 1.287v3.648c-.054.46.071.923.351 1.293.399.274.883.394 1.364.339h5.088c.481.055.966-.065 1.364-.339.28-.37.406-.833.351-1.293v-3.648a1.773 1.773 0 00-.351-1.287 1.963 1.963 0 00-1.342-.345h-.022zm.115 5.614h-5.285v-4.382h5.302l-.017 4.382zm11.503-5.614v4.004c0 .164 0 .432.055.821a3.677 3.677 0 00-.35-.367 7 7 0 00-.439-.383l-4.869-4.075h-1.096v6.912h1.446v-4.228c0-.192-.027-.389-.049-.603.077.088.164.181.252.268l.323.291 5.078 4.272h1.095v-6.912h-1.446z" fill="#000"/><path d="M224.789 248.617v6.912h-1.095l-5.078-4.272-.323-.291a4.786 4.786 0 01-.252-.268c0 .214.038.411.049.603.011.191 0 .356 0 .493v3.735h-1.446v-6.912h1.095l4.87 4.075c.17.137.312.263.438.383.125.114.242.237.351.367 0-.389-.044-.663-.055-.821-.011-.159 0-.285 0-.373v-3.631h1.446zm-13.042 0c.482-.057.967.066 1.364.345.28.367.405.829.35 1.287v3.648c.055.46-.071.923-.35 1.293a2.006 2.006 0 01-1.364.339h-5.089a2.007 2.007 0 01-1.364-.339 1.794 1.794 0 01-.35-1.293v-3.648c-.05-.458.076-.918.35-1.287a1.982 1.982 0 011.364-.345h5.089zm-5.193 5.614h5.308v-4.382h-5.308v4.382zm-4.787-5.614v6.912h-1.611v-6.912h1.611zm-4.114 0v1.237h-3.199v5.675h-1.61v-5.675h-3.177v-1.237h7.986zm-10.479 0v6.912h-1.604v-6.912h1.604zm-8.517 0a4.32 4.32 0 012.925.887 3.144 3.144 0 011.024 2.525 3.717 3.717 0 01-.4 1.747 2.96 2.96 0 01-1.123 1.216 3.037 3.037 0 01-1.095.411 9.524 9.524 0 01-1.72.126h-4.081v-6.912h4.47zm-2.827 5.614h2.087c.82.072 1.643-.11 2.356-.52a2.02 2.02 0 00.695-1.704 2.086 2.086 0 00-.575-1.61 2.405 2.405 0 00-1.703-.548h-2.86v4.382zm-4.666-5.614v1.194h-5.478v1.544h3.193v1.194h-3.193v1.715h5.538v1.298h-7.181v-6.945h7.121zm-17.72 0v1.194h-5.478v1.544h3.193v1.194h-3.188v1.715h5.538v1.298h-7.121v-6.945h7.056zm-9.515 0l-3.834 6.912h-1.096l-3.998-6.912h1.807l2.799 4.995 2.673-4.995H143.929zm-11.371 0v6.912h-1.644v-6.912h1.644zm-4.109 0v1.237h-3.21v5.675h-1.61v-5.675h-3.171v-1.237h7.991zm-10.489 0v6.912h-1.611v-6.912h1.611zm-4.881 0v6.912h-1.095l-5.078-4.272-.323-.291c-.093-.087-.175-.18-.258-.268 0 .214.039.411.05.603.011.191 0 .356 0 .493v3.735h-1.446v-6.912h1.095l4.87 4.075c.164.137.312.263.438.383.125.113.24.236.345.367a39.646 39.646 0 01-.049-.821v-4.004h1.451zm-11.404 0v6.912h-1.611v-6.912h1.611zm-4.125 0v1.194h-5.384v1.818h2.908v1.26h-2.908v2.624h-1.61v-6.896h6.994zm-10.057 0v1.194h-5.477v1.544h3.193v1.194H82v1.715h5.522v1.298H80.4v-6.945h7.093zm-14 0a4.32 4.32 0 012.925.887 3.145 3.145 0 011.024 2.525 3.719 3.719 0 01-.4 1.747c-.246.499-.625.92-1.095 1.216-.344.21-.725.35-1.123.411a9.467 9.467 0 01-1.715.126h-4.091v-6.912h4.475zm-2.832 5.614h2.098c.82.072 1.642-.11 2.355-.52.24-.209.428-.472.548-.767.121-.296.169-.618.137-.937a2.012 2.012 0 00-.12-.865 2.08 2.08 0 00-.455-.745 2.406 2.406 0 00-1.704-.548h-2.86v4.382zm-9.86-5.614v1.194h-5.477v1.544h3.193v1.194h-3.193v1.715h5.537v1.298h-7.12v-6.945h7.06zm-10.336 0v6.912h-1.643v-2.98H43.82v2.975h-1.644v-6.907h1.644v2.684h5.023v-2.684h1.643-.022zm-10.736 0v1.237h-3.237v5.675h-1.61v-5.675H31.71v-1.237h8.019zm185.772-.685h-2.815v3.894l-4.465-3.735-.191-.159h-2.032v8.282h2.815v-3.917l4.459 3.758.191.159h2.038v-8.282zm-13.727 0h-5.088a2.54 2.54 0 00-1.841.548 2.404 2.404 0 00-.454.832c-.094.305-.126.625-.094.942v3.648c-.032.319 0 .641.094.948.091.306.246.59.454.833.52.414 1.179.61 1.841.547h5.088a2.564 2.564 0 001.841-.547c.208-.243.363-.527.454-.833.094-.307.126-.629.094-.948v-3.653c.032-.317 0-.638-.094-.942a2.275 2.275 0 00-.454-.833 2.544 2.544 0 00-1.841-.548v.006zm-4.508 2.607h3.939v3.007h-3.939v-3.007zm-4.804-2.607h-2.979v8.282h2.979v-8.282zm-4.113 0h-9.312v2.607h3.133v5.675h2.98v-5.675h3.139l.06-2.607zm-10.462 0h-2.98v8.282h2.974l.006-8.282zm-9.225 0h-5.116v8.282h4.722a9.93 9.93 0 001.846-.137c.479-.082.94-.251 1.358-.498a3.745 3.745 0 001.37-1.49 4.387 4.387 0 00.476-2.06 3.832 3.832 0 00-1.26-3.04 4.996 4.996 0 00-3.396-1.057zm-2.158 2.607h2.191c.441-.04.881.088 1.233.356a1.43 1.43 0 01.361 1.096c0 .843-.318 1.095-.422 1.155-.23.176-.756.384-1.944.384h-1.397v-3.007l-.022.016zm-4.667-2.607h-8.479v8.282h8.518v-2.668h-5.538v-.345h3.193v-2.547h-3.193v-.175h5.477v-2.547h.022zm-17.698 0h-8.479v8.282h8.518v-2.668h-5.538v-.345h3.193v-2.547h-3.193v-.175h5.477v-2.547h.022zm-9.065 0h-3.205l-.197.361-2.076 3.895-2.191-3.906-.197-.35h-3.423l.591 1.024 3.999 6.918.197.34h1.912l.197-.351 3.834-6.918.548-1.013h.011zm-11.843 0h-2.958v8.282h2.975l-.017-8.282zm-4.108 0h-9.367v2.607h3.172v5.675h2.98v-5.675h3.188l.027-2.607zm-10.468 0h-2.979v8.282h2.979v-8.282zm-4.88 0h-2.816v3.894l-4.464-3.735-.192-.159h-2.032v8.282h2.816v-3.917l4.464 3.758.192.159h2.032v-8.282zm-11.399 0h-2.98v8.282h2.942v-8.282h.038zm-4.125 0H89.86v8.282h2.98v-2.602h2.897v-2.629H92.83v-.449h5.384v-2.58l.038-.022zm-10.056 0H79.72v8.282h8.512v-2.668H82.71v-.345h3.177v-2.547h-3.177v-.175h5.478v-2.547h.006zm-14.691 0h-5.127v8.282h4.721a9.866 9.866 0 001.84-.137 4 4 0 001.36-.498 3.761 3.761 0 001.374-1.49 4.49 4.49 0 00.471-2.06 3.833 3.833 0 00-.285-1.643 3.9 3.9 0 00-.975-1.381 5.005 5.005 0 00-3.374-1.057l-.005-.016zm-2.159 2.607h2.192c.44-.04.88.088 1.232.356a1.433 1.433 0 01.361 1.096c0 .843-.317 1.095-.416 1.155-.235.176-.761.384-1.95.384h-1.397v-3.007l-.022.016zm-9.86-2.607h-8.473v8.282h8.523v-2.668h-5.521v-.345h3.193v-2.547h-3.193v-.175h5.477v-2.547h-.005zm-10.363 0h-2.99v2.684h-3.654v-2.684h-2.969v8.282h2.98v-2.974h3.654v2.974h3.007v-8.282h-.028zm-10.758 0h-9.312v2.607h3.172v5.675h2.98v-5.675h3.188v-2.607h-.028z" fill="url(#paint4_linear_2_28)"/><defs><linearGradient id="paint0_linear_2_28" x1="30.751" y1="241.178" x2="243.796" y2="28.133" gradientUnits="userSpaceOnUse"><stop stop-color="#A68B56"/><stop offset=".12" stop-color="#987B52"/><stop offset=".25" stop-color="#E3D7B1"/><stop offset=".3" stop-color="#DFD1A0"/><stop offset=".34" stop-color="#DDCF9A"/><stop offset=".58" stop-color="#AC9467"/><stop offset=".69" stop-color="#987C52"/><stop offset="1" stop-color="#BAA46C"/></linearGradient><linearGradient id="paint1_linear_2_28" x1="125.853" y1="157.858" x2="125.853" y2="272.543" gradientUnits="userSpaceOnUse"><stop offset=".13" stop-color="#E488B1"/><stop offset=".21" stop-color="#E27CB0"/><stop offset=".49" stop-color="#DB56AF"/><stop offset=".64" stop-color="#D947AE"/></linearGradient><linearGradient id="paint2_linear_2_28" x1="107.492" y1="295.729" x2="145.923" y2="205.075" gradientUnits="userSpaceOnUse"><stop stop-color="#A48955"/><stop offset=".12" stop-color="#977B52"/><stop offset=".25" stop-color="#E2D6B0"/><stop offset=".3" stop-color="#DED09F"/><stop offset=".34" stop-color="#DCCE99"/><stop offset=".58" stop-color="#AB9467"/><stop offset=".69" stop-color="#977C52"/><stop offset="1" stop-color="#B8A36C"/></linearGradient><linearGradient id="paint3_linear_2_28" x1="2278290" y1="-783344" x2="2214340" y2="689567" gradientUnits="userSpaceOnUse"><stop stop-color="#A68B56"/><stop offset=".12" stop-color="#987B52"/><stop offset=".25" stop-color="#E3D7B1"/><stop offset=".3" stop-color="#DFD1A0"/><stop offset=".34" stop-color="#DDCF9A"/><stop offset=".58" stop-color="#AC9467"/><stop offset=".69" stop-color="#987C52"/><stop offset="1" stop-color="#BAA46C"/></linearGradient><linearGradient id="paint4_linear_2_28" x1="281857" y1="-75861.5" x2="281158" y2="62778.5" gradientUnits="userSpaceOnUse"><stop stop-color="#A68B56"/><stop offset=".12" stop-color="#987B52"/><stop offset=".25" stop-color="#E3D7B1"/><stop offset=".3" stop-color="#DFD1A0"/><stop offset=".34" stop-color="#DDCF9A"/><stop offset=".58" stop-color="#AC9467"/><stop offset=".69" stop-color="#987C52"/><stop offset="1" stop-color="#BAA46C"/></linearGradient></defs></svg>