<svg width="269" height="282" fill="none" xmlns="http://www.w3.org/2000/svg"><path d="M268.819 195.206a2.836 2.836 0 01-.439 1.598 2.792 2.792 0 01-2.48 1.338 2.823 2.823 0 01-2.17-1.115 2.83 2.83 0 01-.498-2.389 2.834 2.834 0 012.765-2.16 2.745 2.745 0 012.822 2.745v-.017zm-4.941 0a2.127 2.127 0 002.147 2.196 2.086 2.086 0 001.515-.653c.197-.203.35-.444.45-.708a2.2 2.2 0 00.137-.835 2.126 2.126 0 00-4.249 0zm1.697 1.444h-.643v-2.745c.35-.065.705-.094 1.06-.088.333-.026.666.045.96.203a.8.8 0 01.204.275.826.826 0 01.065.329.704.704 0 01-.576.637v.033a.796.796 0 01.346.269.816.816 0 01.159.406c.026.239.095.472.203.686h-.686a2.05 2.05 0 01-.22-.669.466.466 0 00-.178-.34.461.461 0 00-.371-.099h-.302l-.021 1.103zm0-1.559h.301c.352 0 .637-.121.637-.406 0-.286-.186-.418-.587-.418a1.588 1.588 0 00-.351.033v.791z" fill="#fff"/><path fill-rule="evenodd" clip-rule="evenodd" d="M256.922 193.241l-.549-.461-.697-.187c-3.063-.807-5.534-.45-7.34 1.065a6.19 6.19 0 00-1.614 2.103l-2.904-3.327-2.267 1.136-3.706 1.867a5.744 5.744 0 00-1.767-2.103 6.692 6.692 0 00-5.353-.933c-1.565-1.647-4.732-4.985-5.155-5.386l-2.481-2.36c-.851 1.295-2.597 3.843-5.007 3.672a13.01 13.01 0 00-3.739.258l-6.801-9.947-9.185 5.764-2.146-3.085a15.971 15.971 0 005.006-1.098c4.392-1.757 6.879-5.369 6.879-9.882v-34.091a10.333 10.333 0 00-3.019-7.505 12.957 12.957 0 00-7.077-3.376v-14.987h12.627v8.959a10.233 10.233 0 002.975 7.395c3.437 3.431 8.416 3.607 9.399 3.607h17.644c.983 0 5.967-.154 9.415-3.591a10.244 10.244 0 002.981-7.405V76.956h-17.567v-5.007h-24.869v2.07h-25.116a15.692 15.692 0 00-5.556 1.098 11.988 11.988 0 00-3.294 1.976c-3.392-2.926-7.872-3.09-8.783-3.09h-17.71c-1.9.022-3.78.394-5.545 1.097a11.634 11.634 0 00-3.162 1.889 12.314 12.314 0 00-7.982-2.877h-5.935V70.21h10.058v.033h77.861V2.525h-24.945V13.95h-5.292a16.12 16.12 0 00-5.54 1.136 11.877 11.877 0 00-3.381 2.064c-.494-.42-1.021-.8-1.576-1.136a14.426 14.426 0 00-7.098-2.01l-35.212-.027h-17.66a15.8 15.8 0 00-5.529 1.125 12.09 12.09 0 00-3.255 1.96 13.682 13.682 0 00-8.784-3.112H44.006c-5.984 0-12.39 4.446-12.39 11.073v59.52h30.26c.656 0 1.312-.038 1.965-.115v14.57h3.519v20.367a10.364 10.364 0 001.647 5.742h-.385c-.966 0-5.929.17-9.382 3.618a10.319 10.319 0 00-3.008 7.488v34.119c0 4.534 2.503 8.147 6.862 9.882.778.315 1.583.561 2.405.735-.643 2.405-1.378 3.843-4.903 2.037-4.068-2.07-7.894-4.101-7.894-4.101-.725 5.567-.68 7.845-6.637 7.17l-2.23 9.881c-.51-.296-1.322-.609-1.86-.873 1.29-3.469 5.341-14.125 5.341-14.125l-11.391-7.378-.845 1.466-12.38-8.905-1.943 1.488c-.55.401-12.78 9.958-12.533 23.727-3.607 3.59-4.475 10.205-4.65 12.16-.11.939-.906 9.135 3.969 15.163-5.94 4.556-6.132 10.595-5.622 15.415v.121c.96 6.22 3.547 10.238 7.686 11.924 5.644 2.311 12.078-.687 15.635-2.839l7.998 6.193 2.043-1.554a62.785 62.785 0 0013.724-15.684 13.756 13.756 0 006.374 3.546l1.735.346 5.067-5.1a9.147 9.147 0 004.94 1.57h1.274l.928-.873c.192-.186.516-.494 4.94-6.187l4.87 3.064 5.325-5.1a9.088 9.088 0 006.758 2.267l1.236-.088.872-.873c.39-.395 1.098-1.098 1.779-1.762a7.297 7.297 0 004.046 1.268h.115c1.784 0 4.392-.807 6.725-4.348.159-.242.304-.493.434-.752a41.501 41.501 0 015.029 3.761l2.311 1.959 2.146-2.141c.423-.422 1.362-1.334 2.789-2.712a8.41 8.41 0 004.612 1.916c2.558.22 5.089-.785 7.515-2.997 1.038.889 2.295 1.987 3.464 3.019l2.092 1.845 5.687-4.633a9.725 9.725 0 005.979 3.557l1.647.258 1.185-1.153a433.29 433.29 0 014.151-3.843c1.57.879 4.452 2.822 8.07 6.764l1.8 1.965 2.301-1.356c.245-.15.48-.317.702-.5 3.843-2.898 6.22-4.205 7.615-4.792 2.195 1.921 6.121 5.308 7.746 6.719l1.949 1.647 6.834-4.803 12.627 11.007 4.875-4.502c1.273 2.745 3.464 6 7.016 7.225l1.367.472 1.273-.686c.242-.132.681-.374 2.778-2.235a12.534 12.534 0 004.612 3.585c.396.245.843.395 1.306.439.465.047.934-.013 1.373-.175 3.585 2.838 6.587 3.919 8.959 3.222a2.75 2.75 0 00.917-.461c1.982 1.888 5.028 8.301 5.028 8.301 4.217-3.536 7.313-5.957 14.142-5.49l.363-2.877c1.24-9.947 1.021-17.32-.648-21.915a12.563 12.563 0 00-1.367-2.745 37.842 37.842 0 003.255-6.456c3.525-9.223.319-14.416-3.003-17.161zm-64.285 13.938l-.439-.549-.407.385a25.777 25.777 0 01-.252-3.744l1.142-.912a54.306 54.306 0 01-.044 4.826v-.006z" fill="#000"/><path d="M215.442 2.525V70.27H137.58v-.032h-10.057v3.875h5.934a12.328 12.328 0 017.982 2.899c.95-.79 2.017-1.427 3.162-1.889a15.857 15.857 0 015.545-1.098h17.699c.933 0 5.413.165 8.784 3.097.986-.832 2.097-1.5 3.294-1.982a15.919 15.919 0 015.555-1.098h25.116v-2.07h24.858v5.007h17.567v42.387a10.226 10.226 0 01-2.981 7.405c-3.447 3.437-8.432 3.585-9.415 3.591h-17.649c-.983 0-5.962-.176-9.399-3.607a10.207 10.207 0 01-2.975-7.389v-8.982h-12.627v14.977a12.901 12.901 0 017.077 3.37 10.438 10.438 0 012.272 3.442c.521 1.29.775 2.672.747 4.063v34.091c0 4.54-2.503 8.158-6.879 9.882a15.971 15.971 0 01-5.006 1.098l2.146 3.085 9.184-5.764 6.802 9.915a11.848 11.848 0 012.707-.28h1.224c2.311 0 3.986-2.421 4.815-3.679l2.481 2.361c.423.401 3.59 3.739 5.155 5.386a9.041 9.041 0 011.713-.182 6.144 6.144 0 013.639 1.098 5.737 5.737 0 011.768 2.103l3.728-1.845 2.283-1.131 2.872 3.322a6.2 6.2 0 011.614-2.097 6.652 6.652 0 014.391-1.483c1.004.015 2.002.155 2.97.418l.698.186.549.461c3.294 2.745 6.511 7.933 2.992 17.222a37.846 37.846 0 01-3.256 6.456 12.563 12.563 0 011.367 2.745c1.647 4.595 1.889 11.968.648 21.915l-.362 2.877a24.77 24.77 0 00-1.647-.061c-5.699 0-8.625 2.306-12.479 5.54 0 0-3.046-6.412-5.028-8.301a2.828 2.828 0 01-.917.461c-.474.142-.966.21-1.46.203-2.098 0-4.617-1.147-7.499-3.425a3.053 3.053 0 01-1.065.192 3.175 3.175 0 01-1.614-.456 12.488 12.488 0 01-4.645-3.607c-2.097 1.861-2.536 2.103-2.778 2.235l-1.273.686-1.367-.472c-3.552-1.224-5.743-4.469-7.016-7.225l-4.875 4.502-12.627-10.98-6.835 4.804-1.948-1.647a1822.91 1822.91 0 01-7.746-6.72c-1.395.588-3.788 1.894-7.615 4.793-.225.179-.46.346-.703.5l-2.3 1.356-1.8-1.966c-3.618-3.947-6.5-5.89-8.07-6.769-1.098 1.021-3.569 3.294-4.151 3.843l-1.185 1.153-1.647-.258a9.725 9.725 0 01-5.979-3.557l-5.687 4.633-2.092-1.845a323.515 323.515 0 00-3.464-3.019c-2.196 2.015-4.502 3.025-6.824 3.025-.23 0-.461 0-.691-.028a8.41 8.41 0 01-4.612-1.916 322.155 322.155 0 00-2.789 2.712l-2.146 2.141-2.295-1.959a41.501 41.501 0 00-5.029-3.761c-.131.258-.28.511-.433.752-2.322 3.547-4.941 4.326-6.725 4.354h-.116a7.394 7.394 0 01-4.046-1.269 162.4 162.4 0 00-1.778 1.757l-.873.873-1.235.088h-.686a9.055 9.055 0 01-6.116-2.322l-5.325 5.1-4.88-3.091c-4.392 5.687-4.733 5.995-4.941 6.182l-.868.911H67.01a9.185 9.185 0 01-4.837-1.565l-5.078 5.089-1.735-.346a13.848 13.848 0 01-6.362-3.497 62.757 62.757 0 01-13.725 15.734l-2.02 1.576-7.999-6.226c-2.635 1.609-6.884 3.667-11.215 3.667a11.469 11.469 0 01-4.392-.828c-4.14-1.691-6.725-5.704-7.686-11.924v-.143c-.51-4.793-.318-10.831 5.622-15.415-4.837-6.039-4.068-14.224-3.959-15.163.176-1.955 1.044-8.57 4.65-12.16-.247-13.763 12.006-23.348 12.534-23.727l1.894-1.488 12.379 8.905.845-1.466 11.375 7.384s-4.068 10.65-5.385 14.13c.549.264 1.35.577 1.86.873l2.23-9.881c.602.076 1.21.115 1.817.115 4.14 0 4.178-2.35 4.82-7.285 0 0 3.843 2.031 7.894 4.101.792.465 1.68.739 2.597.801 1.405 0 1.894-1.185 2.333-2.838a14.314 14.314 0 01-2.404-.735c-4.36-1.757-6.863-5.369-6.863-9.882v-34.136a10.338 10.338 0 013.009-7.493c3.294-3.294 8.015-3.613 9.245-3.613H69a10.364 10.364 0 01-1.647-5.742V98.992h-3.518v-14.57c-.653.077-1.309.116-1.966.115H31.59V25.033c0-6.626 6.406-11.072 12.39-11.072h53.19a13.677 13.677 0 018.784 3.112 12.086 12.086 0 013.245-1.96 15.791 15.791 0 015.539-1.125h17.666l35.206.027c2.5.044 4.946.736 7.098 2.01.555.336 1.082.716 1.576 1.136a11.882 11.882 0 013.382-2.064 16.115 16.115 0 015.539-1.136h5.292V2.525h24.946zm-23.606 204.473l.406-.384.439.549c.097-1.61.112-3.225.044-4.837l-1.131.912a25.769 25.769 0 00.253 3.744l-.011.016zM217.089.878h-28.24v11.425h-3.645c-2.106.054-4.185.48-6.143 1.257-.969.396-1.89.9-2.745 1.504-.236-.16-.472-.313-.714-.461a16.21 16.21 0 00-7.949-2.245h-52.916c-2.11.04-4.196.464-6.154 1.251-.924.373-1.806.844-2.63 1.406a15.732 15.732 0 00-8.783-2.685H44.006a15.151 15.151 0 00-9.486 3.431 11.957 11.957 0 00-4.568 9.273V86.19h32.226v14.46h3.519v18.715c-.012 1.447.23 2.885.713 4.249-2.196.318-5.665 1.235-8.372 3.936a11.93 11.93 0 00-3.491 8.663v34.119c0 5.243 2.877 9.415 7.894 11.435.28.11.55.214.862.313a.236.236 0 01-.071.077h-.1a4.267 4.267 0 01-1.822-.626c-4.007-2.037-7.828-4.068-7.867-4.084l-2.097-1.098-.29 2.36c-.04.297-.072.582-.11.862-.593 4.661-.791 4.99-3.075 4.99h-.132c.637-1.751 1.12-2.97 1.12-3.002l.472-1.241-1.097-.73-11.414-7.428-1.455-.944-.78 1.4-10.924-7.823-.993-.714-.972.741-1.933 1.488c-.549.412-13.043 10.167-13.175 24.38-3.585 4.046-4.458 10.623-4.644 12.627-.121 1.015-.846 8.745 3.37 15.064a15.484 15.484 0 00-4.584 7.466 22.854 22.854 0 00-.439 8.394v.219c1.098 6.879 4.008 11.271 8.718 13.214 1.602.643 3.314.965 5.04.95 4.16 0 8.18-1.696 11.089-3.327l7.137 5.49 1.015.785 1.01-.785 2.02-1.581a65.256 65.256 0 0013.088-14.46 14.88 14.88 0 005.666 2.673l1.73.346.866.17.626-.626 4.184-4.21a10.132 10.132 0 004.55 1.164h2.054l.46-.44.929-.872c.263-.253.549-.549 4.177-5.194l3.607 2.267 1.098.687.906-.906 4.31-4.123a10.64 10.64 0 005.978 1.79c.265.016.53.016.796 0l1.235-.077.62-.044.434-.439.9-.95c.22-.225.55-.549.89-.878a8.614 8.614 0 003.777.878h.12c2.087-.033 5.04-.845 7.653-4.447 1.032.725 2.196 1.647 3.464 2.718l2.312 1.96 1.158.982 1.098-1.07 2.146-2.141c.319-.319.928-.917 1.79-1.752a9.776 9.776 0 004.304 1.428c.275 0 .549.033.835.033a11.148 11.148 0 006.807-2.509c.774.67 1.603 1.394 2.393 2.092l2.092 1.844 1.049.922 1.098-.883 4.496-3.662a11.039 11.039 0 005.77 2.937l1.646.263.818.127.593-.577 1.181-1.153c.395-.384 1.795-1.685 3.211-2.997a35.57 35.57 0 016.648 5.83l1.801 1.971.9.983 1.153-.676 2.3-1.361c.298-.186.586-.387.862-.604a42.753 42.753 0 016.335-4.161c2.509 2.196 6.171 5.341 6.945 6.039l1.949 1.647.972.834 1.048-.73 5.781-4.063 11.638 10.156 1.098.967 1.098-.999 3.294-3.042c1.823 3.063 4.194 5.166 6.939 6.116l1.367.472.692.231.637-.346 1.273-.692a10.543 10.543 0 001.823-1.378 13.695 13.695 0 004.035 2.778 4.713 4.713 0 003.041.582c2.915 2.196 5.561 3.294 7.878 3.294a6.893 6.893 0 001.889-.258h.066a50.907 50.907 0 013.969 6.999l.916 1.922 1.647-1.362c3.92-3.294 6.385-5.16 11.419-5.16.517-.008 1.034.012 1.548.06l1.559.104.193-1.548.362-2.871c1.273-10.216 1.026-17.847-.736-22.689a15.256 15.256 0 00-.982-2.163 38.624 38.624 0 002.86-5.869c3.843-10.2.241-16.003-3.481-19.077l-.549-.461-.28-.231-.351-.087-.697-.187a13.795 13.795 0 00-3.388-.472 8.168 8.168 0 00-5.423 1.866 9.16 9.16 0 00-.709.67l-1.487-1.735-.791-.96-1.142.549-2.284 1.13h-.049c-.324.154-1.246.615-2.366 1.164a7.675 7.675 0 00-1.383-1.306 7.713 7.713 0 00-4.606-1.433c-.367 0-.734.022-1.098.066-2.015-2.119-4.238-4.452-4.617-4.815l-2.487-2.355-1.427-1.367-1.098 1.647c-.5.763-1.955 2.959-3.464 2.959h-.099c-.412 0-.774-.033-1.126-.033-.653-.001-1.306.04-1.954.121l-6.198-9.031-.785-1.158a12.127 12.127 0 001.647-6.237v-34.097a11.988 11.988 0 00-3.503-8.674 14.094 14.094 0 00-6.587-3.551v-11.968h9.332v7.312a11.792 11.792 0 003.453 8.575c3.898 3.904 9.481 4.09 10.563 4.09h17.644c2.004 0 6.983-.488 10.579-4.073a11.816 11.816 0 003.486-8.592V75.309h-17.568v-5.007h-20.07V.878zM129.17 71.856h6.763v.06h73.014v.478h-23.458c-2.116.04-4.208.46-6.176 1.24-.934.38-1.825.858-2.657 1.428a16.507 16.507 0 00-8.811-2.663h-17.699c-2.115.04-4.205.46-6.17 1.241-.882.363-1.726.812-2.52 1.34a14.243 14.243 0 00-7.999-2.515h-4.287v-.609z" fill="url(#paint0_linear_18_132)"/><path d="M192.143 170.337H66.976v16.964h125.167v-16.964z" fill="#000"/><path d="M185.226 64.89h24.863V7.877h-14.246v11.424h-10.617s-7.077.038-7.077 5.753V59.23c0 5.611 7.077 5.66 7.077 5.66zm7.136-34.147h3.454v22.986h-3.454V30.743zM68.842 73.228V19.302H44.006c-4.265 0-7.038 3.052-7.038 5.72V59.29c0 5.616 7.071 5.66 7.071 5.66h10.595v2.882H36.946v11.347h24.907c7.011 0 7.022-5.973 7.022-5.973l-.033.022zM54.629 53.613H51.18v-22.87h3.448v22.87zM157.063 30.77h3.431v34.12h14.136V25.11c0-4.392-4.825-5.753-7.021-5.753-4.738 0-8.235.988-10.54 2.871v-2.866h-14.137V64.89h14.131V30.77zm90.615 62.886V82.308H230.11v-5.012h-14.152v5.007h-3.503v11.353h3.508v25.665c0 5.627 7.016 5.627 7.016 5.627h17.65s7.027 0 7.027-5.644V96.478h-14.054v17.161h-3.486V93.656h17.562zM210.292 90.8l.055-11.419h-24.858s-7.071 0-7.071 5.765v39.9h14.23v-20.016h17.699V93.595h-17.699v-2.794h17.644zm-35.426 28.547v-8.553h-14.152v2.882h-3.442v-5.748h17.567V85.092c0-5.748-7.032-5.737-7.032-5.737h-17.661s-7.038 0-7.038 5.753v34.229c0 5.644 7.043 5.66 7.043 5.66h17.683s7.038 0 7.038-5.66l-.006.011zm-17.6-28.547h3.442v5.677h-3.442V90.8zm-84.581 28.547c0 5.627 7.032 5.666 7.032 5.666h17.661s7.016 0 7.016-5.66V96.511H90.351v17.177h-3.524V93.656h17.567V82.308H86.645v-5.204h-14.18v5.204h-3.294v11.348h3.52l-.006 25.692zM86.64 47.855h3.42v25.61c0 5.654 7.137 5.66 7.137 5.66h10.837v45.9h14.152V90.873h3.415v34.152h14.142V85.213c0-5.743-6.275-5.743-6.275-5.743h-11.282V67.793h-17.968v-22.82a3.7 3.7 0 00-1.762-3.36s1.746-.66 1.746-2.306V25.11c0-5.753-7.022-5.808-7.022-5.808H72.465V73.97h14.142l.033-26.115zm0-17.096h3.42v5.682h-3.42V30.76zm28.097 34.097h24.704V25.077c0-5.747-7.038-5.747-7.038-5.747h-17.666s-7.027 0-7.027 5.747v8.438h14.163v-2.772h3.432v5.649h-10.568s-7.027 0-7.027 5.66v17.145c.011 5.643 7.027 5.66 7.027 5.66zm7.136-17.062h3.426v5.737h-3.426v-5.737zM86.19 130.438H68.567s-7.026 0-7.026 5.753v8.432h14.136v-2.745h3.43v5.66h-10.54s-7.026 0-7.026 5.66v17.15c0 5.638 7.026 5.655 7.026 5.655h24.705v-39.796c-.022-5.769-7.055-5.769-7.055-5.769h-.027zm-7.137 34.206h-3.431v-5.72h3.431v5.72zm35.299-.038h-3.425v-34.201H96.862v39.834c0 5.709 7.021 5.742 7.021 5.742h17.634s7.032-.033 7.032-5.682v-39.834h-14.142l-.055 34.141zm35.393-36.491h-14.059v5.172h-3.514v11.369h3.514v25.659c0 5.54 7.021 5.649 7.021 5.649h17.628s7.021-.033 7.021-5.649v-22.859h-14.048v17.139H149.8v-19.922h17.567v-11.37H149.8l-.055-5.188zm45.9 2.372h-17.633s-7.043 0-7.043 5.737v34.091c0 5.649 7.043 5.649 7.043 5.649H195.7s7.044 0 7.044-5.649v-34.097c0-5.78-7.044-5.72-7.044-5.72l-.055-.011zm-7.136 34.174h-3.437v-22.783h3.437v22.783z" fill="#fff"/><path d="M71.455 182.431c-1.268-.669-5.49-3.48-5.49-3.48-.966 3.486-.993 6.308-5.424 4.057-4.068-2.07-7.894-4.101-7.894-4.101-.725 5.55-.68 7.845-6.637 7.197l-2.23 9.882c-.51-.297-1.322-.61-1.86-.873l5.38-14.142-11.375-7.411-.845 1.466-12.38-8.905-1.943 1.488c-.55.401-12.78 9.958-12.533 23.727-3.607 3.59-4.475 10.205-4.65 12.16-.11.939-.906 9.135 3.969 15.163-5.94 4.556-6.132 10.595-5.622 15.415v.121c.96 6.22 3.547 10.238 7.686 11.924 5.644 2.311 12.078-.687 15.635-2.839l7.998 6.193 2.043-1.554a62.785 62.785 0 0013.724-15.684 13.756 13.756 0 006.374 3.546l1.735.346 5.067-5.1a9.147 9.147 0 004.94 1.57h1.274l.928-.873c.192-.186.516-.494 4.94-6.187l4.87 3.064 5.325-5.1a9.083 9.083 0 006.758 2.267l1.236-.088.872-.873c.39-.395 1.098-1.098 1.779-1.762a7.297 7.297 0 004.046 1.268h.115c1.784 0 4.392-.807 6.725-4.348.159-.242.304-.493.434-.752a41.501 41.501 0 015.029 3.761l2.311 1.959 2.146-2.141c.423-.422 1.362-1.334 2.789-2.712a8.41 8.41 0 004.612 1.916c2.558.22 5.089-.785 7.515-2.997 1.038.889 2.295 1.987 3.464 3.019l2.092 1.845 5.687-4.633a9.725 9.725 0 005.979 3.557l1.647.258 1.185-1.153a433.29 433.29 0 014.151-3.843c1.57.879 4.452 2.822 8.07 6.764l1.8 1.965 2.301-1.356c.245-.15.48-.317.702-.5 3.843-2.898 6.22-4.205 7.615-4.792 2.195 1.921 6.121 5.308 7.746 6.719l1.949 1.647 6.834-4.803 12.627 11.007 4.875-4.502c1.273 2.745 3.464 6 7.016 7.225l1.367.472 1.273-.686c.242-.132.681-.374 2.778-2.235a12.534 12.534 0 004.612 3.585c.396.245.843.395 1.306.439.465.047.934-.013 1.373-.175 3.584 2.838 6.587 3.919 8.959 3.222a2.75 2.75 0 00.917-.461c1.982 1.888 5.028 8.301 5.028 8.301 4.217-3.536 7.313-5.957 14.142-5.49l.362-2.877c1.241-9.947 1.022-17.32-.647-21.915a12.563 12.563 0 00-1.367-2.745 37.842 37.842 0 003.255-6.456c3.519-9.289.313-14.493-2.992-17.222l-.549-.461-.697-.186c-3.063-.807-5.534-.451-7.34 1.065a6.213 6.213 0 00-1.614 2.097l-2.898-3.294-2.284 1.169-3.706 1.867a5.737 5.737 0 00-1.768-2.103 6.68 6.68 0 00-5.352-.933c-1.565-1.647-4.732-4.985-5.155-5.386l-2.481-2.36c-.851 1.295-2.597 3.843-5.007 3.672a13.01 13.01 0 00-3.739.258l-6.801-9.947-9.185 5.764-5.33-7.685-5.787 3.733-4.018-4.178-4.425 3.365-3.393-3.634-1.647 1.147-17.847-17.946-4.913.763.164 13.209-1.043.955-3.843-2.987-5.281 5.078a12.171 12.171 0 00-6.203-2.195l-2.487-.165v-2.58l.417-1.329c1.049-1.021 2.668-3.008 2.558-5.545-.12-2.657-2.091-4.94-5.281-6.137l-1.262-.472-1.225.549a4.258 4.258 0 01-.406.153c-.436.15-.86.334-1.268.549l-.247.16c-.373.263-.84.658-1.647 1.328-.357.308-.928.791-1.438 1.213l-.072-.033a23.741 23.741 0 00-3.711-1.295c-6.944-1.647-12.868-.774-17.611 2.635-5.073 3.64-7.554 9.333-8.784 13.664l.297-.631-2.367 2.327-4.287-2.432-4.81 4.683c-2.3-1.998-7.915-2.591-7.915-2.591a13.232 13.232 0 01-1.79 4.353zm121.193 24.754l-.439-.549-.407.384a25.9 25.9 0 01-.252-3.744l1.142-.911c.06 1.608.049 3.211-.039 4.82h-.005z" fill="#000"/><path fill-rule="evenodd" clip-rule="evenodd" d="M54.986 183.617c1.048.516 1.965 1.098 4.134 2.24 2.882 1.504 6.445 3.14 8.426-1.993a43.593 43.593 0 004.184 2.498c1.345-.165 3.293-3.08 3.755-4.485a9.174 9.174 0 015.764 3.42l5.22-5.314 4.305 2.608 1.894-1.894 2.02 1.136s2.147-23.227 23.277-18.182c1.603.357 3.156 1.175 4.99 1.85.955-.45 3.755-3.025 4.54-3.59.439-.204.889-.39 1.345-.549 2.141.796 3.085 2.075 3.135 3.195.082 1.866-2.13 3.53-2.13 3.53l-.835 2.684-.038 12.841s3.744-.95 5.599-6.325a8.91 8.91 0 016.44 3.465l5.49-5.287 3.788 2.948 2.113-1.938s3.881 4.463 4.172 4.765c-1.388 2.245-1.646 3.02-1.218 3.294a.753.753 0 001.004-.126c1.065-.955 2.196-1.988 2.196-1.988l-4.051-5.621-.148-14.043.433-.066 18.594 18.742 1.581-1.098 3.481 3.728 4.458-3.393 3.842 4.013 5.386-3.469 5.308 7.636 9.174-5.726 6.588 9.585s.691-1.405 4.897-1.098a6.35 6.35 0 005.22-2.196c.494.467 6.451 6.758 6.451 6.758s6.428-3.101 5.435 4.31c.823-.456 7.839-3.925 7.839-3.925l5.369 6.209s1.175 1.004.895 0c.225-.967-1.905-8.927 5.55-6.972 8.685 7.175-2.498 21.651-2.498 21.651s5.913.994 3.075 23.722a15.965 15.965 0 00-10.217 3.53s-2.47-4.892-5.133-6.978c-.895-.895-1.306 1.021-2.657 1.175-2.465.895-7.916-4.183-7.916-4.183s-1.307 1.213-1.263 1.021a9.79 9.79 0 01-5.435-5.946s-4.529 4.195-5.188 4.551c-4.968-1.712-6.587-9.991-6.587-9.991l-6.451 5.924-12.357-10.766-6.824 4.793s-8.389-7.225-9.097-7.9c-4.079.779-10.502 5.978-10.793 6.148-6.626-7.208-11.127-8.443-11.127-8.443s-4.941 4.524-5.82 5.402c-4.133-.659-5.561-5.309-5.561-5.309l-6.533 5.325s-5.72-5.045-5.94-5.067c-7.175 9.048-11.638.846-11.638.846s-4.167 4.002-5.309 5.133c-7.136-6.039-9.332-5.616-9.442-5.561-.154 1.712-.406 2.497-.911 3.294-4.068 6.214-8.191.356-8.191.356s-3.009 2.91-4.046 3.953c-4.573.318-6.154-3.953-6.154-3.953l-6.154 5.896-5.227-3.293s-6 7.801-6.4 8.179c-2.537.044-5.123-2.706-5.123-2.706s-6.038 6.039-5.918 5.962c.121-.077-5.396-1.098-7.329-6.961-4.776 11.429-15.426 19.725-15.426 19.725l-7.845-6.039S8.075 252.251 5.21 233.739c-.593-5.49.132-10.919 7.828-14.52-7.543-4.831-6.198-15.372-6.198-15.372s.785-8.745 4.776-11.007c-1.29-13.093 11.15-22.623 11.15-22.623l13.357 9.629.928-1.647 6.236 4.062s-5.122 13.412-5.561 14.669c8.91 2.943 11.446 9.569 11.446 9.569s6.961-5.04-2.015-10.722l1.395-6.45c4.787.4 5.852-2.482 6.434-5.71zm-25.314 9.075l-4.134-2.569s-.796 2.064-.208 3.244a3.882 3.882 0 003.459 1.729l.883-2.404zm.401 28.547c1.861.95.187 2.624.187 2.624l-2.624-1.526s.378-1.922 2.437-1.098zM17.106 233.97c-1.433.164-1.372-1.466-1.372-1.466s0-1.246.79-1.647c1.005-.549 3.294 1.735 3.294 1.735-.604.999-2.712 1.378-2.712 1.378zm40.724-35.168l1.306.302-.044 4.469s-.757.4-.84-.676a12.877 12.877 0 00-.412-4.095h-.01zm-.247 10.689s.548.318 1.493.938c-.094 1.823-.33 5.99-.33 5.99s-.197 2.157-.51 1.306c-1.054-1.723-.653-8.234-.653-8.234zm13.367-11.622c0-1.982.587-2.108.587-2.108s.676-.632.72 1.559c0 .549 0 17.155-.044 17.435-.044.28-.763 1.263-1.175.099-.06-.148-.093-14.729-.088-17.018v.033zm12.358-1.883l1.07-1.098s.066 14.822.033 15.744c.044.61-.44 2.658-.823.226 0 .219-.313-4.903-.313-4.903l.033-9.969zm11.407-5.051s2.06 7.049 4.332 8.564a59.534 59.534 0 00-4.425 8.784c0-.577.093-17.364.093-17.364v.016zm10.102-4.941c.12.105 1.098 1.587 2.525.434-1.016 1.965-1.032 2.009-2.009 3.788-.385-1.197-.719-3.717-.516-4.266v.044zm11.814 2.416l-.072 3.486-1.822.247 1.894-3.733zm-6.659 14.109l6.401-.418s.06 4.118-.044 4.343c-.044.055-.127 1.597-2.465 1.043a26.073 26.073 0 01-3.294-1.23 6.258 6.258 0 00-1.932-.615c0-.131 1.334-3.156 1.334-3.156v.033zm18.906-15.01l2.394 2.85s.044 12.297-.044 15.25c-.549-.247-2.372-2.102-2.372-2.102l.022-15.998zm13.039 3.794l1.196-1.307v18.188s-.06.73-.516.697c-.236.066-.807.033-.68-.818V191.303zm12.077-.126l.884-.088c.066 2.371 0 12.077-.285 14.52.044.044-.176 2.086-.467.132-.242-1.252-.148-14.581-.148-14.581l.016.017zm11.057.324l1.279 1.339s0 12.423-.039 13.593a5.786 5.786 0 01-1.268-.566l.028-14.366zm11.759 1.564l.549-.252s.148 0 .192.236c.988 2.591-.357 17.677-.609 18.182.038.066-.319 0-.319 0l.187-18.166zm28.475 7.175l.665.818-.676.549.011-1.367zm16.305 2.092c.033.049 1.01 1.038 1.01 1.038s0 2.547-.033 2.525c-.691-.115-.565-1.675-.977-3.541v-.022zm-.867 10.7c.066.093 1.301 1.482 1.301 1.482s-.159 4.732-.763 5.874c-.439-.17-1.203-3.201-.549-7.351l.011-.005zm-5.435-8.263c-4.425 4.903-4.392 10.716-4.771 11.414-3.843 4.046-4.013.033-4.013.033l-.132-5.49 8.504-7.494s.373 1.318.412 1.537zm16.563.379l1.097-.505.066 13.725 4.14 5.094-2.333 3.59s-1.455-1.893-2.943-2.371c.066-1.032 0-19.56 0-19.56l-.027.027zm11.347 6.335a4.188 4.188 0 001.823 1.186c-.171.214-.791 1.186-1.351 1.999-.769.071-.45-3.179-.45-3.179l-.022-.006zm2.673 18.183c-.96-.44-2.514-1.263-2.514-1.263l1.933-3.135s1.098.818.603 4.392l-.022.006zm-56.808-32.445l1.96 2.245s3.997-3.178 4.211-3.294c1.981 9.234-.368 19.215-.368 19.215l-3.042-3.893s-2.102 1.993-2.744-1.098c-1.845-7.993 0-13.175 0-13.175h-.017z" fill="#fff"/><path fill-rule="evenodd" clip-rule="evenodd" d="M151.403 208.942c-.126-1.466 0-17.568 0-23.936-.099-1.015 1.647-3.327 2.108-4.216-.274-.264-.51-.549-1.098-1.191a28.875 28.875 0 01-2.075 1.932 70.675 70.675 0 00-3.404-2.981c-1.861 2.009-3.842 3.552-7.103 6.989-.302-2.306-1.351-4.881-3.712-4.941-.488 1.729-3.716 4.298-5.347 5.193.24.417.502.82.785 1.208.341-.17 2.531-1.559 2.476-.582.099 2.899.308 24.523-.84 25.945.22.477 2.861 2.789 3.602 3.442a33.048 33.048 0 003.991-3.579c-1.345-2.196-.796-19.797-.758-23.058 1.137-1.235 2.745-2.701 3.613-3.53.971-.735 2.102.621 2.064 2.196l.082 20.494c.033 1.328-.231 6.006 2.339 7.636.461-.406 4.94-4.798 5.901-5.742-.208-.335-.763-1.049-.95-1.301-.839.45-1.471.79-1.674.022zm-82.5 10.101c-.346 0-.632.115-.736-.505v-26.615c.225-.774 1.597-2.574 1.51-2.684.307-.791-1.131-1.488-1.208-1.488a5.67 5.67 0 01-2.97 2.668c-2.613.856-6.703-1.23-8.894-2.531-.33.39-.362 3.843-5.374 4.524a11.82 11.82 0 01-.401 2.196 6.796 6.796 0 011.773 1.927c.988 1.454 1.307 2.272 1.686 4.512a17.532 17.532 0 01-.044 3.794c-.483.587-.928.911-1.422 1.619A16.54 16.54 0 0051 210.007c-1.844 5.012-1.647 11.649 1.504 16.184a7.687 7.687 0 003.146 2.448c1.493-1.493 2.937-3.036 4.436-4.529.505-.681 1.037-1.164 1.702-1.965 0-.039 2.47 3.293 4.49 3.623 1.543-1.598 3.602-4.59 4.974-6.258-.29-.357-.648-.884-.928-1.219a3.62 3.62 0 01-1.422.752zm-10.53 2.454c-.307 0-4.326-.549-2.745-14.938 1.817.73 3.59 1.471 5.413 2.196-.137 4.249.593 10.974-2.668 12.758v-.016zm2.69-15.306a34.211 34.211 0 01-4.76-1.718c0-1.016.742-4.941-2.152-8.756 2.657.505 6.901 1.4 6.94 1.438v9.025l-.028.011zM188.3 191.868c.483.687 2.553 3.294 3.014 3.909.697-.549 3.727-3.074 4.436-3.673-.11-.258-4.337-7.087-4.337-7.136-1.68 1.229-4.743 3.294-4.782 3.365-1.219-1.334-3.508-3.788-3.843-4.101-1.191.878-4.199 2.937-5.133 3.552.242.324.549.812.807 1.131.448-.18.914-.313 1.389-.395 1.005.296 1.038 4.693 1.038 6.664.039 4.729-.236 9.455-.824 14.147-.368 1.647-.389 3.443-1.164 4.941 1.098 1.252 5.737 5.375 6.621 6.039.917-.604 5.49-3.843 6.418-4.886-.308-.445-.868-1.257-1.241-1.74-.203.159-1.158.911-1.845.714-1.004-.33-1.169-.654-1.646-1.395-2.125-3.294-2.317-13.175-.868-17.512.461-1.373.736-2.509 1.96-3.624zm-15.712-7.515c-.181-.088-.269.252-.67-.231-.636-.697-14.163-15.371-15.426-16.562 0 2.668-.038 5.456-.038 8.124.944.873 6.253 7.258 6.296 7.302-1.877 1.493-3.628 2.882-5.544 4.425l.23 16.985c0 2.103-.126 6.039-1.032 7.137 4.238.862 7.884 4.677 9.613 6.719a38.133 38.133 0 018.01-4.606v-27.18a5.887 5.887 0 011.323-2.388c-.297-.378-.549-.631-.906-1.131-.467.28-.879 1.076-1.856 1.406zm-4.337 27.883c-.697-.588-.971-.857-1.575-1.291a24.027 24.027 0 00-4.14-2.569v-19.527s1.296-1.938 1.818-2.668c1.312 1.339 2.849 2.964 3.903 4.205.011 7.334-.006 14.466-.006 21.85zm30.018-20.252c.198 3.239.604 12.467.604 13.839.088 1.609.121 10.299-2.135 13.428 1.054.884 7.296 6.259 7.801 6.791 1.158-.867 5.281-4.754 6.89-6.285a13.555 13.555 0 00-.862-1.225c-1.373.846-3.294 2.932-5.139 2.586-1.208-.549-1.334-3.36-1.394-4.117v-8.235c.104-.214 7.104-5.49 9.503-8.432-.61-1.581-7.093-12.627-7.714-13.401-1.087.73-5.961 3.953-7.554 5.051zm5.402 13.389c.039-3.519.066-6.9.105-10.43.746.884 4.529 6.791 4.573 6.829-.719.631-4.601 3.601-4.683 3.601h.005zm25.369-6.423c-.483-.51-4.496-4.628-5.995-6.121-1.685 2.278-6.764.906-7.79 2.355.038.126 0 .198.038.324.502.799.938 1.636 1.307 2.503.472.829 1.894 5.232 1.85 6.791 0 .445.066.692.066 1.137-.297.186-.862.593-1.098.752a8.45 8.45 0 00-2.41 3.173c-2.355 5.435-2.103 16.381 2.575 20.894.889-.95 6.038-5.199 6.686-5.83.051 1.189.213 2.371.483 3.53.582 1.57.89 2.339 2.915 3.656l4.26-4.145c.039-.038-.62-.79-.807-1.098-.307.165-.45.264-.719.39-.269.126-.779.275-.812-.434v-24.116c0-1.587 2.459-2.784 2.64-3.772a1.76 1.76 0 00-.049-.757 1.725 1.725 0 00-.384-.654c-.873.461-1.993 1.065-2.784 1.422h.028zm-6.588 23.469a2.458 2.458 0 01-1.499 1.427c-1.098-.796-1.57-1.647-2.02-3.178-1.142-3.887-.34-9.069.741-11.529 1.532 1.098 3.135 3.02 4.299 4.156.099 3.453-.154 6.429-1.548 9.124h.027zm1.647-12.352c-1.329-1.142-2.339-2.553-3.585-3.793a32.779 32.779 0 00-1.515-8.235c1.855 1.054 3.749 3.03 5.144 4.276.038 2.69 0 5.117 0 7.725l-.044.027zm30.918-4.847c.582-2.043.549-5.238-.488-6.676a1.914 1.914 0 00-2.196-.609c-2.07.807.653 5.918-.719 7.625-1.098 1.158-2.427 1.136-3.667.401-1.9-.945-5.441-5.874-5.611-6.089-2.196 1.302-4.359 2.4-6.654 3.745v13.109c.505.763 4.019 5.188 4.996 6.418-.873 1.433-6.384 9.881-7.016 10.848.851.724 2.196 1.817 2.246 1.861 1.01-1.263 2.81-2.531 4.94-1.488 2.592 1.268 5.073 6.039 5.111 6.039a9.817 9.817 0 016.802-2.295c.428-5.946 1.208-12.868-1.422-17.771-.675-1.098-1.443-2.195-2.805-2.602.692-.938 1.647-2.514 2.196-3.294.856-.905 3.48-5.649 4.326-9.222h-.039zm-7.477 29.436c-.549-.461-3.206-4.551-7.718-4.666 1.251-1.944 4.831-7.45 5.253-8.29 4.233.906 3.053 9.102 2.504 12.956h-.039zm-3.842-15.833c-.813-.933-2.246-2.745-2.745-3.469v-8.455c1.894 2.328 4.847 4.513 7.372 4.392-.9 1.576-4.633 7.532-4.633 7.532h.006zm-204.37-18.116a30.759 30.759 0 00-3.53-1.702c-.548-.241-.883-.373-1.608-.664.22-.747 1.098-3.025 1.367-3.706 1.384-3.744 2.745-7.29 4.101-10.864-.719-.412-2.327-1.51-2.525-1.581-.275.549-.664 1.389-.994 2.009-.104.099-2.574-1.806-3.074-2.157-2.542-1.774-8.987-6.473-9.925-7.329a27.846 27.846 0 00-2.279 2.607 36.765 36.765 0 00-4.238 6.94 38.619 38.619 0 00-1.702 5.336c-.159 1.098-.324 2.196-.483 3.293 0 .835-.044 1.269-.06 1.779a5.814 5.814 0 00-1.752 1.971 17.309 17.309 0 00-1.454 3.645c-2.196 6.731.357 13.626 4.611 16.266a16.726 16.726 0 003.98 1.576c1.205.208 2.423.329 3.645.362a4.75 4.75 0 01-1.646 2.872c-1.23.73-3.761-.879-5.726-.412-3.371.79-5.781 3.601-6.857 7.137-1.779 5.835 1.043 13.795 8.322 12.148 2.745-.625 4.513-2.195 6.517-3.678.587-.455 1.872-1.647 1.91-1.647.912.709 1.713 1.433 2.553 2.065.884.774 3.964 3.365 4.787 4.007 1.285-1.021 4.359-4.491 5.353-5.638a42.712 42.712 0 002.745-3.469 44.663 44.663 0 006.066-12.012c1.13-3.514 1.098-8.279-.483-11.419-1.455-3.448-4.628-5.869-7.648-7.735h.028zm-18.115 33.488c-1.74 1.279-6.105 3.7-7.686.867-.83-1.466-.774-4.348.044-5.731 1.9-3.239 5.835.186 7.757 1.515.653.456 1.098.961 1.79 1.526a14.807 14.807 0 01-1.927 1.823h.022zm1.207-45.017a21.473 21.473 0 011.554-3.914c1.186.758 8.35 5.896 9.212 6.451-.78 2.316-1.565 4.287-2.383 6.401-5.84 0-9.925-2.745-8.405-8.938h.022zm-5.583 15.553a31.16 31.16 0 01-.724-5.962c1.948 4.826 4.166 9.031 10.98 8.981-.424 1.307-.852 2.163-1.296 3.294-4.88-.236-7.494-2.739-8.96-6.313zm15.47 20.312c-.302.456-.807 1.186-1.06 1.482-1.454-.774-4.457-2.558-6.444-3.524.714-1.647 1.098-2.531 1.713-4.04 3.546-.143 5.374.307 6.587 1.965.505 1.273.247 2.564-.768 4.134l-.028-.017zm9.218-6.22a24.197 24.197 0 01-.758 2.932 24.532 24.532 0 01-2.8 5.682c-.488.768-1.097 1.647-1.707 2.569-.64-.357-1.239-.78-1.79-1.263.79-1.142 1.505-2.157 2.092-3.085 2.196-3.53 4.348-9.173.082-12.176a11.578 11.578 0 00-2.887-1.45 22.115 22.115 0 00-4.941-.807c.549-1.345.862-2.042 1.285-3.293 5.275.362 9.332 2.124 10.98 6.115.248.697.432 1.416.548 2.147.131.886.094 1.789-.11 2.662l.006-.033zm50.704-5.566c-.127-1.472.082-17.645.082-24.051-.104-1.021 1.647-3.892 2.124-4.776-.435-.351-.89-.677-1.361-.977-.829.955-1.466 1.734-1.921 2.355-.89-.703-2.361-1.647-3.651-2.745-1.949 1.932-3.569 3.579-6.807 7.016-.302-2.301-1.938-4.573-3.794-4.848-.659 1.68-3.607 4.392-5.237 5.298.177.39.377.769.598 1.136.335-.17 2.745-1.498 2.707-.549.093 2.899.615 24.32-.55 25.742.215.472 3.25 2.641 3.997 3.294a30.699 30.699 0 003.882-3.42c-1.807-2.504-1.384-19.725-1.346-22.997a96.527 96.527 0 013.607-3.689c.966-.736 2.097.62 2.059 2.196v20.603c.033 1.328.307 5.385 3.387 6.461.461-.4 4.238-4.562 5.188-5.489-.203-.346-.73-.895-.922-1.153-.835.549-1.883 1.647-2.042.609v-.016zm37.023-5.386c-.675-.313-2.01 1.202-2.01 1.202s-.966.928-.982-.362v-39.675c.181-.916 2.311-3.294 3.085-4.172a1.354 1.354 0 00-.302-.549 1.417 1.417 0 00-.549-.351c-1.224 1.054-4.765 4.062-5.66 4.842-2.673-1.504-8.597-4.941-14.411-2.432-5.297 1.971-10.924 8.86-10.556 20.861.038.769.356 5.682 2.547 9.333.335.549 2.267 2.745 2.196 2.794-4.469 6.89-4.848 8.531-5.704 11.166-.593 1.817-1.005 4.743.093 6.379.697 1.384 5.029 2.773 4.458-2.091-.077-.374-.807-4.573 3.091-3.431 3.875.944 8.064 4.424 8.674 4.979 1.482-1.515 5.819-5.918 5.857-5.962 1.191 2.586 3.607 6.988 7.373 4.255 1.257-.912 2.69-3.031 3.612-5.49a1.05 1.05 0 000-.418 1.16 1.16 0 00-.159-.395 1.082 1.082 0 00-.686-.45l.033-.033zm-26.675-18.292c-1.098-5.742.774-11.852 3.722-14.372a7.338 7.338 0 012.421-1.499c.456-.137 3.294-1.257 7.482.659-.444.807-.894 1.532-1.339 2.344-1.038-.192-1.943-.549-3.426-.362-2.525.549-3.656 1.921-4.49 3.881a10.52 10.52 0 00-.708 4.447c.691-.988 1.795-3.234 4.655-3.223.493.093.979.219 1.455.379-.61 1.142-.994 1.905-1.521 2.745-1.296 2.13-2.383 4.287-3.684 6.401-.746 1.213-1.476 2.569-2.426 4.095-1.098-1.367-1.74-3.941-2.141-5.489v-.006zm16.178 18.309c-1.098 1.487-3.129 3.162-5.341 2.47-1.9-.598-3.602-1.773-5.353-2.536-.911-.401-3.069-1.197-3.151-1.197 1.01-2.015 2.147-4.26 3.036-6.039 3.64-.285 7.279-.713 10.919-.993 0 1.015-.11 7.175-.11 8.333v-.038zm.176-13.22c-2.075.115-5.677.549-6.961.631-.082 0-1.817.171-1.9.171.846-1.521 1.861-3.431 2.575-4.595 1.389-2.383 6.324-11.908 6.363-11.908 0 5.282-.083 10.574-.077 15.712v-.011z" fill="#000"/><path d="M268.906 194.987a2.817 2.817 0 01-.439 1.597 2.74 2.74 0 01-1.251 1.098 2.833 2.833 0 11-2.29-5.182c.366-.159.76-.241 1.159-.242a2.74 2.74 0 012.602 1.675c.144.332.218.691.219 1.054zm-4.94 0a2.132 2.132 0 00.932 1.831c.358.242.782.369 1.214.365a2.065 2.065 0 001.515-.648c.2-.201.354-.443.451-.708.1-.267.147-.55.137-.835a2.122 2.122 0 00-2.125-2.124 2.121 2.121 0 00-2.124 2.124v-.005zm1.696 1.443h-.642v-2.745a5.778 5.778 0 011.059-.087 1.81 1.81 0 01.961.203.76.76 0 01.203.274.871.871 0 01.066.33.709.709 0 01-.576.636v.033a.851.851 0 01.345.269.817.817 0 01.16.407c.028.238.096.47.203.686h-.687a2.224 2.224 0 01-.219-.67.476.476 0 00-.322-.416.455.455 0 00-.183-.023h-.324l-.044 1.103zm0-1.559h.302c.351 0 .637-.12.637-.4s-.187-.423-.588-.423a1.88 1.88 0 00-.351.033v.79z" fill="#fff"/><path d="M26.044 255.276l5.884 23.704 201.476-2.585 4.831-18.534-212.192-2.585z" fill="url(#paint1_linear_18_132)"/><path d="M26.038 255.276l212.219 2.602-4.842 18.533-201.475 2.586-5.902-23.721zm-2.196-1.752l.55 2.196 5.89 23.711.33 1.334h1.372l201.475-2.586h1.318l.329-1.274 4.831-18.539.549-2.13h-2.196l-212.23-2.635h-2.234l.016-.077z" fill="url(#paint2_linear_18_132)"/><path d="M34.613 265.069h3.184v5.693h1.614v-5.693h3.19v-1.229h-7.988v1.229zm17.145 1.455H46.75v-2.684h-1.647v6.939h1.647v-2.992h5.034v2.992h1.647v-6.939h-1.647l-.027 2.684zm6.522 1.219h3.206v-1.159h-3.2v-1.548h5.49v-1.196h-7.1v6.939h7.137v-1.312H58.28v-1.724zm21.119-3.014a4.31 4.31 0 00-2.937-.895h-4.458v6.934h4.046a10.09 10.09 0 001.719-.132 3.376 3.376 0 001.125-.406c.482-.296.874-.72 1.13-1.225a3.84 3.84 0 00.402-1.745 3.031 3.031 0 00-.23-1.378 3.093 3.093 0 00-.791-1.153h-.006zm-1.334 4.216a4.153 4.153 0 01-2.36.516H73.65v-4.392h2.86a2.342 2.342 0 011.702.549c.204.211.36.464.456.741.1.276.141.57.12.862a1.998 1.998 0 01-.719 1.724h-.005zm6.956-1.202h3.2v-1.159h-3.2v-1.548h5.49v-1.196h-7.066v6.939h7.137v-1.312h-5.55l-.011-1.724zm8.547 3.025h1.614v-2.63h2.92v-1.268h-2.92v-1.828h5.397v-1.202h-7l-.01 6.928zm9.53 0h1.614v-6.928h-1.614v6.928zm11.595-3.294v.373c-.002.277.016.555.055.829a5.553 5.553 0 00-.352-.373 8.766 8.766 0 00-.439-.385l-4.858-4.078h-1.098v6.939h1.449v-4.249a2.267 2.267 0 00-.049-.604c.077.093.164.181.252.269l.324.296 5.089 4.282h1.098v-6.933h-1.427l-.044 3.634zm4.727 3.294h1.614v-6.928h-1.614v6.928zm4.101-5.693h3.184v5.693h1.608v-5.699h3.195v-1.229h-7.987v1.235zm10.507 5.687h1.647v-6.922h-1.647v6.922zm8.723-1.921l-2.81-5.001h-1.84l4.002 6.939h1.098l3.843-6.939h-1.608l-2.685 5.001zm8.356-1.098h3.233v-1.159h-3.206v-1.548h5.49v-1.196h-7.137v6.939h7.137v-1.312h-5.506l-.011-1.724zm17.743 0h3.2v-1.159h-3.2v-1.548h5.49v-1.196h-7.093v6.939h7.136v-1.312h-5.544l.011-1.724zm15.92-3.014a4.39 4.39 0 00-2.937-.895h-4.436v6.934h4.046a9.425 9.425 0 001.719-.127c.386-.072.757-.21 1.098-.406a3.054 3.054 0 001.131-1.23c.27-.539.405-1.136.395-1.74a3.191 3.191 0 00-1.027-2.536h.011zm-1.334 4.216a4.151 4.151 0 01-2.36.516h-2.081v-4.392h2.855a2.351 2.351 0 011.707.549 2.096 2.096 0 01.549 1.603c.032.323-.015.649-.137.95a1.923 1.923 0 01-.522.774h-.011zm5.347 1.823h1.614v-6.928h-1.603l-.011 6.928zm4.118-5.693h3.162v5.693h1.647v-5.699h3.217v-1.229h-7.999l-.027 1.235zm10.491 5.693h1.614v-6.928h-1.614v6.928zm11.654-6.928h-5.105a1.977 1.977 0 00-1.362.351c-.279.368-.407.83-.356 1.29v3.651a1.79 1.79 0 00.356 1.295c.395.281.881.405 1.362.346h5.105c.481.057.966-.067 1.362-.346.283-.369.411-.833.357-1.295v-3.645c.05-.46-.077-.922-.357-1.291a1.998 1.998 0 00-1.351-.356h-.011zm.11 5.627h-5.319v-4.392h5.319v4.392zm11.529-5.627v4.013c0 .164.027.439.055.834a3.212 3.212 0 00-.346-.373 8.639 8.639 0 00-.439-.39l-4.892-4.084h-1.098v6.939h1.45v-4.249c0-.193 0-.39-.05-.604.083.093.165.181.258.269l.319.296 5.089 4.282h1.098v-6.933h-1.444z" fill="#000"/><path d="M228.123 263.84v6.939h-1.098l-5.089-4.282-.318-.297c-.094-.088-.176-.181-.258-.269 0 .214.038.417.049.604.011.187 0 .357 0 .5v3.744h-1.449v-6.939h1.098l4.88 4.084c.165.137.313.269.439.39.126.115.241.24.346.373-.027-.39-.044-.664-.055-.834-.011-.171 0-.28 0-.368v-3.645h1.455zm-13.071 0c.481-.052.965.073 1.361.351.282.367.41.83.357 1.29v3.651c.054.462-.074.926-.357 1.295a1.96 1.96 0 01-1.361.346h-5.106a1.94 1.94 0 01-1.361-.346 1.786 1.786 0 01-.357-1.295v-3.645c-.051-.46.077-.922.357-1.291a1.94 1.94 0 011.361-.345h5.106v-.011zm-5.21 5.638h5.32v-4.392h-5.32v4.392zm-4.809-5.638v6.939h-1.614v-6.939h1.614zm-4.117 0v1.246h-3.195v5.693h-1.614v-5.71h-3.179v-1.229h7.999-.011zm-10.486 0v6.939h-1.614v-6.939h1.614zm-8.558 0a4.341 4.341 0 012.937.9 3.19 3.19 0 011.021 2.531 3.781 3.781 0 01-.395 1.745 3.082 3.082 0 01-1.131 1.225c-.349.199-.73.336-1.126.406-.568.093-1.143.137-1.718.132h-4.052v-6.939h4.464zm-2.817 5.627h2.108a4.07 4.07 0 002.361-.516c.241-.21.429-.473.549-.769.127-.298.176-.622.143-.944a2.092 2.092 0 00-.577-1.603 2.347 2.347 0 00-1.707-.549h-2.849v4.392l-.028-.011zm-4.715-5.627v1.18h-5.49v1.564h3.2v1.181h-3.2v1.718h5.545v1.307h-7.137v-6.95h7.082zm-17.738 0v1.18h-5.49v1.564h3.201v1.181h-3.195v1.718h5.55v1.307h-7.137v-6.95h7.071zm-9.536 0l-3.782 6.939h-1.098l-4.046-6.939h1.839l2.811 5.017 2.673-5.017h1.647-.044zm-11.413 0v6.939h-1.614v-6.939h1.614zm-4.117 0v1.246h-3.201v5.693h-1.608v-5.71h-3.206v-1.229h8.015zm-10.491 0v6.939h-1.614v-6.939h1.614zm-4.892 0v6.939h-1.098l-5.089-4.282-.324-.297a6.206 6.206 0 01-.252-.269c0 .214.038.417.049.604.011.187 0 .357 0 .5v3.744h-1.449v-6.939h1.098l4.88 4.062c.165.137.313.269.44.39.126.121.241.247.351.373 0-.39-.044-.664-.055-.834-.011-.171 0-.28 0-.368v-3.623h1.449zm-11.429 0v6.939h-1.614v-6.939h1.614zm-4.134 0v1.213h-5.397v1.822h2.92v1.269h-2.92v2.635H93.58v-6.939h7.011zm-10.074 0v1.18h-5.49v1.564h3.2v1.181h-3.2v1.718h5.556v1.307h-7.137v-6.95h7.07zm-14.043 0a4.34 4.34 0 012.937.9 3.173 3.173 0 011.027 2.525 3.842 3.842 0 01-.401 1.746 2.999 2.999 0 01-1.131 1.224c-.337.204-.71.342-1.098.406a8.995 8.995 0 01-1.718.132h-4.085v-6.933h4.469zm-2.822 5.621h2.108a4.153 4.153 0 002.361-.516 2.023 2.023 0 00.686-1.713c.021-.294-.02-.59-.12-.867a2.02 2.02 0 00-.456-.741 2.338 2.338 0 00-1.702-.549h-2.855v4.392l-.022-.006zm-9.881-5.621v1.18h-5.49v1.564h3.206v1.181h-3.2v1.718h5.544v1.307h-7.137v-6.95h7.077zm-10.376 0v6.939h-1.647v-2.992h-4.996v2.992h-1.647v-6.939h1.647v2.69h5.034v-2.69h1.609zm-10.776 0v1.246H39.41v5.693h-1.614v-5.71h-3.184v-1.229h8.005zm186.191-.687h-2.821v3.909l-4.475-3.771-.192-.16h-2.036v8.306h2.821v-3.925l4.475 3.766.192.159h2.036v-8.284zm-13.752 0h-5.105a1.909 1.909 0 00-2.3 1.384c-.094.307-.126.63-.094.95v3.65a2.014 2.014 0 001.412 2.302c.318.092.653.105.976.037h5.106a2.526 2.526 0 001.839-.549c.206-.245.361-.529.456-.835.094-.309.126-.633.093-.955v-3.65a2.452 2.452 0 00-.549-1.785 2.6 2.6 0 00-1.845-.549h.011zm-4.523 2.619h3.947v3.008h-3.947v-3.008zm-4.815-2.619h-2.986v8.312h2.986v-8.312zm-4.117 0h-9.371v2.619h3.206v5.693h2.986v-5.709h3.195v-2.603h-.016zm-10.491 0h-2.986v8.312h3.008v-8.317l-.022.005zm-9.245 0h-5.144v8.312h4.732c.62.008 1.24-.041 1.85-.148a3.719 3.719 0 002.734-1.993 4.444 4.444 0 00.473-2.059 3.85 3.85 0 00-1.258-3.03 5.064 5.064 0 00-3.387-1.098v.016zm-2.157 2.619h2.168c.441-.039.881.086 1.235.351.125.153.224.326.291.511.065.189.089.389.072.587 0 .851-.313 1.098-.418 1.159-.236.175-.763.384-1.954.384h-1.394v-2.992zm-4.683-2.619h-8.465v8.312h8.531v-2.685h-5.545v-.329h3.201v-2.558h-3.201v-.187h5.49v-2.553h-.011zm-17.738 0h-8.465v8.312h8.531v-2.685h-5.55v-.329h3.201v-2.558h-3.201v-.187h5.49v-2.547l-.006-.006zm-9.085 0h-3.184l-.193.363-2.086 3.903-2.201-3.909-.192-.351h-3.431l.593 1.032 4.007 6.928.198.346h1.916l.197-.357 3.81-6.934.549-1.015.017-.006zm-11.864 0h-2.986v8.312h2.986v-8.312zm-4.123 0h-9.332v2.619h3.184v5.693h2.981v-5.709h3.195v-2.614l-.028.011zm-10.485 0h-2.987v8.312h2.987v-8.312zm-4.891 0h-2.822v3.909l-4.474-3.771-.193-.16h-2.036v8.306h2.821v-3.925l4.469 3.766.192.159h2.043v-8.284zm-11.43 0h-2.987v8.312h2.981l.006-8.312zm-4.134 0h-8.41v8.312h2.986v-2.635h2.92v-2.641h-2.92v-.45h5.396v-2.586h.028zm-10.074 0h-8.47v8.312h8.536v-2.685h-5.54v-.329h3.207v-2.558h-3.2v-.187h5.49v-2.553h-.023zm-14.729 0h-5.144v8.312h4.732c.62.008 1.24-.041 1.85-.148a3.719 3.719 0 002.734-1.993c.32-.639.484-1.344.478-2.059a3.778 3.778 0 00-.291-1.647c-.217-.527-.55-1-.972-1.383a5.065 5.065 0 00-3.387-1.098v.016zm-2.157 2.619h2.195c.44-.042.879.084 1.23.351a1.506 1.506 0 01.362 1.098c0 .851-.312 1.098-.417 1.159-.236.175-.763.384-1.949.384h-1.421v-2.992zm-9.882-2.619h-8.438v8.312h8.531v-2.685h-5.544v-.329h3.2v-2.558h-3.2v-.187h5.49v-2.553h-.04zm-10.381 0h-2.998v2.69H47.41v-2.69h-2.986v8.312h2.986v-3.014h3.645v2.992h3.02v-8.295l-.022.005zm-10.788 0h-9.332v2.619h3.184v5.693h2.986v-5.709h3.19v-2.614l-.028.011z" fill="url(#paint3_linear_18_132)"/><defs><linearGradient id="paint0_linear_18_132" x1="19.039" y1="259.047" x2="247.145" y2="30.935" gradientUnits="userSpaceOnUse"><stop stop-color="#A68B56"/><stop offset=".12" stop-color="#987B52"/><stop offset=".25" stop-color="#E3D7B1"/><stop offset=".3" stop-color="#DFD1A0"/><stop offset=".34" stop-color="#DDCF9A"/><stop offset=".58" stop-color="#AC9467"/><stop offset=".69" stop-color="#987C52"/><stop offset="1" stop-color="#BAA46C"/></linearGradient><linearGradient id="paint1_linear_18_132" x1="110.575" y1="311.041" x2="149.075" y2="220.201" gradientUnits="userSpaceOnUse"><stop stop-color="#A48955"/><stop offset=".12" stop-color="#977B52"/><stop offset=".25" stop-color="#E2D6B0"/><stop offset=".3" stop-color="#DED09F"/><stop offset=".34" stop-color="#DCCE99"/><stop offset=".58" stop-color="#AB9467"/><stop offset=".69" stop-color="#977C52"/><stop offset="1" stop-color="#B8A36C"/></linearGradient><linearGradient id="paint2_linear_18_132" x1="2490960" y1="-862436" x2="2426950" y2="613153" gradientUnits="userSpaceOnUse"><stop stop-color="#A68B56"/><stop offset=".12" stop-color="#987B52"/><stop offset=".25" stop-color="#E3D7B1"/><stop offset=".3" stop-color="#DFD1A0"/><stop offset=".34" stop-color="#DDCF9A"/><stop offset=".58" stop-color="#AC9467"/><stop offset=".69" stop-color="#987C52"/><stop offset="1" stop-color="#BAA46C"/></linearGradient><linearGradient id="paint3_linear_18_132" x1="82.166" y1="316.509" x2="182.163" y2="216.507" gradientUnits="userSpaceOnUse"><stop stop-color="#7A6846"/><stop offset=".23" stop-color="#977B52"/><stop offset=".47" stop-color="#DACB95"/><stop offset=".59" stop-color="#BDA978"/><stop offset=".76" stop-color="#977B52"/><stop offset="1" stop-color="#C2AE7D"/></linearGradient></defs></svg>