<svg width="269" height="243" fill="none" xmlns="http://www.w3.org/2000/svg"><path d="M225.538 1.826v75.069h-86.316v-.036h-11.149v4.327h6.579a13.69 13.69 0 018.849 3.219 13.133 13.133 0 013.505-2.094 17.439 17.439 0 016.147-1.217h19.627c1.034 0 6 .183 9.737 3.427a13.338 13.338 0 013.652-2.191 17.47 17.47 0 016.153-1.218h27.848v-2.294h27.557v5.55h19.475v47.02a11.28 11.28 0 01-3.305 8.21c-3.821 3.81-9.347 3.968-10.437 3.98h-7.723v21.745h-7.114v7.303h7.114v27.496h-80.565v-2.568a14.2 14.2 0 01-2.568 1.351 17.846 17.846 0 01-6.086 1.217h-19.639a17.653 17.653 0 01-6.086-1.217 13.394 13.394 0 01-3.7-2.216 13.162 13.162 0 01-3.651 2.197 17.677 17.677 0 01-6.086 1.218H97.619c-4.534-.067-9.129-1.991-11.63-5.606a12.292 12.292 0 01-5.611 4.37 17.696 17.696 0 01-6.086 1.217h-19.59c-2-.049-3.978-.436-5.849-1.144v1.144H15.551a17.649 17.649 0 01-6.086-1.217c-4.862-1.99-7.637-6.013-7.637-11.021v-37.824a11.46 11.46 0 013.335-8.289c3.651-3.652 8.885-4.005 10.248-4.005h.152l47.58-.048a11.564 11.564 0 01-1.79-6.317v-22.579H57.46v-16.17c-.724.085-1.451.128-2.18.128H21.736V26.778c0-7.346 7.102-12.275 13.741-12.275h58.96c3.55-.021 6.994 1.2 9.738 3.45a13.19 13.19 0 013.59-2.172 17.376 17.376 0 016.135-1.242l58.607.03c2.772.046 5.484.814 7.869 2.228.616.371 1.2.793 1.747 1.26a13.164 13.164 0 013.748-2.3 17.844 17.844 0 016.141-1.26h5.873V1.825h27.654zM206.203 137.76h15.824a11.517 11.517 0 01-1.863-6.439v-9.932h-13.997v16.371h.036zM227.364 0h-31.306v12.665h-4.047a19.585 19.585 0 00-6.828 1.393 15.4 15.4 0 00-3.043 1.668 18.235 18.235 0 00-.791-.511 17.847 17.847 0 00-8.813-2.502h-58.607c-2.336.04-4.645.505-6.816 1.37a15.47 15.47 0 00-2.897 1.558 17.409 17.409 0 00-9.737-2.976H35.476a16.766 16.766 0 00-10.522 3.803 13.218 13.218 0 00-5.045 10.31V94.58h35.724v16.024h3.895v20.783a13.835 13.835 0 00.724 4.479l-44.664.049h-.17c-1.17 0-7.212.219-11.564 4.534a13.259 13.259 0 00-3.852 9.573v37.824c0 5.812 3.189 10.431 8.757 12.676a19.535 19.535 0 006.792 1.352H50.68v-.5c1.317.308 2.664.478 4.017.506H74.28a19.398 19.398 0 006.786-1.382 14.937 14.937 0 004.93-3.219 16.695 16.695 0 0011.599 4.595h19.712a19.323 19.323 0 006.774-1.364 15.473 15.473 0 002.988-1.594c.95.651 1.971 1.192 3.043 1.613a19.667 19.667 0 006.822 1.338h19.621a19.46 19.46 0 006.786-1.351h.06v1.376h84.162v-31.166h-7.114v-3.651h7.114v-21.739h5.891c2.221-.031 7.741-.542 11.728-4.516a13.102 13.102 0 003.815-9.5V82.506h-19.474v-5.55h-22.159V0zm-97.465 78.684h7.498v.037h80.942v.53h-26.024c-2.346.04-4.666.506-6.846 1.375-1.036.42-2.023.95-2.946 1.582a18.255 18.255 0 00-9.737-2.952h-19.633a19.395 19.395 0 00-6.841 1.376c-.978.4-1.913.898-2.793 1.485a15.738 15.738 0 00-8.867-2.751h-4.753v-.682zm78.13 44.531h10.346v8.106a13.98 13.98 0 00.767 4.613h-11.113v-12.719z" fill="url(#paint0_linear_15_375)"/><path d="M166.882 141.734c-3.816-3.792-9.281-3.956-10.407-3.974h-19.602a17.534 17.534 0 00-6.141 1.217 13.488 13.488 0 00-3.237 1.862h-15.952v-5.733H83.987v2.593h-15.47v-.067l-52.948.055c-1.07 0-6.572.182-10.4 4.004a11.447 11.447 0 00-3.342 8.332v37.824c0 5.027 2.776 9.031 7.614 10.954a17.649 17.649 0 006.086 1.217h33.326v-1.144a17.756 17.756 0 005.848 1.144H74.28a17.673 17.673 0 006.085-1.217 12.292 12.292 0 005.612-4.37c2.525 3.616 7.096 5.539 11.63 5.606h19.688a17.682 17.682 0 006.086-1.218 13.162 13.162 0 003.651-2.197 13.394 13.394 0 003.7 2.216 17.653 17.653 0 006.086 1.217h19.621a17.846 17.846 0 006.086-1.217c4.869-1.948 7.632-5.952 7.632-10.955v-37.824a11.479 11.479 0 00-3.275-8.325z" fill="#000"/><path d="M245.737 165.262V137.76h-80.565v27.502h6.926v7.291h-6.926v27.496h80.565v-27.496h-7.114v-7.291h7.114z" fill="#000"/><path d="M247.733 84.332v-5.55h-27.55v2.294h-27.868a17.478 17.478 0 00-6.153 1.217 13.345 13.345 0 00-3.651 2.191c-3.755-3.244-8.727-3.426-9.737-3.426h-19.621a17.44 17.44 0 00-6.147 1.217 13.117 13.117 0 00-3.505 2.093 13.69 13.69 0 00-8.849-3.219h-6.579v-4.327h11.149v.037h86.316V1.826h-27.654V14.49h-5.873a17.837 17.837 0 00-6.141 1.265 13.175 13.175 0 00-3.749 2.289 13.055 13.055 0 00-1.746-1.26 15.927 15.927 0 00-7.869-2.246h-58.613c-2.1.032-4.176.445-6.129 1.217a13.433 13.433 0 00-3.59 2.173 15.216 15.216 0 00-9.738-3.45h-58.96c-6.64 0-13.742 4.929-13.742 12.274v66.002H55.28a18.6 18.6 0 002.178-.128v16.152h3.895v22.609c0 5.015 2.77 9.019 7.602 10.954a17.867 17.867 0 006.128 1.218h19.609a17.88 17.88 0 005.83-1.132v1.132h47.007v-1.041c1.807.645 3.706.992 5.624 1.028h19.627a17.685 17.685 0 005.781-1.107v1.107h27.636v-22.158h13.998v9.932a11.31 11.31 0 003.292 8.192c3.81 3.803 9.33 4.004 10.419 4.004h19.56c1.09 0 6.615-.176 10.437-3.986a11.29 11.29 0 003.269-8.21v-46.99h-19.439z" fill="#000"/><path d="M203.818 7.76v12.664h-11.776s-7.845.043-7.845 6.384v37.879c0 6.22 7.845 6.274 7.845 6.274h27.563V7.76h-15.787zm0 50.829h-3.828V33.107h3.828V58.59zM35.47 20.424c-4.722 0-7.802 3.384-7.802 6.342v38.012c0 6.226 7.845 6.268 7.845 6.268h11.764v3.202H27.662v12.58H55.28c7.765 0 7.784-6.604 7.784-6.604v-59.8H35.47zm11.8 38.037H43.45V33.1h3.822v25.36zM180.296 70.961V26.863c0-4.869-5.35-6.378-7.784-6.378-5.252 0-9.129 1.096-11.685 3.183v-3.177h-15.671v50.47h15.665V33.138h3.803V70.96h15.672zM241.794 102.851h19.475V90.266h-19.475v-5.55h-15.677v5.55h-3.895v12.585h3.895v28.446c0 6.268 7.79 6.256 7.79 6.256h19.572s7.784.03 7.784-6.256v-25.324h-15.58v19h-3.889v-22.122zM219.835 99.687l.061-12.677h-27.581s-7.838 0-7.838 6.384v44.232h15.75v-22.165h19.627v-12.677h-19.585v-3.091l19.566-.006zM164.868 121.851v3.195h-3.816v-6.371h19.511v-25.3c0-6.371-7.802-6.36-7.802-6.36h-19.608s-7.802 0-7.802 6.379v37.945c0 6.257 7.814 6.275 7.814 6.275h19.596s7.802 0 7.802-6.287v-9.476h-15.695zm0-22.164v6.286h-3.816v-6.286h3.816zM102.451 131.339v-25.323h-15.58v19.043h-3.9v-22.208h19.474V90.266H82.77v-5.74H67.067v5.77H63.38v12.586h3.895v28.506c0 6.232 7.796 6.281 7.796 6.281h19.578s7.796-.037 7.796-6.287l.006-.043z" fill="#fff"/><path d="M134.645 87.125h-12.506V74.181h-19.895v-25.3a4.083 4.083 0 00-1.954-3.724s1.978-.73 1.978-2.556V26.863c0-6.378-7.783-6.439-7.783-6.439H67.098v60.597H82.77V52.077h3.786v28.39c0 6.269 7.911 6.275 7.911 6.275h12.038v50.884h15.683V99.741h3.792v37.861h15.671v-44.11c0-6.367-6.956-6.367-6.956-6.367h-.049zm-48.03-53.981v6.28H82.77v-6.299l3.846.019z" fill="#fff"/><path d="M133.483 20.455h-19.572s-7.79 0-7.79 6.372v9.354h15.677v-3.086h3.804v6.275h-11.691s-7.79 0-7.79 6.268V64.65c0 6.256 7.79 6.275 7.79 6.275h27.386V26.826c0-6.371-7.796-6.371-7.796-6.371h-.018zM125.59 58.37h-3.804v-6.36h3.804v6.36zM35.117 143.627H15.551s-7.79 0-7.79 6.378v9.378h15.671v-3.043h3.81v6.275h-11.69s-7.79 0-7.79 6.274v19.012c0 6.251 7.79 6.269 7.79 6.269h27.386v-44.147c0-6.396-7.82-6.396-7.82-6.396zm-7.875 37.939h-3.81v-6.36h3.81v6.36zM82.027 187.816v-44.159H66.374v37.86h-3.791V143.59h-15.66v44.159c0 6.323 7.779 6.39 7.779 6.39h19.547s7.778-.042 7.778-6.299M105.604 159.383h19.475v-12.586h-19.475v-5.733H89.927v5.733h-3.895v12.586h3.895v28.445c0 6.141 7.79 6.263 7.79 6.263h19.566s7.79-.037 7.79-6.263v-25.335h-15.574v19h-3.895v-22.11z" fill="#fff"/><path d="M105.604 159.383h19.475v-12.586h-19.475v-5.733H89.927v5.733h-3.895v12.586h3.895v28.445c0 6.141 7.79 6.263 7.79 6.263h19.566s7.79-.037 7.79-6.263v-25.335h-15.574v19h-3.895v-22.11zM156.488 143.694h-19.609s-7.808 0-7.808 6.359v37.794c0 6.268 7.808 6.268 7.808 6.268h19.609s7.814 0 7.814-6.268v-37.794c0-6.408-7.814-6.359-7.814-6.359zm-11.703 12.646h3.81v25.256h-3.81V156.34z" fill="#fff"/><path d="M239.785 159.322v-15.628h-68.679v15.628h6.926v19.164h-6.926v15.653h68.679v-15.653h-7.096v-19.164h7.096zm-46.143 0h3.889v19.164h-3.889v-19.164zm23.4 19.164h-3.889v-19.164h3.889v19.164z" fill="#D20000"/><path d="M176.949 162.45h-9.756v12.981h9.756V162.45z" fill="#000"/><path d="M10.719 214.472l6.548 26.291 223.346-2.872 5.349-20.546-235.243-2.873z" fill="url(#paint1_linear_15_375)"/><path d="M10.72 214.472l235.243 2.873-5.35 20.546-223.351 2.872-6.549-26.291h.006zm-2.441-1.941l.608 2.404 6.549 26.291.365 1.466h1.515l223.352-2.872h1.46l.366-1.412 5.349-20.546.609-2.367h-2.435l-235.273-2.934H8.267l.012-.03z" fill="url(#paint2_linear_15_375)"/><path d="M20.225 225.317h3.512v6.311h1.825v-6.311h3.542v-1.357h-8.879v1.357zm19.006 1.619h-5.58v-2.964h-1.79v7.668h1.79v-3.304h5.58v3.304h1.826v-7.668h-1.826v2.964zm7.242 1.357h3.542v-1.278h-3.541v-1.716h6.085v-1.327h-7.875v7.668h7.912v-1.442h-6.122v-1.905zm23.413-3.347a4.828 4.828 0 00-3.256-.986h-4.942v7.68h4.485c.638.012 1.276-.035 1.905-.14.43-.078.842-.232 1.218-.456a3.326 3.326 0 001.253-1.357 4.26 4.26 0 00.444-1.935 3.528 3.528 0 00-1.107-2.806zM68.4 229.62a4.492 4.492 0 01-2.617.609h-2.307v-4.869h3.165a2.676 2.676 0 011.893.608 2.345 2.345 0 01.608 1.784 2.198 2.198 0 01-.742 1.868zm7.717-1.327h3.548v-1.278h-3.548v-1.716h6.086v-1.327h-7.875v7.668h7.942v-1.442h-6.153v-1.905zm9.476 3.347h1.789v-2.915h3.237v-1.399h-3.237v-2.033h5.982v-1.333h-7.771v7.68zm10.565 0h1.789v-7.668h-1.79v7.668zm12.847-3.651v.414c0 .182 0 .481.055.913a4.775 4.775 0 00-.384-.408 7.226 7.226 0 00-.487-.426l-5.392-4.51h-1.217v7.668h1.607v-4.704a4.486 4.486 0 00-.055-.675c.087.105.18.204.28.298.103.097.219.207.359.328l5.642 4.747h1.217v-7.668h-1.607l-.018 4.023zm5.246 3.651h1.783v-7.668h-1.783v7.668zm4.558-6.311h3.518v6.311h1.826v-6.323h3.542v-1.357h-8.886v1.369zm11.636 6.311h1.79v-7.668h-1.79v7.668zm9.665-2.13l-3.11-5.538h-2.045l4.443 7.681h1.217l4.23-7.693h-1.765l-2.97 5.55zm9.269-1.217h3.548v-1.278h-3.548v-1.716h6.085v-1.327h-7.875v7.668h7.942v-1.442h-6.152v-1.905zm19.669 0h3.542v-1.278h-3.542v-1.716h6.086v-1.327h-7.875v7.668h7.911v-1.442h-6.146l.024-1.905zm17.649-3.347a4.801 4.801 0 00-3.25-.986h-4.942v7.68h4.486c.638.012 1.275-.035 1.905-.14a3.542 3.542 0 001.247-.456 3.313 3.313 0 001.248-1.357 4.102 4.102 0 00.444-1.935 3.506 3.506 0 00-1.12-2.806h-.018zm-1.479 4.674a4.49 4.49 0 01-2.617.609h-2.312v-4.869h3.17a2.676 2.676 0 011.893.608 2.345 2.345 0 01.639 1.784 2.226 2.226 0 01-.755 1.868h-.018zm5.928 2.02h1.777v-7.668h-1.789l.012 7.668zm4.564-6.311h3.524v6.311h1.789v-6.323h3.542v-1.357h-8.837l-.018 1.369zm11.63 6.311h1.79v-7.668h-1.79v7.668zm12.915-7.668h-5.654a2.177 2.177 0 00-1.509.384c-.311.408-.452.92-.396 1.43v4.053a2.02 2.02 0 00.396 1.436 2.22 2.22 0 001.509.378h5.654a2.226 2.226 0 001.515-.378c.31-.41.45-.925.389-1.436v-4.041a1.967 1.967 0 00-.389-1.43 2.231 2.231 0 00-1.515-.408v.012zm.127 6.238h-5.897v-4.868h5.897v4.868zm12.781-6.238v4.449c-.003.305.017.611.061.913a4.177 4.177 0 00-.39-.408 5.479 5.479 0 00-.487-.426l-5.416-4.528h-1.217v7.668h1.606v-4.704a4.359 4.359 0 00-.055-.675c.086.108.182.208.287.298.097.097.219.207.353.328l5.641 4.747h1.217v-7.668l-1.6.006z" fill="#000"/><path d="M234.746 223.96v7.668h-1.217l-5.642-4.747a11.132 11.132 0 01-.353-.328c-.104-.091-.2-.19-.286-.299.025.236.043.461.055.676.012.182.012.365 0 .548v4.15h-1.607v-7.668h1.218l5.404 4.528c.17.132.333.274.487.426.139.127.269.263.389.408-.03-.432-.049-.737-.061-.913-.012-.177 0-.323 0-.414v-4.035h1.613zm-14.496 0a2.204 2.204 0 011.515.383c.305.415.438.932.371 1.443v4.053a1.996 1.996 0 01-.389 1.436 2.228 2.228 0 01-1.516.378h-5.654a2.22 2.22 0 01-1.509-.378 2.019 2.019 0 01-.395-1.436v-4.053a1.997 1.997 0 01.395-1.43c.439-.31.976-.446 1.509-.384h5.654l.019-.012zm-5.788 6.25h5.897v-4.868h-5.897v4.868zm-5.313-6.25v7.668h-1.789v-7.668h1.789zm-4.565 0v1.369h-3.542v6.299h-1.789v-6.311h-3.523v-1.357h8.854zm-11.63 0v7.668h-1.789v-7.668h1.789zm-9.488 0a4.8 4.8 0 013.25.986 3.488 3.488 0 011.138 2.806 4.102 4.102 0 01-.444 1.935 3.31 3.31 0 01-1.247 1.357 3.555 3.555 0 01-1.248.456c-.629.105-1.267.152-1.905.14h-4.485v-7.68h4.941zm-3.158 6.238h2.313a4.487 4.487 0 002.616-.608 2.214 2.214 0 00.773-1.899 2.34 2.34 0 00-.639-1.783 2.671 2.671 0 00-1.892-.609h-3.171v4.899zm-5.185-6.238v1.309h-6.086v1.734h3.542v1.308h-3.542v1.905h6.147v1.443h-7.912v-7.699h7.863-.012zm-19.652 0v1.309h-6.085v1.734h3.548v1.308h-3.548v1.905h6.152v1.443h-7.948v-7.699H155.471zm-10.625 0l-4.224 7.68h-1.217l-4.449-7.68h2.045l3.11 5.55 2.97-5.55h1.765zm-12.623 0v7.668h-1.789v-7.668h1.789zm-4.57 0v1.369h-3.499v6.299h-1.826v-6.311h-3.524v-1.357h8.855-.006zm-11.624 0v7.668h-1.783v-7.668h1.783zm-5.423 0v7.668h-1.217l-5.641-4.747c-.14-.121-.256-.231-.359-.328a3.165 3.165 0 01-.28-.299c.024.236.042.461.054.676.013.182.013.365 0 .548v4.15h-1.606v-7.668h1.217l5.41 4.528c.183.146.347.292.487.426.136.128.264.265.384.408 0-.432-.049-.737-.055-.913-.006-.177 0-.323 0-.414v-4.035h1.606zm-12.664 0v7.668h-1.783v-7.668h1.789-.006zm-4.577 0v1.345h-5.982v2.021h3.237v1.399h-3.237v2.915h-1.79v-7.68h7.772zm-11.167 0v1.309h-6.086v1.734h3.548v1.308h-3.548v1.905h6.153v1.443h-7.912v-7.699h7.869-.024zm-15.544 0a4.828 4.828 0 013.256.986 3.54 3.54 0 011.138 2.806 4.26 4.26 0 01-.444 1.935 3.332 3.332 0 01-1.254 1.357 3.642 3.642 0 01-1.217.456c-.63.105-1.267.152-1.905.14h-4.485v-7.68h4.942-.03zm-3.122 6.238h2.307a4.491 4.491 0 002.617-.608 2.216 2.216 0 00.773-1.899 2.345 2.345 0 00-.609-1.783 2.672 2.672 0 00-1.893-.609h-3.164v4.869l-.03.03zm-10.96-6.238v1.309h-6.086v1.734h3.542v1.308h-3.53v1.905h6.147v1.443h-7.912v-7.699h7.839zm-11.515 0v7.668h-1.826v-3.304h-5.58v3.304h-1.79v-7.668h1.79v2.976h5.58v-2.976h1.826zm-11.953 0v1.369h-3.542v6.299h-1.825v-6.311h-3.53v-1.357H29.104zm206.421-.773h-3.128v4.358l-4.978-4.163-.213-.177h-2.258v9.202h3.128v-4.339l4.96 4.175.213.176h2.276v-9.232zm-15.251 0h-5.654a2.824 2.824 0 00-2.045.609c-.228.271-.4.585-.505.924a2.654 2.654 0 00-.103 1.048v4.053a2.645 2.645 0 00.608 1.978c.577.46 1.31.678 2.045.608h5.654a2.847 2.847 0 002.045-.608 2.645 2.645 0 00.608-1.978v-4.035a2.654 2.654 0 00-.103-1.048 2.656 2.656 0 00-.505-.924 2.814 2.814 0 00-2.045-.609v-.018zm-5.009 2.891h4.376v3.359h-4.376v-3.359zm-5.337-2.891h-3.311v9.226h3.311v-9.226zm-4.565 0h-10.394v2.891h3.524v6.335h3.31v-6.335h3.542v-2.891h.018zm-11.63 0h-3.31v9.226h3.31v-9.226zm-10.248 0h-5.703v9.226h5.246c.687.014 1.374-.037 2.051-.152a4.305 4.305 0 001.503-.56 4.107 4.107 0 001.528-1.649c.354-.71.534-1.495.523-2.288a4.262 4.262 0 00-1.399-3.378 5.557 5.557 0 00-3.749-1.199zm-2.398 2.891h2.434c.491-.045.981.099 1.37.402a1.635 1.635 0 01.401 1.217c0 .943-.353 1.217-.462 1.29-.262.195-.846.426-2.167.426h-1.552v-3.347l-.024.012zm-5.204-2.891h-9.384v9.226h9.458v-2.951h-6.159v-.384h3.542v-2.842h-3.542v-.195h6.085v-2.854zm-19.663 0h-9.39v9.226h9.463v-2.951h-6.153v-.384h3.548v-2.842h-3.548v-.195h6.086v-2.829l-.006-.025zm-10.072 0h-3.524l-.219.402-2.306 4.327-2.435-4.345-.219-.384h-3.804l.658 1.138 4.442 7.687.22.377h2.123l.22-.396 4.223-7.68.609-1.126h.012zm-13.152 0h-3.31v9.226h3.31v-9.226zm-4.57 0h-10.358v2.891h3.523v6.335h3.311v-6.335h3.512v-2.891h.012zm-11.63 0h-3.305v9.226h3.305v-9.226zm-5.423 0h-3.128v4.358l-4.954-4.163-.213-.177h-2.258v9.202h3.128v-4.339l4.954 4.175.213.176h2.258v-9.232zm-12.665 0h-3.31v9.226h3.31v-9.226zm-4.582 0h-9.293v9.226h3.31v-2.915h3.238v-2.921h-3.237v-.499h5.982v-2.891zm-11.168 0h-9.39v9.226h9.463v-2.951h-6.153v-.384h3.549v-2.842h-3.549v-.195h6.086v-2.829l-.006-.025zm-16.328 0h-5.703v9.226h5.247c.686.014 1.373-.037 2.05-.152a4.314 4.314 0 001.504-.56 4.111 4.111 0 001.527-1.649 5.07 5.07 0 00.53-2.288 4.258 4.258 0 00-1.4-3.378 5.578 5.578 0 00-3.755-1.199zm-2.392 2.891h2.434c.491-.045.98.099 1.37.402a1.635 1.635 0 01.401 1.217c0 .943-.346 1.217-.462 1.29-.262.195-.846.426-2.167.426H64.27v-3.347l-.03.012zm-10.954-2.891h-9.36v9.226h9.457v-2.951h-6.147v-.384h3.542v-2.842h-3.542v-.195h6.086v-2.829l-.036-.025zm-11.515 0h-3.298v2.976h-4.06v-2.976h-3.31v9.226h3.31v-3.304h4.06v3.304h3.323v-9.226h-.025zm-11.952 0h-10.34v2.891h3.53v6.335h3.304v-6.335h3.512v-2.891h-.006z" fill="url(#paint3_linear_15_375)"/><path d="M256.175 150.625a3.141 3.141 0 11-6.077-1.014 3.146 3.146 0 012.839-2.029h.11a3.057 3.057 0 012.864 1.8c.163.365.253.758.264 1.158v.085zm-5.478 0a2.368 2.368 0 002.289 2.435h.097a2.434 2.434 0 000-4.869 2.38 2.38 0 00-1.704.656 2.361 2.361 0 00-.73 1.675v.103h.048zm1.881 1.601h-.706v-3.043a6.255 6.255 0 011.175-.097c.367-.03.735.048 1.058.225a.827.827 0 01.299.669.783.783 0 01-.609.706v.043a.882.882 0 01.56.742c.025.266.102.524.225.761h-.797a2.95 2.95 0 01-.244-.742.528.528 0 00-.608-.487h-.365l.012 1.223zm0-1.728h.335c.395 0 .712-.128.712-.445 0-.316-.207-.468-.651-.468a2.099 2.099 0 00-.396.036v.877z" fill="#fff"/><defs><linearGradient id="paint0_linear_15_375" x1="25.928" y1="219.45" x2="236.371" y2="9.007" gradientUnits="userSpaceOnUse"><stop stop-color="#A68B56"/><stop offset=".12" stop-color="#987B52"/><stop offset=".25" stop-color="#E3D7B1"/><stop offset=".3" stop-color="#DFD1A0"/><stop offset=".34" stop-color="#DDCF9A"/><stop offset=".58" stop-color="#AC9467"/><stop offset=".69" stop-color="#987C52"/><stop offset="1" stop-color="#BAA46C"/></linearGradient><linearGradient id="paint1_linear_15_375" x1="34144.5" y1="-219.855" x2="35009.1" y2="9000.2" gradientUnits="userSpaceOnUse"><stop stop-color="#A68B56"/><stop offset=".12" stop-color="#987B52"/><stop offset=".25" stop-color="#E3D7B1"/><stop offset=".3" stop-color="#DFD1A0"/><stop offset=".34" stop-color="#DDCF9A"/><stop offset=".58" stop-color="#AC9467"/><stop offset=".69" stop-color="#987C52"/><stop offset="1" stop-color="#BAA46C"/></linearGradient><linearGradient id="paint2_linear_15_375" x1="99490.5" y1="4808.86" x2="89308.1" y2="-24704.1" gradientUnits="userSpaceOnUse"><stop stop-color="#A68B56"/><stop offset=".12" stop-color="#987B52"/><stop offset=".25" stop-color="#E3D7B1"/><stop offset=".3" stop-color="#DFD1A0"/><stop offset=".34" stop-color="#DDCF9A"/><stop offset=".58" stop-color="#AC9467"/><stop offset=".69" stop-color="#987C52"/><stop offset="1" stop-color="#BAA46C"/></linearGradient><linearGradient id="paint3_linear_15_375" x1="72.953" y1="282.336" x2="183.813" y2="171.475" gradientUnits="userSpaceOnUse"><stop stop-color="#7A6846"/><stop offset=".23" stop-color="#977B52"/><stop offset=".47" stop-color="#DACB95"/><stop offset=".59" stop-color="#BDA978"/><stop offset=".76" stop-color="#977B52"/><stop offset="1" stop-color="#C2AE7D"/></linearGradient></defs></svg>