<svg width="309" height="281" fill="none" xmlns="http://www.w3.org/2000/svg"><g clip-path="url(#clip0_14_106)"><path d="M305.088 280.49l-8.442-7.098v7.098h-3.374v-12.299h2.495l8.091 6.776c.129.1.246.2.357.299V268.191h3.351v12.299h-2.478zm-27.933 0c-1.247 0-2.091-.228-2.577-.708-.487-.48-.733-1.289-.733-2.478v-5.95c0-1.172.241-1.986.733-2.466.492-.48 1.33-.715 2.577-.715h8.313c1.254 0 2.098.235 2.584.715.486.48.732 1.289.732 2.466v5.95c0 1.172-.24 2.003-.732 2.478-.492.474-1.336.708-2.584.708h-8.313zm7.985-3.151v-6.12h-7.616v6.12h7.616zm-18.788 3.151v-12.299h3.65v12.299h-3.65zm-11.716 0v-9.271h-5.185v-3.046h14.06v3.046h-5.202v9.271h-3.673zm-11.717 0v-12.299h3.655v12.299h-3.655zm-17.868 0v-12.299h7.78c2.191 0 3.913.533 5.114 1.576a5.66 5.66 0 011.435 2.049c.321.781.463 1.623.416 2.466a6.67 6.67 0 01-.709 3.081 5.369 5.369 0 01-2.027 2.19 5.792 5.792 0 01-2.003.738c-.958.158-1.929.231-2.9.217l-7.106-.018zm6.538-3.151c1.693 0 2.882-.251 3.544-.743.662-.492.926-1.242.926-2.378a2.943 2.943 0 00-.151-1.207 2.906 2.906 0 00-.629-1.042 3.446 3.446 0 00-2.431-.75h-4.142v6.12h2.883zm-23.03 3.151v-12.299h12.59v2.928h-8.952v1.5h5.214v2.928h-5.214v1.757h9.04v3.151l-12.678.035zm-25.665 0v-12.299h12.589v2.928h-8.951v1.5h5.214v2.928h-5.214v1.757h9.039v3.151l-12.677.035zm-10.874 0l-7.123-12.299h4.194l4.259 7.614 4.066-7.614h3.79l-6.772 12.299h-2.414zm-12.431 0v-12.299h3.655v12.299h-3.655zm-11.049 0v-9.271h-5.185v-3.046h14.06v3.046h-5.208v9.271h-3.667zm-11.717 0v-12.299h3.656v12.299h-3.656zm-5.893 0l-8.437-7.098v7.098h-3.386v-12.299h2.496l8.09 6.776c.123.1.246.2.358.299V268.191h3.386v12.299h-2.507zm-19.521 0v-12.299h3.656v12.299h-3.656zm-15.349 0v-12.299h12.449v2.981h-8.787v1.945h4.757v3.086H99.71v4.287h-3.65zm-16.52 0v-12.299h12.583v2.928H83.19v1.5h5.214v2.928H83.19v1.757h9.04v3.151l-12.69.035zm-18.542 0v-12.299h7.78c2.19 0 3.913.533 5.114 1.576a5.687 5.687 0 011.851 4.515 6.682 6.682 0 01-.709 3.081 5.419 5.419 0 01-2.027 2.19 5.847 5.847 0 01-2.003.738 16.33 16.33 0 01-2.93.217l-7.076-.018zm6.538-3.151c1.687 0 2.882-.251 3.515-.743.632-.492.931-1.242.931-2.378a2.927 2.927 0 00-.785-2.249 3.427 3.427 0 00-2.425-.75H64.63v6.12h2.906zM36 280.49v-12.299h12.59v2.928h-8.934v1.5h5.214v2.928h-5.214v1.757h9.039v3.151L36 280.49zm-7.75 0v-4.861h-7.16v4.861h-3.679v-12.299h3.68v4.381h7.158v-4.381h3.68v12.299h-3.68zm-22.556 0v-9.271H.51v-3.046h14.06v3.046H9.373v9.271H5.694z" fill="url(#paint0_linear_14_106)"/><path d="M307.068 268.683v11.274h-1.798l-8.29-6.975a12.035 12.035 0 01-.521-.48 4.867 4.867 0 01-.422-.44c.041.352.065.68.082.99.018.311.029.586.029.808v6.097h-2.343v-11.274h1.793l7.95 6.659c.269.223.509.428.714.621.209.182.404.377.586.586l-.088-1.347c-.017-.264 0-.469 0-.586v-5.933h2.344-.036zm-21.564 0c1.101 0 1.839.193 2.226.586.386.392.586 1.077.586 2.102v5.951c0 1.037-.188 1.757-.586 2.114-.399.357-1.125.557-2.226.557h-8.349c-1.095 0-1.833-.182-2.22-.557-.387-.375-.586-1.077-.586-2.114v-5.968c0-1.025.194-1.722.586-2.103.393-.381 1.125-.586 2.22-.586h8.313l.036.018zm-8.518 9.166h8.664v-7.145h-8.664v7.145zm-7.499-9.166v11.274h-2.631v-11.274h2.631zm-6.515 0v2.021h-5.202v9.253h-2.625v-9.253h-5.184v-2.021h13.017-.006zm-16.895 0v11.274h-2.631v-11.274H246.077zm-13.258 0c2.074 0 3.667.484 4.78 1.453a5.18 5.18 0 011.676 4.099 6.14 6.14 0 01-.656 2.847 4.942 4.942 0 01-1.834 1.991 5.46 5.46 0 01-1.834.668c-.927.153-1.866.222-2.806.205h-6.596v-11.263h7.27zm-4.64 9.166h3.398c1.812 0 3.095-.281 3.849-.843.756-.586 1.131-1.488 1.131-2.788a3.454 3.454 0 00-.938-2.624 3.91 3.91 0 00-2.782-.89h-4.687v7.145h.029zm-7.616-9.166v1.903h-8.881v2.519h5.214v1.927h-5.214v2.794h9.039v2.131h-11.67v-11.274h11.565-.053zm-25.613 0v1.903h-8.934v2.519h5.22v1.927h-5.22v2.794h9.069v2.131h-11.717v-11.274H194.95zm-14.669 0l-6.169 11.274h-1.816l-6.503-11.274h2.999l4.576 8.164 4.359-8.164h2.618-.064zm-17.546 0v11.274h-2.631v-11.274h2.631zm-5.859 0v2.021h-5.202v9.253h-2.63v-9.253h-5.179v-2.021h13.011zm-16.901 0v11.274h-2.625v-11.274h2.625zm-7.03 0v11.274h-1.799l-8.289-6.975c-.2-.176-.375-.334-.528-.48a5.768 5.768 0 01-.416-.44c.036.352.065.68.082.99.018.311.03.586.03.808v6.097h-2.344v-11.274h1.799l7.95 6.659c.269.223.509.428.715.621.208.182.404.377.585.586l-.088-1.347c-.017-.264 0-.469 0-.586v-5.933h2.344-.041zm-18.325 0v11.274h-2.625v-11.274h2.625zm-6.556 0v1.98h-8.787v2.969h4.757v2.062h-4.757v4.263h-2.63v-11.274h11.423-.006zm-16.397 0v1.903H82.68v2.519h5.196v1.927h-5.214v2.794h9.04v2.131H80.049v-11.274H91.666zm-22.901 0c2.074 0 3.667.484 4.78 1.453a5.193 5.193 0 011.67 4.099 6.138 6.138 0 01-.65 2.847 4.94 4.94 0 01-1.84 1.991 5.362 5.362 0 01-1.828.668c-.927.153-1.866.222-2.806.205h-6.579v-11.263h7.265-.012zm-4.628 9.166h3.398c1.812 0 3.095-.281 3.849-.843.755-.586 1.13-1.488 1.13-2.788a3.455 3.455 0 00-.937-2.624 3.92 3.92 0 00-2.783-.89H64.11v7.145h.029zm-16.064-9.166v1.903H39.14v2.519h5.22v1.927h-5.22v2.794h9.045v2.131h-11.67v-11.274h11.56zm-16.661 0v11.274h-2.648v-4.855h-8.202v4.855h-2.636v-11.274h2.63v4.381h8.202v-4.381h2.654zm-17.376 0v2.021H8.834v9.253H6.21v-9.253H1.025v-2.021H14.06h-.023zm294.057-1.025h-4.412v6.472l-7.446-6.232-.281-.24h-3.193V281h4.412v-6.495l7.463 6.255.287.24h3.193v-13.342h-.023zm-22.626 0h-8.313c-1.388 0-2.343.281-2.929.861-.586.58-.884 1.511-.884 2.835v5.95c0 1.336.293 2.267.89 2.847.598.58 1.553.849 2.929.849h8.313c1.389 0 2.344-.275 2.93-.849.585-.574.884-1.511.884-2.847v-5.95c0-1.324-.287-2.249-.879-2.835-.591-.586-1.552-.861-2.929-.861h-.012zm-7.457 4.1h6.614v5.095h-6.614v-5.095zm-7.493-4.1h-4.687V281h4.687v-13.342zm-6.515 0h-15.068v4.1h5.185v9.271h4.687v-9.271h5.208v-4.1h-.012zm-16.901 0h-4.687V281h4.687v-13.342zm-14.26 0h-8.295V281h7.616a16.378 16.378 0 002.999-.223 6.36 6.36 0 002.18-.808 5.957 5.957 0 002.208-2.389 7.161 7.161 0 00.768-3.315 6.194 6.194 0 00-2.027-4.903c-1.301-1.13-3.14-1.704-5.454-1.704h.005zm-3.614 4.1h3.632a2.962 2.962 0 012.074.586 2.463 2.463 0 01.621 1.88c0 .966-.234 1.604-.721 1.967-.392.293-1.271.639-3.234.639h-2.372v-5.072zm-7.587-4.1h-13.615V281h13.721v-4.176h-9.04v-.744h5.226v-3.977h-5.214v-.468h8.934v-3.977h-.012zm-25.666 0h-13.609V281h13.721v-4.176h-9.046v-.744h5.22v-3.977h-5.22v-.468h8.934v-3.977zm-13.919 0h-4.968l-.287.545-3.48 6.483-3.656-6.524-.293-.527h-5.383l.89 1.54 6.532 11.292.293.51h3.017l.293-.528 6.204-11.292.838-1.522v.023zm-18.319 0h-4.687V281h4.687v-13.342zm-5.859 0h-15.05v4.1h5.179v9.271h4.687v-9.271h5.202v-4.1h-.018zm-16.901 0h-4.687V281h4.687v-13.342zm-7.03 0h-4.418v6.472l-7.446-6.232-.281-.24h-3.199V281h4.424v-6.495l7.44 6.255.287.24h3.193v-13.342zm-18.366 0h-4.687V281h4.687v-13.342zm-6.556 0H95.551V281h4.686v-4.281h4.757v-4.1h-4.757v-.92h8.788v-4.041zm-16.404 0H79.024V281h13.72v-4.176h-9.04v-.744h5.215v-3.977h-5.214v-.468h8.934v-3.977h-.018zm-23.86 0h-8.279V281h7.616a16.316 16.316 0 002.994-.223 6.339 6.339 0 002.185-.808 5.954 5.954 0 002.209-2.389 7.23 7.23 0 00.761-3.315 6.185 6.185 0 00-2.021-4.903c-1.306-1.13-3.14-1.704-5.454-1.704h-.012zm-3.598 4.1h3.632c.74-.072 1.48.137 2.074.586a2.477 2.477 0 01.604 1.874c0 .966-.235 1.605-.721 1.968-.392.292-1.271.638-3.234.638h-2.343v-5.066h-.012zm-16.064-4.1H35.49V281h13.72v-4.176h-9.045v-.744h5.22v-3.977h-5.22v-.468H49.1v-3.977zm-16.661 0h-4.687v4.381h-6.169v-4.381h-4.686V281h4.686v-4.855h6.158V281h4.686v-13.342h.012zm-17.37 0H0v4.1h5.185v9.271H9.87v-9.271h5.208v-4.1h-.011zM264.126 80.573V75.23h-26.521v2.208h-26.808a16.79 16.79 0 00-5.923 1.172 12.689 12.689 0 00-3.515 2.108c-3.62-3.122-8.401-3.297-9.373-3.297h-18.905a16.707 16.707 0 00-5.917 1.171 12.697 12.697 0 00-3.369 2.015 13.211 13.211 0 00-8.547-3.057h-6.31v-4.165h10.733v.035h83.09V1.171H216.14V13.36h-5.653c-2.025.05-4.025.46-5.906 1.212a12.747 12.747 0 00-3.638 2.202 12.26 12.26 0 00-1.681-1.212 15.333 15.333 0 00-7.575-2.144h-5.507l-50.886-.035c-2.025.04-4.026.447-5.905 1.2a12.775 12.775 0 00-3.457 2.091 14.594 14.594 0 00-9.373-3.32H59.803c-6.392.006-13.229 4.75-13.229 11.83V88.68h32.292c.7-.002 1.401-.043 2.097-.123V104.1h3.75v21.729a11.125 11.125 0 001.757 6.126h-.428c-1.03 0-6.327.176-10.012 3.854a11.038 11.038 0 00-3.21 7.994v36.401a11.07 11.07 0 001.81 6.225l-37.007-.943 11.13 58.569 213.663-7.028 7.616-45.684-41.425-1.048a10.9 10.9 0 006.315-10.103v-36.371a11.052 11.052 0 00-.796-4.331 11.057 11.057 0 00-2.426-3.675 13.782 13.782 0 00-7.551-3.602v-15.978h13.474v9.558a10.876 10.876 0 003.158 7.884c3.667 3.66 8.98 3.848 10.029 3.848h18.835c1.043 0 6.362-.164 10.047-3.831a10.895 10.895 0 003.181-7.901v-45.22h-18.747z" fill="#000"/><path d="M242.761 1.171v72.245h-83.09v-.035h-10.733v4.164h6.31a13.213 13.213 0 018.524 3.098 12.692 12.692 0 013.368-2.015 16.71 16.71 0 015.917-1.171h18.894c.996 0 5.776.176 9.373 3.297a12.69 12.69 0 013.515-2.108 16.788 16.788 0 015.923-1.172h26.808v-2.208h26.527v5.342h18.747v45.221a10.898 10.898 0 01-3.181 7.9c-3.685 3.667-9.005 3.819-10.047 3.831h-18.812c-1.048 0-6.362-.188-10.029-3.848a10.878 10.878 0 01-3.17-7.883v-9.594h-13.474v15.978a13.779 13.779 0 017.551 3.602 11.042 11.042 0 013.223 8.006v36.371a10.897 10.897 0 01-6.322 10.103l41.425 1.048-7.616 45.684-213.662 7.028-11.13-58.569 37.001.932a11.076 11.076 0 01-1.81-6.226v-36.4a11.042 11.042 0 013.21-7.995c3.515-3.514 8.553-3.854 9.866-3.854h.585a11.125 11.125 0 01-1.757-6.126v-21.729h-3.75V88.544c-.696.08-1.396.122-2.097.123H46.557V25.184c0-7.069 6.837-11.813 13.228-11.813h56.797a14.597 14.597 0 019.374 3.321 12.768 12.768 0 013.456-2.09 16.746 16.746 0 015.906-1.202l50.886.036h5.53c2.669.043 5.28.782 7.575 2.143.577.353 1.123.752 1.634 1.195a12.745 12.745 0 013.615-2.202 17.04 17.04 0 015.905-1.212h5.654V1.17H242.761zM243.909 0h-28.941v12.188h-4.481a18.383 18.383 0 00-6.351 1.283 14.238 14.238 0 00-3.193 1.804 11.634 11.634 0 00-1.072-.715 16.526 16.526 0 00-8.201-2.313h-5.537l-50.88-.036a18.017 18.017 0 00-6.35 1.289 14.433 14.433 0 00-2.947 1.687 16.086 16.086 0 00-9.374-2.999H59.814c-6.965 0-14.411 5.219-14.411 12.996V89.85H79.79v15.439h3.75v20.557a12.513 12.513 0 001.008 5.025c-2.18.211-6.246 1.025-9.374 4.1a12.184 12.184 0 00-3.556 8.826v36.401a12.577 12.577 0 001.025 4.996l-34.98-.879-1.453-.041.27 1.429 11.13 58.569.188.984 1.002-.036 213.667-7.028.961-.029.153-.949 7.615-45.683.223-1.33-1.347-.029-37.816-.955a11.997 11.997 0 003.837-9.025v-36.371a12.185 12.185 0 00-3.568-8.838 14.594 14.594 0 00-7.206-3.743v-13.834h11.131v8.387a12.04 12.04 0 003.515 8.715c3.996 3.989 9.749 4.188 10.856 4.188h18.835c2.05-.029 7.188-.504 10.873-4.176a12.014 12.014 0 003.515-8.727V79.401h-18.747V74.06h-21.366V0h-.023zM150.11 74.552h8.389v.035h77.917v1.68h-25.619a18.171 18.171 0 00-6.339 1.278 14.517 14.517 0 00-3.058 1.704c-3.831-2.823-8.459-2.975-9.373-2.975h-18.946c-2.181.037-4.337.47-6.362 1.277-1.035.42-2.018.959-2.93 1.604a14.57 14.57 0 00-8.541-2.776h-5.161v-1.821l.023-.006z" fill="url(#paint1_linear_14_106)"/><path d="M258.426 232.47l6.099-36.582-221.22-5.576 9.303 48.929 205.818-6.771z" fill="url(#paint2_linear_14_106)"/><path d="M45.11 191.824l217.716 5.487-5.642 33.73-203.375 6.694-8.7-45.911zm-1.758-1.512l9.257 48.929 205.817-6.771 6.099-36.582-221.214-5.576h.041z" fill="url(#paint3_linear_14_106)"/><path d="M210.516 67.705h26.533V6.882h-15.197V19.07h-11.336s-7.551.04-7.551 6.144v36.453c0 5.986 7.551 6.038 7.551 6.038zm7.616-36.43h3.685v24.523h-3.685V31.276zM86.318 76.603V19.07H59.803c-4.552 0-7.517 3.256-7.517 6.103v36.582c0 5.991 7.546 6.032 7.546 6.032h11.33v3.08H52.286v12.107h26.58c7.481-.018 7.493-6.372 7.493-6.372h-.041zM71.156 55.675h-3.679V31.27h3.68v24.405zm109.283-24.37h3.661v36.4h15.086V25.267c0-4.686-5.15-6.139-7.493-6.139-5.056 0-8.788 1.055-11.248 3.064v-3.058h-15.062v48.571h15.056v-36.4zm96.716 67.09V86.283h-18.747v-5.341h-15.091v5.341h-3.749v12.112h3.749v27.375c0 6.033 7.499 6.021 7.499 6.021h18.841s7.498.029 7.498-6.021V101.4h-15.003v18.285h-3.744v-21.29h18.747zm-39.89-3.045l.059-12.2h-26.521s-7.516.017-7.516 6.143v42.568h15.185V110.53h18.887V98.325h-18.917V95.35h18.823zm-37.804 30.455v-9.125h-15.103v3.075h-3.673v-6.132h18.782V89.276c0-6.132-7.505-6.12-7.505-6.12h-18.881s-7.505 0-7.505 6.137v36.518c0 6.021 7.516 6.038 7.516 6.038h18.87s7.505-.017 7.505-6.038l-.006-.006zm-18.782-30.456h3.673v6.051h-3.673v-6.05zm-90.26 30.456c0 5.998 7.51 6.044 7.51 6.044h18.841s7.504-.035 7.504-6.05v-24.358h-14.997v18.326h-3.75V98.395h18.747V86.283h-18.952v-5.552H90.219v5.552h-3.515v12.112h3.75l-.035 27.41zm14.898-76.274h3.649v27.323c0 6.032 7.616 6.038 7.616 6.038h11.571v48.969h15.097V95.426h3.65v36.435h15.085V89.387c0-6.126-6.696-6.126-6.696-6.126H143.25V70.804h-19.169V46.456a3.946 3.946 0 00-1.886-3.584s1.857-.703 1.863-2.46V25.267c0-6.139-7.499-6.197-7.499-6.197h-26.34v58.317h15.092l.006-27.856zm0-18.238h3.655v6.062h-3.655v-6.062zm30.012 36.377h26.363V25.231c0-6.132-7.505-6.132-7.505-6.132h-18.858s-7.504 0-7.504 6.132v9.002h15.091v-2.97h3.661v6.04h-11.248s-7.499 0-7.499 6.032v18.297c-.023 6.02 7.499 6.038 7.499 6.038zm7.616-18.203h3.662v6.12h-3.662v-6.12zm-38.08 88.169H86.031s-7.528 0-7.528 6.156v8.996h15.085v-2.97h3.667v6.039h-11.23s-7.499 0-7.499 6.038v18.297c0 6.015 7.499 6.032 7.499 6.032h26.363v-42.432c-.018-6.156-7.523-6.156-7.523-6.156zm-7.586 36.494h-3.667v-6.109h3.667v6.109zm37.669-.047h-3.649v-36.482h-15.074v42.497c0 6.085 7.487 6.126 7.487 6.126h18.817s7.487-.041 7.487-6.061v-42.498h-15.068v36.418zm37.77-38.93H157.62v5.517h-3.749v12.135h3.749v27.375c0 5.91 7.499 6.027 7.499 6.027h18.835s7.499-.035 7.499-6.027v-24.388h-14.992v18.285h-3.749v-21.26h18.747v-12.13h-18.747l.006-5.534zm48.976 2.53h-18.876s-7.51 0-7.51 6.12v36.371c0 6.033 7.51 6.033 7.51 6.033h18.876s7.522 0 7.522-6.033v-36.371c0-6.167-7.522-6.103-7.522-6.103v-.017zm-7.616 36.459h-3.667v-24.306h3.667v24.306z" fill="#fff"/><path d="M56.147 210.753h6.134v10.97h3.11v-10.97h6.158v-2.39H56.147v2.39zm32.807 2.794h-9.719v-5.184h-3.11v13.36h3.11v-5.752h9.707v5.752h3.135v-13.36h-3.135l.012 5.184zm12.303 2.342h6.169v-2.272h-6.204v-2.987h10.545v-2.273H98.111v13.36h13.785v-2.518h-10.674l.035-3.31zm23.433-5.142h6.134v10.97h3.111v-10.964h6.157v-2.39h-15.431l.029 2.384zm31.378 5.956a3.515 3.515 0 002.308-.62 2.48 2.48 0 00.715-1.974v-3.134a2.477 2.477 0 00-.715-1.979 3.552 3.552 0 00-2.308-.586h-11.43v13.36h3.058v-5.067h2.93l5.383 5.043h4.511l-6.198-5.043h1.746zm-8.372-2.29V210.7h6.995c.385-.038.772.044 1.107.234a.991.991 0 01.293.815v1.604a.998.998 0 01-.293.826 1.857 1.857 0 01-1.107.234h-6.995zm17.898 7.333h3.128v-13.383h-3.111l-.017 13.383zm12.232-13.359h-3.105v13.359h13.135v-2.518h-10.03v-10.841zm27.974 0h-9.836c-1.301 0-2.174.222-2.631.667-.457.446-.685 1.277-.685 2.49v7.028c0 1.224.228 2.056.685 2.501.457.445 1.33.662 2.631.662h9.836c1.295 0 2.173-.223 2.63-.662.457-.44.68-1.277.68-2.501v-7.028c0-1.213-.228-2.044-.68-2.49-.451-.445-1.335-.691-2.63-.691v.024zm.211 10.841h-10.252v-8.475h10.252v8.475zm21.348-10.841h-9.215c-1.301 0-2.174.222-2.631.667-.457.446-.685 1.277-.685 2.49v7.028c0 1.224.228 2.056.685 2.501.457.445 1.33.662 2.631.662h9.215c1.301 0 2.173-.223 2.63-.662.457-.44.68-1.277.68-2.501v-4.598h-8.102v2.273h5.085v2.969h-9.719v-8.463h9.713v1.488l3.017-.539v-.305c0-1.171-.228-1.938-.691-2.378-.463-.439-1.33-.656-2.613-.656v.024zm20.581 0l-4.605 5.13-4.587-5.13H234.6l6.942 7.379v5.98h3.134v-6.079l6.919-7.304-3.655.024z" fill="#000"/><path d="M251.595 208.363l-6.919 7.304v6.056h-3.134v-5.98l-6.942-7.38h4.148l4.587 5.131 4.604-5.131h3.656zm-24.236 0c1.283 0 2.156.217 2.619.656.462.44.691 1.23.691 2.378v.305l-3.017.539v-1.488h-9.719v8.451h9.713v-2.969h-5.085v-2.273h8.102v4.598c0 1.224-.223 2.056-.68 2.501-.456.445-1.329.662-2.63.662h-9.209c-1.301 0-2.174-.223-2.631-.662-.457-.439-.685-1.277-.685-2.501v-7.028c0-1.212.228-2.044.685-2.489.457-.445 1.33-.668 2.631-.668h9.215v-.012zm-21.559.012c1.295 0 2.173.223 2.63.668.457.445.68 1.277.68 2.489v7.028c0 1.224-.228 2.056-.68 2.501-.451.445-1.335.662-2.63.662h-9.836c-1.301 0-2.174-.223-2.631-.662-.457-.439-.685-1.277-.685-2.501v-7.028c0-1.212.228-2.044.685-2.489.457-.445 1.33-.668 2.631-.668h9.836zm-10.041 10.841h10.252v-8.463h-10.252V219.216zm-17.933-10.853v10.841h10.03v2.519h-13.135v-13.36h3.105zm-9.121 0v13.36h-3.111v-13.36h3.128-.017zm-12.619 0a3.56 3.56 0 012.308.586 2.491 2.491 0 01.714 1.98v3.133a2.478 2.478 0 01-.714 1.974 3.512 3.512 0 01-2.326.667h-1.758l6.21 5.02h-4.464l-5.413-5.02h-2.929v5.043h-3.058v-13.383H156.086zm-8.39 6.027h6.995c.385.038.771-.044 1.107-.234a1 1 0 00.293-.826v-1.605a.988.988 0 00-.293-.814 1.866 1.866 0 00-1.107-.234h-6.995v3.713zm-7.616-6.027v2.39h-6.174v10.97h-3.111v-10.97h-6.134v-2.39H140.08zm-28.29 0v2.273h-10.545v2.987h6.169v2.272h-6.192v3.309h10.674v2.519H98.111v-13.36h13.679zm-19.713 0v13.36h-3.135v-5.752h-9.707v5.752h-3.11v-13.36h3.11v5.184h9.707v-5.184h3.135zm-20.505 0v2.39h-6.18v10.97H62.28v-10.97h-6.134v-2.39H71.572zm182.062-.878h-6.087l-.264.293-3.942 4.398-3.937-4.398-.264-.293h-6.561l1.394 1.482 6.69 7.151v6.507h4.892v-6.607l6.679-7.028 1.4-1.482v-.023zm-26.275 0h-9.215c-1.553 0-2.613.299-3.246.919-.633.621-.949 1.646-.949 3.116v7.028c0 1.488.311 2.507.949 3.128.639.621 1.693.914 3.246.914h9.215c1.552 0 2.613-.299 3.24-.914.626-.615.949-1.64.949-3.128v-5.476h-3.609l2.888-.521.721-.129v-1.037c0-1.411-.317-2.401-.967-3.016-.65-.615-1.693-.896-3.222-.896v.012zm-8.542 4.146h7.956v1.453h-5.085v4.029h5.085v1.213h-7.956v-6.695zm-13.017-4.146h-9.836c-1.553 0-2.613.299-3.246.919-.633.621-.949 1.646-.949 3.116v7.028c0 1.488.311 2.507.949 3.128.639.621 1.693.914 3.246.914h9.836c1.547 0 2.607-.299 3.24-.914.632-.615.949-1.64.949-3.128v-7.028c0-1.47-.311-2.489-.943-3.116-.633-.626-1.694-.919-3.246-.919zm-9.163 4.146h8.495v6.695h-8.495v-6.695zm-17.956-4.146h-4.862v15.116h14.892v-4.275h-10.03v-10.841zm-9.121 0h-4.868v15.116h4.868v-15.116zm-13.515 0h-12.303v15.116h4.815v-5.042h1.723l5.132 4.802.252.24h7.276l-1.91-1.558-4.294-3.514c.8-.027 1.57-.31 2.197-.808a3.316 3.316 0 001.019-2.636v-3.133a3.314 3.314 0 00-1.019-2.641 4.295 4.295 0 00-2.883-.826h-.005zm-7.493 4.07h6.116c.173-.004.345.01.515.041a.695.695 0 010 .129v1.605a.83.83 0 010 .141 2.54 2.54 0 01-.515.041h-6.093v-1.957h-.023zm-7.616-4.07h-17.154v4.146h6.134v10.97h4.868v-10.97h6.158v-4.146h-.006zm-28.273 0H97.25v15.116h15.565v-4.275H102.1v-1.552h6.169v-4.03H102.1v-1.23h10.545v-4.029h.018zm-19.713 0h-4.892v5.183h-7.944v-5.183h-4.869v15.116h4.869v-5.751h7.95v5.751h4.891v-15.116h-.005zm-20.505 0H55.268v4.146h6.134v10.97h4.868v-10.97h6.157v-4.146h.018z" fill="url(#paint4_linear_14_106)"/><path d="M241.331 142.714a1.917 1.917 0 01-1.15 1.812 1.922 1.922 0 11-.765-3.68 1.884 1.884 0 011.348.534 1.867 1.867 0 01.567 1.334zm-3.362 0a1.429 1.429 0 00.411 1.057 1.438 1.438 0 001.047.436c.192 0 .382-.039.558-.115a1.421 1.421 0 00.866-1.366 1.44 1.44 0 10-2.882 0v-.012zm1.171.978h-.433v-1.868c.235-.043.475-.063.714-.059.226-.02.453.029.651.141a.501.501 0 01.181.41.476.476 0 01-.386.433.55.55 0 01.345.451c.015.163.06.322.135.469h-.469a1.595 1.595 0 01-.146-.457c-.035-.205-.147-.293-.387-.293h-.205v.773zm0-1.06h.205c.24 0 .434-.076.434-.27 0-.193-.129-.287-.399-.287a1.07 1.07 0 00-.24 0v.557z" fill="#fff"/></g><defs><linearGradient id="paint0_linear_14_106" x1=".51" y1="274.329" x2="307.578" y2="274.329" gradientUnits="userSpaceOnUse"><stop stop-color="#A48955"/><stop offset=".12" stop-color="#977B52"/><stop offset=".25" stop-color="#E2D6B0"/><stop offset=".3" stop-color="#DED09F"/><stop offset=".34" stop-color="#DCCE99"/><stop offset=".58" stop-color="#AB9467"/><stop offset=".69" stop-color="#977C52"/><stop offset="1" stop-color="#B8A36C"/></linearGradient><linearGradient id="paint1_linear_14_106" x1="36.199" y1="122.631" x2="284.039" y2="122.631" gradientUnits="userSpaceOnUse"><stop offset=".09" stop-color="#977B52"/><stop offset=".61" stop-color="#DACB95"/><stop offset=".69" stop-color="#C4B17F"/><stop offset=".81" stop-color="#AB9366"/><stop offset=".91" stop-color="#9C8157"/><stop offset=".98" stop-color="#977B52"/></linearGradient><linearGradient id="paint2_linear_14_106" x1="36502.5" y1="23256" x2="39816.5" y2="5398.89" gradientUnits="userSpaceOnUse"><stop stop-color="#A48955"/><stop offset=".12" stop-color="#977B52"/><stop offset=".25" stop-color="#E2D6B0"/><stop offset=".3" stop-color="#DED09F"/><stop offset=".34" stop-color="#DCCE99"/><stop offset=".58" stop-color="#AB9467"/><stop offset=".69" stop-color="#977C52"/><stop offset="1" stop-color="#B8A36C"/></linearGradient><linearGradient id="paint3_linear_14_106" x1="96788.8" y1="14647.6" x2="73602.5" y2="52804.2" gradientUnits="userSpaceOnUse"><stop offset=".09" stop-color="#977B52"/><stop offset=".61" stop-color="#DACB95"/><stop offset=".69" stop-color="#C4B17F"/><stop offset=".81" stop-color="#AB9366"/><stop offset=".91" stop-color="#9C8157"/><stop offset=".98" stop-color="#977B52"/></linearGradient><linearGradient id="paint4_linear_14_106" x1="55.268" y1="215.04" x2="253.634" y2="215.04" gradientUnits="userSpaceOnUse"><stop offset=".25" stop-color="#977B52"/><stop offset=".44" stop-color="#7A6846"/><stop offset=".98" stop-color="#DACB95"/></linearGradient><clipPath id="clip0_14_106"><path fill="#fff" d="M0 0h308.094v281H0z"/></clipPath></defs></svg>