<svg width="60" height="55" fill="none" xmlns="http://www.w3.org/2000/svg"><g clip-path="url(#clip0_14_57)"><path d="M59.247 54.596a1.364 1.364 0 01-2.224-1.49 1.366 1.366 0 011.526-.817 1.364 1.364 0 011.099 1.339 1.316 1.316 0 01-.4.968zm-1.8-1.798a1.182 1.182 0 000 1.66 1.173 1.173 0 001.657 0 1.18 1.18 0 00-.85-1.932 1.175 1.175 0 00-.807.272zm.806.075c.14-.007.28.012.414.055a.375.375 0 01.232.382.324.324 0 01-.146.299.68.68 0 01-.215.072.364.364 0 01.257.143c.049.068.078.149.082.233v.221a.334.334 0 000 .078v.019h-.245v-.183c0-.174-.047-.29-.144-.343a.675.675 0 00-.295-.047h-.202v.587h-.263v-1.502l.525-.014zm.276.246a.657.657 0 00-.32-.055h-.218v.536h.24a.684.684 0 00.257-.036.26.26 0 00.055-.453l-.014.008z" fill="#000"/><path d="M49.273 0H10.565C4.741 0 0 4.608 0 10.268V44.71c0 5.737 4.598 10.235 10.469 10.235h38.707c5.871 0 10.472-4.498 10.472-10.235V10.268C59.648 4.512 55.092 0 49.273 0zm9.198 44.707c0 5.079-4.081 9.06-9.295 9.06H10.47c-5.222 0-9.295-3.976-9.295-9.06V10.265c0-5.098 4.142-9.09 9.389-9.09h38.71c5.158 0 9.198 3.992 9.198 9.09v34.442z" fill="#000"/><path d="M49.273 1.176H10.565c-5.263 0-9.389 3.991-9.389 9.09v34.441c-.002 5.084 4.07 9.06 9.293 9.06h38.707c5.214 0 9.295-3.981 9.295-9.06V10.265c0-5.098-4.04-9.09-9.198-9.09z" fill="#FCAF17"/><path d="M51.223 32.696H43.75l-1.184-7.468-4.38 7.413h-.829a6.41 6.41 0 01-.696-2.882c0-1.273.094-2.518.094-4.15 0-2.146-.63-3.297-2.311-3.7v-.056c3.573-.498 5.194-2.866 5.194-6.202 0-4.736-3.145-5.765-7.268-5.765H21.286l-4.695 22.24h5.901l1.707-8.09h3.918c2.09 0 2.947 1.023 2.947 2.984 0 1.491-.155 2.672-.155 3.82 0 .426.097 1.414.381 1.795l4.261 4.507-3.664 7.897 7.84-4.653 5.838 4.49-1.105-7.45 6.763-4.73zM29.879 19.878h-4.694l1.132-5.361h4.36c1.552 0 3.165.404 3.165 2.307 0 2.398-1.836 3.054-3.963 3.054z" fill="#000"/><path d="M47.782 33.783h-4.957l-.859-5.402-3.16 5.35h-5l3.04 3.209-2.499 5.377 5.462-3.25 4.303 3.314-.801-5.464 4.47-3.134z" fill="#fff"/></g><defs><clipPath id="clip0_14_57"><path fill="#fff" d="M0 0h59.648v55H0z"/></clipPath></defs></svg>