<svg width="33" height="17" fill="none" xmlns="http://www.w3.org/2000/svg"><path d="M7.182 7.68c.448 0 .895-.028 1.338-.087a3.487 3.487 0 001.133-.337c.323-.164.593-.409.783-.708.197-.304.296-.703.296-1.196s-.099-.892-.296-1.197a2.006 2.006 0 00-.783-.706 3.504 3.504 0 00-1.133-.337c-.443-.06-.89-.088-1.338-.087h-3.14V7.68h3.14zM8.29.37c1.149 0 2.127.142 2.935.425.807.282 1.464.656 1.97 1.12.49.442.868.985 1.106 1.588a5.063 5.063 0 010 3.687 4.215 4.215 0 01-1.107 1.6c-.506.464-1.163.837-1.97 1.12-.806.283-1.784.424-2.934.424H4.041v5.569H0V.37h8.29zM28.076 4.514a3.707 3.707 0 00-.902-.859 4.432 4.432 0 00-1.223-.576 4.91 4.91 0 00-1.427-.21c-.91 0-1.682.15-2.317.447a4.193 4.193 0 00-1.545 1.196c-.399.51-.691 1.09-.86 1.708a7.262 7.262 0 00-.273 1.98c-.001.644.09 1.285.27 1.904.173.603.466 1.168.862 1.664.41.506.94.912 1.544 1.186.636.297 1.408.446 2.318.446 1.234 0 2.2-.32 2.896-.958.697-.638 1.122-1.48 1.275-2.523h3.915a6.931 6.931 0 01-.804 2.637 6.455 6.455 0 01-1.699 2 7.565 7.565 0 01-2.471 1.263c-1.008.3-2.06.446-3.115.435-1.409 0-2.675-.207-3.797-.62-1.123-.414-2.071-.983-2.845-1.708a7.396 7.396 0 01-1.776-2.553 8.079 8.079 0 01-.615-3.172c-.01-1.104.2-2.2.618-3.229a7.572 7.572 0 011.776-2.6c.776-.739 1.724-1.32 2.845-1.741 1.12-.422 2.387-.632 3.798-.63.97-.006 1.936.119 2.87.37.863.229 1.68.593 2.42 1.076a6.225 6.225 0 011.764 1.752c.473.725.772 1.542.875 2.393h-3.915a2.536 2.536 0 00-.463-1.078z" fill="#fff"/></svg>