<svg width="186" height="22" fill="none" xmlns="http://www.w3.org/2000/svg"><path d="M161.636 5.718V4.495a.089.089 0 00-.026-.065.096.096 0 00-.066-.028h-8.669c-2.513 0-3.745 1.543-3.745 3.55v6.102c0 1.242-.592 2.139-1.842 2.139h-8.147a.098.098 0 00-.036.006.1.1 0 00-.03.02.078.078 0 00-.02.03.087.087 0 00-.007.037v1.225c0 .025.01.049.028.066a.092.092 0 00.066.027h9.086c2.518 0 3.745-1.538 3.745-3.544V7.955c0-1.244.593-2.139 1.842-2.139h7.729a.094.094 0 00.068-.03.097.097 0 00.019-.031.078.078 0 00.005-.037zM135.938 4.403h-15.682a.092.092 0 00-.092.092v1.222c0 .012.002.024.007.036a.09.09 0 00.051.05.089.089 0 00.036.006h14.738c1.249 0 1.842.896 1.842 2.14 0 1.243-.592 2.138-1.842 2.138h-11.659c-1.81 0-3.173 1.514-3.173 3.522v3.897c0 .013.002.025.007.036a.078.078 0 00.02.03.099.099 0 00.03.02.096.096 0 00.036.007h2.657c.025 0 .049-.01.066-.027a.091.091 0 00.028-.066V13.61c0-1.243.72-2.112 1.752-2.112h11.174c2.514 0 3.745-1.537 3.745-3.544 0-2.008-1.227-3.55-3.741-3.55zM182.121 14.78h-2.659a.097.097 0 01-.067-.028.1.1 0 01-.029-.066v-8.88c0-1.364-.948-1.81-2.28-.992l-15.981 9.767c-.628.384-.838.818-.687 1.138.132.277.476.468 1.167.468h14.842a.093.093 0 01.084.07v1.247c0 .024.01.048.027.066a.097.097 0 00.066.029h2.672a.095.095 0 00.092-.096v-1.222c0-.025.01-.049.027-.066a.1.1 0 01.067-.03h2.66a.095.095 0 00.096-.093V14.87a.096.096 0 00-.097-.09zm-5.605-.1a.093.093 0 01-.027.066.095.095 0 01-.066.03h-12.441c-.101 0-.155-.026-.169-.062-.015-.058.018-.1.091-.151l12.382-7.588c.087-.052.23-.044.23.122v7.583zM184.801 15.4c.657 0 1.1.489 1.1 1.1 0 .611-.443 1.1-1.1 1.1s-1.11-.482-1.11-1.1c0-.618.452-1.1 1.11-1.1zm0 2.037c.558 0 .928-.418.928-.937 0-.519-.369-.932-.928-.932-.568 0-.933.419-.933.932 0 .513.364.938.933.938zm-.438-1.576h.506c.235 0 .407.068.407.33a.3.3 0 01-.235.309v.005c.083.021.141.084.184.23.044.146.089.278.123.399h-.234c-.032-.094-.073-.257-.1-.346-.036-.147-.078-.194-.271-.194h-.151v.54h-.229V15.86zm.23.571h.203c.162 0 .261-.06.261-.21 0-.172-.12-.199-.246-.199h-.219l.001.41zM109.372 0h-.52v22h.52V0zM62.948 17.6c.945 0 1.85-.373 2.52-1.038a3.54 3.54 0 001.044-2.506V7.948c0-.567.227-1.111.63-1.512s.95-.627 1.52-.627h6.916a.095.095 0 00.095-.094V4.493a.094.094 0 00-.095-.093h-8.334c-.945 0-1.852.374-2.52 1.04a3.54 3.54 0 00-1.044 2.508v6.108c0 .567-.227 1.11-.63 1.512-.403.401-.95.627-1.52.627h-6.818a.095.095 0 00-.094.094v1.222a.094.094 0 00.094.094l8.236-.005zM78.525 9.359V4.495a.094.094 0 01.094-.094h18.832a.095.095 0 01.095.094v1.222a.094.094 0 01-.095.094h-16a.095.095 0 00-.087.058.094.094 0 00-.007.036v3.17c0 .269.108.527.299.717.191.19.45.297.721.297h11.91a3.788 3.788 0 012.67 1.1 3.757 3.757 0 011.104 2.656 3.74 3.74 0 01-1.105 2.656 3.775 3.775 0 01-2.668 1.1h-15.67a.095.095 0 01-.094-.093v-1.223a.094.094 0 01.094-.094H92.87c.624 0 1.223-.245 1.665-.684a2.341 2.341 0 00.694-1.654c.004-1.295-1.075-2.355-2.377-2.355H80.674a2.159 2.159 0 01-1.52-.627 2.139 2.139 0 01-.629-1.512zM50.564 10.086c.57 0 1.116-.225 1.52-.626a2.134 2.134 0 000-3.025 2.154 2.154 0 00-1.52-.626H36.117a.095.095 0 01-.095-.094V4.492a.094.094 0 01.094-.092H51.98a3.579 3.579 0 012.52 1.04 3.548 3.548 0 011.045 2.508 3.535 3.535 0 01-1.044 2.509 3.565 3.565 0 01-2.52 1.04H41.002c-.57 0-1.116.225-1.52.626-.402.4-.629.945-.629 1.512v3.87a.094.094 0 01-.094.095h-2.643a.095.095 0 01-.095-.094v-3.872a3.533 3.533 0 011.044-2.508 3.565 3.565 0 012.52-1.04h10.978zM99.979 16.284h-.444v-.15h1.056v.15h-.433V17.6h-.18v-1.316zM101.515 17.438h.003l.416-1.305h.307V17.6h-.174v-1.331h-.004l-.437 1.331h-.225l-.423-1.331h-.004V17.6h-.17v-1.467h.304l.407 1.305zM10.704 0v20.528L15.374 22V4.788c0-.81.363-1.35.946-1.161.762.21.91.957.91 1.76v6.87c2.907 1.4 5.195 0 5.195-3.695 0-3.775-1.342-5.457-5.29-6.81C15.579 1.237 12.694.368 10.706 0z" fill="#fff"/><path d="M16.262 18.999l7.498-2.657c.849-.313.978-.738.291-.961-.695-.225-1.94-.164-2.798.141l-4.991 1.754v-2.793l.286-.094s1.445-.509 3.478-.728c2.032-.22 4.515.028 6.47.761 2.202.697 2.45 1.711 1.892 2.42-.558.708-1.936 1.205-1.936 1.205L16.26 21.69 16.262 19zM2.149 18.716c-2.258-.627-2.635-1.949-1.605-2.713.95-.698 2.569-1.222 2.569-1.222l6.692-2.374v2.702l-4.813 1.714c-.85.306-.982.73-.293.954.698.232 1.938.17 2.79-.143l2.314-.829v2.413l-.467.075a15.056 15.056 0 01-7.187-.577zM26.805 19.8c.657 0 1.1.489 1.1 1.1 0 .611-.443 1.1-1.1 1.1s-1.11-.482-1.11-1.1c0-.618.453-1.1 1.11-1.1zm0 2.037c.557 0 .928-.418.928-.937 0-.519-.369-.932-.928-.932-.568 0-.933.419-.933.932 0 .513.365.938.933.938zm-.438-1.576h.505c.235 0 .407.068.407.33a.296.296 0 01-.234.31v.004c.083.021.14.084.184.23.044.146.088.278.123.399h-.235c-.031-.094-.073-.257-.1-.346-.035-.147-.077-.194-.27-.194h-.15v.54h-.23V20.26zm.23.571h.203c.161 0 .26-.06.26-.21 0-.172-.12-.199-.245-.199h-.218v.41z" fill="#fff"/></svg>