<?xml version="1.0" encoding="utf-8"?><svg viewBox="0 0 502.66 502.66" xmlns="http://www.w3.org/2000/svg" xmlns:xlink="http://www.w3.org/1999/xlink"><style>:root>svg{display:none}:root>svg:target{display:block}</style><svg fill="none" viewBox="0 0 172 22" id="Group_17" xmlns="http://www.w3.org/2000/svg"><path d="M10.896 8.822a.067.067 0 01.036.018c3.258 2.502 8.838 8.692 7.137 10.44A10.837 10.837 0 0110.895 22c-2.638 0-5.187-.966-7.173-2.72-1.7-1.748 3.878-7.938 7.136-10.44a.071.071 0 01.038-.018zm5.676-7.211C14.903.61 13.095 0 10.896 0 8.696 0 6.89.611 5.22 1.61a.042.042 0 00-.018.054.043.043 0 00.052.019c2.11-.46 5.315 1.38 5.619 1.564a.036.036 0 00.046 0c.303-.183 3.511-2.024 5.619-1.564a.043.043 0 00.052-.019.042.042 0 00-.018-.054zM3.27 3.156a.19.19 0 00-.049.038A11.043 11.043 0 00.026 10.24c-.183 2.663.6 5.301 2.202 7.424a.047.047 0 00.06.018.045.045 0 00.013-.057c-.832-2.592 3.414-8.878 5.607-11.514a.05.05 0 00.015-.032.049.049 0 00-.019-.036C4.581 2.707 3.45 3.06 3.27 3.156zm10.619 2.888a.048.048 0 00-.02.037.05.05 0 00.016.031c2.193 2.635 6.44 8.921 5.608 11.513a.046.046 0 00.012.057.046.046 0 00.06-.018 11.07 11.07 0 002.202-7.424 11.043 11.043 0 00-3.194-7.046.19.19 0 00-.049-.038c-.181-.095-1.311-.45-4.635 2.888zM37.92 17.777h-2.23l-3.838-5.332-3.838 5.332h-2.227l4.953-6.882-4.566-6.342h2.229l3.45 4.793 3.45-4.793h2.228l-4.564 6.341 4.953 6.883zm11.572-3.76c0 1.161-.381 2.088-1.134 2.756-.753.667-1.846 1.004-3.25 1.004h-6.142v-5.89h-2.918l1.214-1.686h1.704V4.553h5.885c1.319 0 2.345.32 3.048.95.703.63 1.061 1.47 1.061 2.495 0 1.272-.571 2.236-1.695 2.867.727.284 1.285.701 1.658 1.242.382.56.58 1.228.569 1.909v.001zm-8.525-3.816h3.753c.756 0 1.332-.171 1.707-.51.375-.337.566-.85.566-1.527 0-.584-.198-1.046-.59-1.375-.39-.328-.955-.495-1.68-.495h-3.754l-.002 3.907zm6.506 3.778c0-.694-.208-1.222-.617-1.569-.41-.346-1.036-.523-1.859-.523h-4.03v4.147h4.03c.8 0 1.418-.18 1.84-.533.423-.354.636-.864.636-1.522zm15.474-2.815c0 1.023-.148 1.96-.438 2.789a6.354 6.354 0 01-1.31 2.205 5.76 5.76 0 01-2.042 1.436c-.77.317-1.642.478-2.594.478-.964 0-1.842-.16-2.612-.478a5.59 5.59 0 01-2.024-1.435 6.258 6.258 0 01-1.325-2.196c-.292-.829-.44-1.773-.44-2.799s.148-1.961.44-2.793a6.432 6.432 0 011.325-2.219 5.582 5.582 0 012.024-1.421c.77-.314 1.648-.474 2.612-.474.952 0 1.825.16 2.593.474A5.767 5.767 0 0161.2 6.15a6.453 6.453 0 011.31 2.221c.29.83.437 1.772.437 2.792zm-10.715 0c0 1.556.4 2.804 1.188 3.71.775.916 1.831 1.382 3.14 1.382 1.309 0 2.365-.466 3.14-1.382.775-.894 1.169-2.14 1.169-3.71 0-1.57-.394-2.822-1.169-3.727-.787-.905-1.844-1.364-3.14-1.364-1.297 0-2.353.46-3.14 1.364-.785.93-1.186 2.184-1.186 3.727h-.002zm17.03-.27l4.564-6.34H71.6l-3.45 4.792-3.45-4.793H62.47l4.563 6.341-4.95 6.882h2.229l3.838-5.333 3.837 5.333h2.23l-4.955-6.882zm21.611-4.522v3.831h6.507v1.687h-6.503v4.072h7.356v1.816h-9.356V4.553h9.356V6.37l-7.36.002zm-4.6 5.28c-.654-.604-1.74-1.072-3.228-1.393l-1.138-.24c-1.08-.233-1.83-.519-2.23-.849-.396-.305-.597-.76-.597-1.354 0-.583.226-1.04.67-1.355.445-.316 1.104-.478 1.952-.478 1.09 0 1.892.2 2.382.597.49.397.767 1.024.827 1.866v.018h1.981v-.02c-.024-1.295-.474-2.328-1.336-3.07-.863-.74-2.165-1.115-3.874-1.115-1.416 0-2.556.329-3.387.978-.83.65-1.255 1.528-1.255 2.617s.348 1.952 1.034 2.57c.686.618 1.712 1.067 3.054 1.337l1.118.241c1.105.245 1.877.528 2.304.84.428.312.634.755.634 1.327 0 .705-.26 1.252-.771 1.623-.512.37-1.26.56-2.217.56-1.158 0-2.043-.247-2.63-.733-.587-.485-.892-1.23-.908-2.207v-.029h-2v.02c.012 1.517.505 2.689 1.465 3.477.96.788 2.318 1.19 4.038 1.19 1.587 0 2.845-.357 3.744-1.06.899-.703 1.356-1.68 1.356-2.904 0-1.023-.332-1.85-.987-2.456l-.002.003zm23.994 4.494l-.129-2.054c-.024-.729-.185-1.321-.48-1.76-.285-.428-.737-.737-1.345-.925.67-.226 1.2-.611 1.574-1.145.386-.55.582-1.237.582-2.04 0-1.136-.407-2.041-1.211-2.688-.804-.648-1.912-.978-3.304-.978h-5.724v13.22h2.002v-5.425h3.777c.749 0 1.3.175 1.634.521.334.347.528.95.564 1.793l.055 1.405c.012.766.143 1.337.389 1.696l.005.009h2.058l-.017-.03c-.223-.39-.368-.928-.429-1.601l-.001.002zm-8.032-9.852h3.612c.823 0 1.464.18 1.905.533.44.354.664.884.664 1.578 0 .72-.217 1.284-.645 1.671-.428.387-1.029.588-1.775.588h-3.76l-.001-4.37zm10.043 11.482h2.001V4.553h-2.001v13.223zM125.636 6.37V4.553h-9.356v13.223h9.356v-1.817h-7.353v-4.072h6.506v-1.686h-6.506V6.37h7.353zm10.663 5.28c-.654-.604-1.74-1.073-3.228-1.393l-1.137-.24c-1.08-.234-1.831-.52-2.23-.85-.397-.305-.598-.759-.598-1.354 0-.583.225-1.039.67-1.355.445-.316 1.104-.478 1.952-.478 1.089 0 1.892.201 2.382.598.49.397.767 1.024.827 1.866v.018h1.981v-.02c-.025-1.296-.475-2.328-1.337-3.07-.862-.741-2.165-1.115-3.874-1.115-1.416 0-2.555.328-3.387.978-.831.65-1.254 1.528-1.254 2.617s.348 1.951 1.033 2.57c.686.617 1.712 1.066 3.054 1.337l1.118.24c1.106.245 1.881.528 2.304.84.424.313.635.756.635 1.327 0 .706-.26 1.252-.772 1.623s-1.26.561-2.217.561c-1.158 0-2.042-.248-2.629-.733-.588-.485-.892-1.23-.908-2.207v-.027h-2.001v.02c.012 1.517.505 2.689 1.465 3.477.961.788 2.318 1.19 4.039 1.19 1.586 0 2.845-.357 3.744-1.06.899-.703 1.356-1.68 1.356-2.904 0-1.023-.333-1.85-.988-2.456zm21.303-8.75H156.6v16.528h1l.002-16.528zm-9.161 7.994l4.564-6.34h-2.23l-3.45 4.792-3.451-4.793h-2.225l4.564 6.341-4.953 6.882h2.229l3.838-5.333 3.838 5.333h2.227l-4.951-6.882zm21.988.756c-.653-.604-1.739-1.073-3.228-1.393l-1.137-.24c-1.08-.234-1.83-.52-2.23-.85-.396-.305-.598-.758-.598-1.354 0-.583.226-1.039.671-1.355.445-.316 1.103-.478 1.951-.478 1.09 0 1.893.201 2.382.598.489.397.77 1.024.83 1.866v.018h1.982v-.02c-.024-1.296-.474-2.328-1.336-3.07-.863-.741-2.165-1.115-3.874-1.115-1.417 0-2.556.328-3.387.978-.831.65-1.255 1.528-1.255 2.617s.348 1.951 1.034 2.57c.686.617 1.711 1.066 3.053 1.337l1.119.24c1.104.245 1.88.528 2.304.84.423.313.633.756.633 1.327 0 .706-.259 1.252-.771 1.623s-1.26.561-2.217.561c-1.158 0-2.043-.248-2.629-.733-.587-.485-.892-1.23-.908-2.207v-.027h-2.004v.02c.012 1.517.504 2.689 1.465 3.477.96.788 2.317 1.19 4.038 1.19 1.586 0 2.845-.357 3.744-1.06.9-.703 1.356-1.68 1.356-2.904 0-1.023-.333-1.85-.988-2.456z" fill="#fff"/></svg><svg fill="none" viewBox="0 0 172 22" id="Vector" xmlns="http://www.w3.org/2000/svg"><path d="M10.896 8.822a.067.067 0 01.036.018c3.258 2.502 8.838 8.692 7.137 10.44A10.837 10.837 0 0110.895 22c-2.638 0-5.187-.966-7.173-2.72-1.7-1.748 3.878-7.938 7.136-10.44a.071.071 0 01.038-.018zm5.676-7.211C14.903.61 13.095 0 10.896 0 8.696 0 6.89.611 5.22 1.61a.042.042 0 00-.018.054.043.043 0 00.052.019c2.11-.46 5.315 1.38 5.619 1.564a.036.036 0 00.046 0c.303-.183 3.511-2.024 5.619-1.564a.043.043 0 00.052-.019.042.042 0 00-.018-.054zM3.27 3.156a.19.19 0 00-.049.038A11.043 11.043 0 00.026 10.24c-.183 2.663.6 5.301 2.202 7.424a.047.047 0 00.06.018.045.045 0 00.013-.057c-.832-2.592 3.414-8.878 5.607-11.514a.05.05 0 00.015-.032.049.049 0 00-.019-.036C4.581 2.707 3.45 3.06 3.27 3.156zm10.619 2.888a.048.048 0 00-.02.037.05.05 0 00.016.031c2.193 2.635 6.44 8.921 5.608 11.513a.046.046 0 00.012.057.046.046 0 00.06-.018 11.07 11.07 0 002.202-7.424 11.043 11.043 0 00-3.194-7.046.19.19 0 00-.049-.038c-.181-.095-1.311-.45-4.635 2.888zM37.92 17.777h-2.23l-3.838-5.332-3.838 5.332h-2.227l4.953-6.882-4.566-6.342h2.229l3.45 4.793 3.45-4.793h2.228l-4.564 6.341 4.953 6.883zm11.572-3.76c0 1.161-.381 2.088-1.134 2.756-.753.667-1.846 1.004-3.25 1.004h-6.142v-5.89h-2.918l1.214-1.686h1.704V4.553h5.885c1.319 0 2.345.32 3.048.95.703.63 1.061 1.47 1.061 2.495 0 1.272-.571 2.236-1.695 2.867.727.284 1.285.701 1.658 1.242.382.56.58 1.228.569 1.909v.001zm-8.525-3.816h3.753c.756 0 1.332-.171 1.707-.51.375-.337.566-.85.566-1.527 0-.584-.198-1.046-.59-1.375-.39-.328-.955-.495-1.68-.495h-3.754l-.002 3.907zm6.506 3.778c0-.694-.208-1.222-.617-1.569-.41-.346-1.036-.523-1.859-.523h-4.03v4.147h4.03c.8 0 1.418-.18 1.84-.533.423-.354.636-.864.636-1.522zm15.474-2.815c0 1.023-.148 1.96-.438 2.789a6.354 6.354 0 01-1.31 2.205 5.76 5.76 0 01-2.042 1.436c-.77.317-1.642.478-2.594.478-.964 0-1.842-.16-2.612-.478a5.59 5.59 0 01-2.024-1.435 6.258 6.258 0 01-1.325-2.196c-.292-.829-.44-1.773-.44-2.799s.148-1.961.44-2.793a6.432 6.432 0 011.325-2.219 5.582 5.582 0 012.024-1.421c.77-.314 1.648-.474 2.612-.474.952 0 1.825.16 2.593.474A5.767 5.767 0 0161.2 6.15a6.453 6.453 0 011.31 2.221c.29.83.437 1.772.437 2.792zm-10.715 0c0 1.556.4 2.804 1.188 3.71.775.916 1.831 1.382 3.14 1.382 1.309 0 2.365-.466 3.14-1.382.775-.894 1.169-2.14 1.169-3.71 0-1.57-.394-2.822-1.169-3.727-.787-.905-1.844-1.364-3.14-1.364-1.297 0-2.353.46-3.14 1.364-.785.93-1.186 2.184-1.186 3.727h-.002zm17.03-.27l4.564-6.34H71.6l-3.45 4.792-3.45-4.793H62.47l4.563 6.341-4.95 6.882h2.229l3.838-5.333 3.837 5.333h2.23l-4.955-6.882zm21.611-4.522v3.831h6.507v1.687h-6.503v4.072h7.356v1.816h-9.356V4.553h9.356V6.37l-7.36.002zm-4.6 5.28c-.654-.604-1.74-1.072-3.228-1.393l-1.138-.24c-1.08-.233-1.83-.519-2.23-.849-.396-.305-.597-.76-.597-1.354 0-.583.226-1.04.67-1.355.445-.316 1.104-.478 1.952-.478 1.09 0 1.892.2 2.382.597.49.397.767 1.024.827 1.866v.018h1.981v-.02c-.024-1.295-.474-2.328-1.336-3.07-.863-.74-2.165-1.115-3.874-1.115-1.416 0-2.556.329-3.387.978-.83.65-1.255 1.528-1.255 2.617s.348 1.952 1.034 2.57c.686.618 1.712 1.067 3.054 1.337l1.118.241c1.105.245 1.877.528 2.304.84.428.312.634.755.634 1.327 0 .705-.26 1.252-.771 1.623-.512.37-1.26.56-2.217.56-1.158 0-2.043-.247-2.63-.733-.587-.485-.892-1.23-.908-2.207v-.029h-2v.02c.012 1.517.505 2.689 1.465 3.477.96.788 2.318 1.19 4.038 1.19 1.587 0 2.845-.357 3.744-1.06.899-.703 1.356-1.68 1.356-2.904 0-1.023-.332-1.85-.987-2.456l-.002.003zm23.994 4.494l-.129-2.054c-.024-.729-.185-1.321-.48-1.76-.285-.428-.737-.737-1.345-.925.67-.226 1.2-.611 1.574-1.145.386-.55.582-1.237.582-2.04 0-1.136-.407-2.041-1.211-2.688-.804-.648-1.912-.978-3.304-.978h-5.724v13.22h2.002v-5.425h3.777c.749 0 1.3.175 1.634.521.334.347.528.95.564 1.793l.055 1.405c.012.766.143 1.337.389 1.696l.005.009h2.058l-.017-.03c-.223-.39-.368-.928-.429-1.601l-.001.002zm-8.032-9.852h3.612c.823 0 1.464.18 1.905.533.44.354.664.884.664 1.578 0 .72-.217 1.284-.645 1.671-.428.387-1.029.588-1.775.588h-3.76l-.001-4.37zm10.043 11.482h2.001V4.553h-2.001v13.223zM125.636 6.37V4.553h-9.356v13.223h9.356v-1.817h-7.353v-4.072h6.506v-1.686h-6.506V6.37h7.353zm10.663 5.28c-.654-.604-1.74-1.073-3.228-1.393l-1.137-.24c-1.08-.234-1.831-.52-2.23-.85-.397-.305-.598-.759-.598-1.354 0-.583.225-1.039.67-1.355.445-.316 1.104-.478 1.952-.478 1.089 0 1.892.201 2.382.598.49.397.767 1.024.827 1.866v.018h1.981v-.02c-.025-1.296-.475-2.328-1.337-3.07-.862-.741-2.165-1.115-3.874-1.115-1.416 0-2.555.328-3.387.978-.831.65-1.254 1.528-1.254 2.617s.348 1.951 1.033 2.57c.686.617 1.712 1.066 3.054 1.337l1.118.24c1.106.245 1.881.528 2.304.84.424.313.635.756.635 1.327 0 .706-.26 1.252-.772 1.623s-1.26.561-2.217.561c-1.158 0-2.042-.248-2.629-.733-.588-.485-.892-1.23-.908-2.207v-.027h-2.001v.02c.012 1.517.505 2.689 1.465 3.477.961.788 2.318 1.19 4.039 1.19 1.586 0 2.845-.357 3.744-1.06.899-.703 1.356-1.68 1.356-2.904 0-1.023-.333-1.85-.988-2.456zm21.303-8.75H156.6v16.528h1l.002-16.528zm-9.161 7.994l4.564-6.34h-2.23l-3.45 4.792-3.451-4.793h-2.225l4.564 6.341-4.953 6.882h2.229l3.838-5.333 3.838 5.333h2.227l-4.951-6.882zm21.988.756c-.653-.604-1.739-1.073-3.228-1.393l-1.137-.24c-1.08-.234-1.83-.52-2.23-.85-.396-.305-.598-.758-.598-1.354 0-.583.226-1.039.671-1.355.445-.316 1.103-.478 1.951-.478 1.09 0 1.893.201 2.382.598.489.397.77 1.024.83 1.866v.018h1.982v-.02c-.024-1.296-.474-2.328-1.336-3.07-.863-.741-2.165-1.115-3.874-1.115-1.417 0-2.556.328-3.387.978-.831.65-1.255 1.528-1.255 2.617s.348 1.951 1.034 2.57c.686.617 1.711 1.066 3.053 1.337l1.119.24c1.104.245 1.88.528 2.304.84.423.313.633.756.633 1.327 0 .706-.259 1.252-.771 1.623s-1.26.561-2.217.561c-1.158 0-2.043-.248-2.629-.733-.587-.485-.892-1.23-.908-2.207v-.027h-2.004v.02c.012 1.517.504 2.689 1.465 3.477.96.788 2.317 1.19 4.038 1.19 1.586 0 2.845-.357 3.744-1.06.9-.703 1.356-1.68 1.356-2.904 0-1.023-.333-1.85-.988-2.456z" fill="#fff"/></svg><svg viewBox="0 0 502.664 502.664" id="icon" xmlns="http://www.w3.org/2000/svg"><g fill="#010002"><path d="M153.821 358.226L0 274.337v-46.463l153.821-83.414v54.574L46.636 250.523l107.185 53.431v54.272zM180.094 387.584L282.103 115.08h32.227L212.084 387.584h-31.99zM348.843 358.226v-54.272l107.164-52.999-107.164-52.59v-53.927l153.821 83.522v46.183l-153.821 84.083z"/></g></svg></svg>