<svg width="105" height="22" fill="none" xmlns="http://www.w3.org/2000/svg"><path d="M3.436 6.6a2.064 2.064 0 001.28 1.911 2.08 2.08 0 002.262-.448A2.067 2.067 0 005.51 4.53c-.55 0-1.078.219-1.467.606A2.065 2.065 0 003.436 6.6zM16.408 0h-3.413a.144.144 0 00-.144.144v21.694a.161.161 0 00.161.161h3.396c1.5 0 2.94-.594 4.001-1.652a5.632 5.632 0 001.657-3.988V5.64a5.633 5.633 0 00-1.657-3.989 5.667 5.667 0 00-4-1.652zm.808 14.324a2.236 2.236 0 01-2.061-1.373 2.218 2.218 0 01.484-2.424 2.233 2.233 0 013.808 1.573 2.22 2.22 0 01-.653 1.573 2.234 2.234 0 01-1.578.651zM10.482 0H5.658c-1.5 0-2.94.594-4 1.652A5.633 5.633 0 000 5.642v10.717c0 1.496.596 2.93 1.657 3.989A5.667 5.667 0 005.658 22h4.824a.162.162 0 00.161-.161V.16A.161.161 0 0010.482 0zM8.864 20.228H5.658a3.89 3.89 0 01-2.744-1.133 3.866 3.866 0 01-1.136-2.736V5.64a3.857 3.857 0 011.136-2.736 3.88 3.88 0 012.744-1.133h3.206v18.456zM45.222 2.52l3.075 4.13h1.223V.475h-1.257v4.055L45.217.476h-1.25v6.172h1.255V2.521zm-12.678 11.86c-1.688-.277-2.778-.589-2.778-1.372 0-.906 1.214-1.254 2.843-1.254 1.514 0 3.033.575 3.575.802l.83-2.017c-.588-.232-2.451-.897-4.524-.897-2.524 0-5.207 1.228-5.207 3.503 0 1.845 1.305 2.787 4.654 3.36 2.362.406 3.662.629 3.625 1.642-.02.557-.453 1.492-3.114 1.492-2.142 0-3.65-.774-4.174-1.088l-1.104 1.99c1.585.801 3.335 1.224 5.112 1.234 3.717 0 5.682-1.283 5.682-3.713-.002-1.407-.48-2.874-5.42-3.682zM28.95 2.52l3.075 4.13h1.223V.475h-1.257v4.055L28.945.476h-1.25v6.172h1.255V2.521zM51.094 18.26l-2.476-8.451h-2.073l-2.462 8.42-2.247-8.42h-2.545l3.31 11.649h2.807l2.179-7.675 2.164 7.675h2.82l3.324-11.65H53.35l-2.256 8.452zM39.295.476h-1.378v6.172h1.378V.476zm19.5 20.98h2.6V9.809h-2.6v11.649zM97.498.269a3.312 3.312 0 00-3.058 2.03 3.286 3.286 0 00.712 3.593 3.308 3.308 0 003.603.717 3.291 3.291 0 001.076-5.372 3.31 3.31 0 00-2.333-.968zm0 5.217a1.932 1.932 0 01-1.784-1.183 1.916 1.916 0 01.415-2.096 1.93 1.93 0 013.293 1.357c0 .509-.203.997-.563 1.357-.361.36-.85.564-1.36.565zm.422 8.913h-5.455v-4.59H90.05v11.649h2.416v-4.645h5.456v4.645h2.42V9.807h-2.418l-.002 4.591zm6.356 5.463l-.403 1.167-.406-1.167h-.444v1.596h.286v-1.226l.418 1.211.006.015h.275l.005-.015.418-1.21v1.225h.287V19.86h-.442zM87.011.476h-2.56v6.172h2.56c1.756 0 3.184-1.385 3.184-3.086 0-1.702-1.428-3.086-3.184-3.086zm.061 4.877h-1.348v-3.58h1.348a1.787 1.787 0 010 3.58zm14.29 14.814h.49v1.29h.311v-1.29h.481v-.306h-1.287l.005.306zm-19.095-8.15a3.755 3.755 0 013.207 1.809l1.9-1.65a6.234 6.234 0 00-3.086-2.39 6.253 6.253 0 00-3.907-.09 6.236 6.236 0 00-3.193 2.246 6.205 6.205 0 000 7.4 6.236 6.236 0 003.193 2.248 6.253 6.253 0 003.907-.09 6.234 6.234 0 003.087-2.39l-1.9-1.65a3.742 3.742 0 01-3.208 1.808c-2.044 0-3.707-1.627-3.707-3.627 0-2 1.663-3.623 3.707-3.623zm-13.738-6.51h-3.56V4.059h3.292V2.942H64.97V1.61h3.559V.476h-4.816v6.172h4.816V5.507zm-4.28 6.773h3.734v9.177h2.513V12.28h3.65V9.808h-9.9l.003 2.472zM59.176.476H53.93v1.31h1.98V6.65h1.332V1.787h1.934V.477zm20.035 6.172V.476h-1.256v4.055L74.909.476h-1.251v6.172h1.255V2.521l3.076 4.13 1.222-.003z" fill="#fff"/></svg>