<svg width="111" height="22" fill="none" xmlns="http://www.w3.org/2000/svg"><path d="M70.521 17.742l-4.211-5.69-4.207 5.69h-1.737l5.065-6.875-4.624-6.248h1.733l3.77 5.097 3.768-5.097h1.733l-4.624 6.248 5.067 6.875h-1.733zM37.693 17.742l-5.069-6.875L37.25 4.62h-1.732l-3.772 5.098L27.98 4.62h-1.727l4.62 6.248-5.067 6.875h1.736l4.208-5.69 4.21 5.69h1.733z" fill="#fff"/><path d="M47.335 11.367c-.26-.22-.55-.404-.86-.547a2.986 2.986 0 001.158-1.096c.28-.463.427-.992.427-1.532 0-.84-.313-3.57-4.288-3.57h-5.357v5.659h-1.786c-.23.298-.755 1.02-.956 1.317h2.742v6.147h5.354c2.901 0 4.704-1.466 4.704-3.83 0-1.035-.392-1.912-1.138-2.548zm-7.442-5.378h3.876c1.05 0 2.804.26 2.804 2.086 0 1.38-1.022 2.204-2.804 2.204h-3.876v-4.29zm3.876 10.385h-3.876v-4.777h3.876c1.469 0 3.227.403 3.227 2.286 0 2.165-2.02 2.49-3.227 2.49v.001zM55.439 4.315c-3.705 0-6.295 2.82-6.295 6.858s2.59 6.86 6.295 6.86 6.282-2.816 6.282-6.86c0-4.044-2.582-6.858-6.282-6.858zm0 12.33c-2.825 0-4.8-2.25-4.8-5.472 0-3.221 1.978-5.47 4.8-5.47s4.783 2.25 4.783 5.47c0 3.22-1.967 5.472-4.783 5.472zM97.845 4.619v10.77L89.873 4.61l-1.307-.003v13.113h1.468V7.189l7.808 10.541h1.47V4.62h-1.467zM80.946 4.314c-3.704 0-6.294 2.821-6.294 6.857s2.591 6.863 6.294 6.863c3.703 0 6.283-2.817 6.283-6.863 0-4.045-2.582-6.857-6.283-6.857zm0 12.331c-2.825 0-4.8-2.252-4.8-5.474 0-3.222 1.977-5.47 4.8-5.47 2.823 0 4.785 2.25 4.785 5.47 0 3.22-1.966 5.474-4.785 5.474zM102.437 16.448v-4.85h7.256v-1.284h-7.256v-4.42h7.748V4.61h-9.226v13.122h9.318v-1.284h-7.84zM3.297 3.163c-.006.007-.012.01-.01.01A10.957 10.957 0 002.26 17.66a.047.047 0 00.058.018.045.045 0 00.014-.058c-.842-2.588 3.466-8.872 5.69-11.51a.051.051 0 00.016-.032.045.045 0 00-.019-.036C4.273 2.334 3.274 3.183 3.29 3.171M18.808 3.163l.01.01a10.958 10.958 0 011.027 14.488.047.047 0 01-.061.018.048.048 0 01-.014-.058c.846-2.588-3.456-8.878-5.68-11.514a.05.05 0 01-.017-.032.055.055 0 01.02-.037c3.745-3.707 4.736-2.854 4.727-2.865M11.051 0c2.231 0 4.066.611 5.758 1.61a.043.043 0 01.018.054.044.044 0 01-.054.019c-2.139-.46-5.39 1.38-5.697 1.564a.038.038 0 01-.024.008.04.04 0 01-.023-.008c-.815-.466-3.823-2.035-5.716-1.552a.046.046 0 01-.053-.02.043.043 0 01.018-.055C6.97.611 8.828 0 11.05 0zM11.051 8.824a.062.062 0 01.036.018c3.306 2.5 8.968 8.69 7.24 10.44l.003-.005-.004.004A11.083 11.083 0 0111.052 22c-2.676 0-5.26-.966-7.275-2.719v-.004.004c-1.725-1.749 3.935-7.94 7.24-10.44a.07.07 0 01.037-.017" fill="#fff"/></svg>